<?xml version="1.0" encoding="UTF-8"?>
<svg version="1.1" xmlns="http://www.w3.org/2000/svg" width="3840" height="477">
<path d="M0 0 C43.23 0 86.46 0 131 0 C134.01832118 4.82931388 136.79272004 9.33250442 139.34765625 14.3515625 C140.2456897 16.10509033 140.2456897 16.10509033 141.16186523 17.89404297 C141.47147186 18.50197693 141.78107849 19.10991089 142.10006714 19.73626709 C146.9164954 29.18829947 151.80575967 38.58949988 156.9375 47.875 C162.15762957 57.33264651 167.11039023 66.91623135 172.03973389 76.52722168 C176.72862173 85.66410241 181.52856412 94.72336205 186.4921875 103.71484375 C190.96889279 111.85979273 195.22248189 120.11530241 199.46652222 128.3828125 C203.56627593 136.36585273 207.76871995 144.27818071 212.125 152.125 C228.39777489 181.67114757 240.92956185 212.95770939 254 244 C254.33 163.48 254.66 82.96 255 0 C282.39 0 309.78 0 338 0 C338 128.04 338 256.08 338 388 C303.68 388 269.36 388 234 388 C228.8592198 379.00363465 223.80037893 370.01670798 218.9375 360.875 C218.29131593 359.66410841 217.64490722 358.45333667 216.99829102 357.24267578 C215.66204621 354.74037554 214.32674276 352.23757672 212.9921875 349.734375 C209.81523078 343.77700028 206.62609304 337.82615277 203.4375 331.875 C202.81746094 330.71742188 202.19742188 329.55984375 201.55859375 328.3671875 C195.6334333 317.30853732 189.68582896 306.2620262 183.73388672 295.21777344 C180.82129735 289.81254563 177.9107577 284.40621432 175 279 C173.83334304 276.83332811 172.66667637 274.66666144 171.5 272.5 C150.5 233.5 150.5 233.5 148.7487793 230.24755859 C147.5863759 228.08892533 146.42377939 225.93039605 145.26098633 223.77197266 C142.27746987 218.23324772 139.29770873 212.69255245 136.32421875 207.1484375 C135.71513672 206.0140625 135.10605469 204.8796875 134.47851562 203.7109375 C133.33660628 201.58402238 132.195858 199.45648321 131.05664062 197.328125 C128.71621159 192.97145758 126.37421903 188.62314088 123.88378906 184.35009766 C117.9239974 174.08194354 113.04970034 163.53051982 108.375 152.625 C107.67660386 151.01006067 106.97738457 149.39547708 106.27734375 147.78125 C105.55417969 146.11320313 104.83101562 144.44515625 104.0859375 142.7265625 C97.46176745 127.45332249 90.71974864 112.23143025 84 97 C83.67 193.03 83.34 289.06 83 388 C55.61 388 28.22 388 0 388 C0 259.96 0 131.92 0 0 Z " fill="#0051CC" transform="translate(3502,83)"/>
<path d="M0 0 C0.88399947 0.00092179 1.76799894 0.00184359 2.67878628 0.00279331 C3.68985943 0.00141865 4.70093258 0.00004398 5.74264431 -0.00137234 C7.42038433 0.00402058 7.42038433 0.00402058 9.13201809 0.00952244 C10.30259258 0.00937641 11.47316708 0.00923038 12.67921352 0.00907993 C15.89807713 0.00965887 19.11689773 0.01468791 22.33575273 0.02165389 C25.6963417 0.02788826 29.05693143 0.02849129 32.41752529 0.0296793 C38.78529112 0.03279237 45.15303986 0.04100543 51.52079815 0.05102879 C58.76856499 0.06219068 66.01633263 0.06770057 73.26410592 0.07272422 C88.17703605 0.08318806 103.08995017 0.10078703 118.0028677 0.12304783 C122.24691376 10.62925405 122.24691376 10.62925405 123.88714504 15.39697361 C124.20260784 16.30984135 124.51807064 17.22270908 124.84309292 18.16323948 C125.17167797 19.12192936 125.50026302 20.08061924 125.8388052 21.06836033 C126.19425915 22.09867374 126.5497131 23.12898716 126.91593838 24.19052219 C127.67646822 26.39562042 128.43593665 28.60108497 129.19442654 30.80688572 C131.22040029 36.69792985 133.2548392 42.58605193 135.28802395 48.47461033 C135.69491955 49.65376011 136.10181515 50.83290989 136.52104092 52.04779148 C139.9271936 61.91512237 143.36137866 71.77237311 146.8153677 81.62304783 C147.22356747 82.78769062 147.22356747 82.78769062 147.64001369 83.97586155 C149.09982786 88.14081915 150.56025316 92.30556212 152.0209341 96.4702158 C155.79589361 107.23502412 159.56359692 118.00237576 163.33219051 128.76941395 C164.00419239 130.68933249 164.67622695 132.60923959 165.34826565 134.52914524 C172.22028989 154.16182398 179.08364057 173.79752156 185.9403677 193.43554783 C186.16741768 194.08582699 186.39446766 194.73610615 186.62839794 195.40609074 C190.31789235 205.97304388 194.00675995 216.54021583 197.69557095 227.10740757 C207.80281844 256.06118159 217.91061113 285.01476061 228.04026318 313.96070576 C229.15737001 317.15291904 230.27428462 320.34519925 231.39068508 323.53765965 C235.64287411 335.69680353 239.9005105 347.8537517 244.2059927 359.99414158 C244.83096751 361.75958393 245.45588837 363.52504537 246.08074856 365.2905283 C247.19872977 368.44899635 248.32262374 371.60526493 249.45037746 374.76025486 C249.93294436 376.12199106 250.41530041 377.483802 250.89739895 378.84570408 C251.30836819 379.99820652 251.71933743 381.15070896 252.14276028 382.33813572 C253.0028677 385.12304783 253.0028677 385.12304783 253.0028677 388.12304783 C218.6828677 388.12304783 184.3628677 388.12304783 149.0028677 388.12304783 C138.64003213 354.73168877 138.64003213 354.73168877 134.4403677 339.81054783 C133.99994128 338.25641816 133.55918484 336.70238197 133.11810207 335.14843845 C132.07595164 331.47435517 131.03803239 327.79910513 130.0028677 324.12304783 C128.19991238 324.52221409 128.19991238 324.52221409 126.36053371 324.92944431 C116.99182625 326.99363464 107.59791148 328.77405308 98.1278677 330.31054783 C96.61591824 330.56046482 96.61591824 330.56046482 95.07342434 330.81543064 C58.87366705 336.55366217 21.10317342 333.40164203 -13.9971323 323.12304783 C-14.1499995 323.98391247 -14.1499995 323.98391247 -14.30595493 324.86216831 C-15.6477593 332.01130022 -17.57636204 338.91148141 -19.65728855 345.87695408 C-20.0072237 347.05901936 -20.35715885 348.24108463 -20.7176981 349.45897007 C-21.45266828 351.93788099 -22.18980808 354.41614957 -22.92901707 356.89379978 C-23.68733361 359.43696848 -24.44357348 361.98061917 -25.19561863 364.52563572 C-26.28340075 368.20632363 -27.37572772 371.88562816 -28.46978855 375.56445408 C-28.80833363 376.70910633 -29.1468787 377.85375858 -29.49568272 379.03309727 C-29.80948383 380.08186543 -30.12328495 381.13063358 -30.44659519 382.21118259 C-30.72258045 383.13810413 -30.99856571 384.06502567 -31.28291416 385.02003574 C-31.9971323 387.12304783 -31.9971323 387.12304783 -32.9971323 388.12304783 C-34.3505382 388.21835946 -35.70887215 388.24493503 -37.06562901 388.24330235 C-38.38029903 388.24536434 -38.38029903 388.24536434 -39.72152805 388.24746799 C-40.69040958 388.24387272 -41.65929111 388.24027744 -42.65753269 388.23657322 C-43.67205006 388.23671925 -44.68656742 388.23686527 -45.73182774 388.23701572 C-49.10283603 388.23631612 -52.47378984 388.22852151 -55.84478855 388.22070408 C-58.17506473 388.21884007 -60.50534131 388.21741609 -62.83561802 388.21641636 C-68.98250495 388.21258985 -75.12936843 388.20275843 -81.27624607 388.19171238 C-87.54323096 388.18150112 -93.81021962 388.17691935 -100.07721043 388.17187595 C-112.38386138 388.16113628 -124.6904949 388.14405827 -136.9971323 388.12304783 C-134.97271979 378.62425598 -134.97271979 378.62425598 -133.52691746 374.61547947 C-133.25046391 373.84003284 -132.97401035 373.06458622 -132.68917942 372.26564121 C-132.3911945 371.44643696 -132.09320957 370.6272327 -131.7861948 369.78320408 C-131.46637638 368.88911335 -131.14655796 367.99502262 -130.81704807 367.07383823 C-130.12208751 365.13169888 -129.42487391 363.19036457 -128.72564793 361.24975681 C-126.79559727 355.89045021 -124.8846366 350.52434837 -122.9736948 345.15820408 C-122.36705997 343.45575031 -122.36705997 343.45575031 -121.7481699 341.71890354 C-117.06722622 328.55382131 -112.53365128 315.33842518 -107.9971323 302.12304783 C-101.91759217 284.42467266 -95.77436287 266.75228966 -89.4971323 249.12304783 C-83.16087107 231.326103 -76.95438884 213.48700654 -70.8096323 195.62304783 C-65.25864054 179.486611 -59.70698839 163.3510573 -54.0596323 147.24804783 C-53.79152744 146.48346256 -53.52342258 145.7188773 -53.24719334 144.93112278 C-51.82188939 140.86736723 -50.39551907 136.80398673 -48.96881199 132.74072361 C-45.09510259 121.70640783 -41.23049839 110.66889776 -37.36593723 99.63137531 C-36.91289905 98.33748455 -36.45983521 97.04360277 -36.00674534 95.74973011 C-28.80216878 75.17586598 -21.63150248 54.59041909 -14.50177097 33.99047947 C-12.95953191 29.53490161 -11.41490596 25.0801623 -9.86706638 20.62652683 C-9.27994945 18.93693339 -8.69349857 17.24710837 -8.10766697 15.55706882 C-7.27045349 13.14440411 -6.42933207 10.73313986 -5.58697605 8.32226658 C-5.33815174 7.60335743 -5.08932743 6.88444828 -4.83296299 6.14375401 C-2.7366845 0.16861331 -2.7366845 0.16861331 0 0 Z M57.0028677 80.12304783 C44.58619244 122.09509549 32.17264181 164.0681636 19.82934475 206.06186008 C18.86176897 209.35341781 17.89291489 212.64459513 16.92297268 215.93545628 C15.78848236 219.78487033 14.65657197 223.63503309 13.52676296 227.48582363 C13.11399967 228.89110315 12.70032241 230.29611458 12.2856741 231.70083904 C11.72454742 233.60239465 11.16706557 235.5050247 10.60980129 237.4077158 C10.29739498 238.47021549 9.98498867 239.53271519 9.6631155 240.62741184 C8.91761383 243.01504498 8.91761383 243.01504498 9.0028677 245.12304783 C17.94514437 247.63959017 26.7748256 249.8952271 36.0028677 251.12304783 C37.19782864 251.29127048 37.19782864 251.29127048 38.4169302 251.46289158 C58.5400675 253.79462019 88.30885009 254.47005663 107.0028677 245.12304783 C104.6524896 235.22766592 101.82867707 225.49683801 98.94427395 215.74804783 C98.44192922 214.04345629 97.93980899 212.33879858 97.43789577 210.63407993 C96.09436822 206.07299487 94.74790196 201.51278227 93.4008894 196.95272541 C92.00020745 192.20900864 90.60233528 187.46446417 89.20428371 182.71997166 C87.20740468 175.9440557 85.20973701 169.16837329 83.21099281 162.39300728 C79.76902987 150.72518003 76.33298874 139.05562107 72.9013052 127.38476658 C72.54713559 126.18027552 72.54713559 126.18027552 72.18581104 124.9514513 C71.04252399 121.06312341 69.89935461 117.17476095 68.75625515 113.28637791 C66.85862454 106.83152977 64.96006214 100.3769557 63.0615263 93.92237377 C62.18833905 90.95371297 61.31520965 87.98503515 60.44207668 85.01635838 C60.16218395 84.06472309 59.88229122 83.11308781 59.59391689 82.13261509 C59.39887066 81.46945789 59.20382442 80.8063007 59.0028677 80.12304783 C58.3428677 80.12304783 57.6828677 80.12304783 57.0028677 80.12304783 Z " fill="#0051CC" transform="translate(793.9971323013306,82.87695217132568)"/>
<path d="M0 0 C39.6 0 79.2 0 120 0 C124.50015413 11.25038532 124.50015413 11.25038532 126.20385742 16.14086914 C126.58979065 17.24513748 126.97572388 18.34940582 127.37335205 19.48713684 C127.77995056 20.65798325 128.18654907 21.82882965 128.60546875 23.03515625 C129.0461763 24.29899106 129.48707909 25.5627578 129.92816162 26.82646179 C131.10621692 30.20348049 132.28142386 33.5814838 133.45603561 36.95970154 C134.69050553 40.50852973 135.92761122 44.05643908 137.16430664 47.60449219 C143.80326648 66.65643821 150.41996339 85.716134 157.02734375 104.77905273 C161.40158276 117.39873744 165.78688088 130.01448939 170.1875 142.625 C170.48334991 143.47282043 170.77919983 144.32064087 171.08401489 145.19415283 C174.44871653 154.83525833 177.81650867 164.47528378 181.18500328 174.11506462 C183.74865716 181.45159739 186.31196869 188.78824972 188.875 196.125 C189.11078262 196.79991234 189.34656525 197.47482468 189.5894928 198.1701889 C196.40927483 217.69186779 203.20860715 237.22050453 209.98034668 256.75891113 C216.66971832 276.05963915 223.3925293 295.34857008 230.12646484 314.63378906 C232.08119542 320.23214566 234.03486918 325.83087072 235.98828125 331.4296875 C236.48276009 332.84688332 236.48276009 332.84688332 236.98722839 334.29270935 C238.60367695 338.92579959 240.21965807 343.55905204 241.8347168 348.19262695 C242.44187699 349.93441367 243.04905433 351.6761944 243.65625 353.41796875 C243.94679764 354.25143326 244.23734528 355.08489777 244.53669739 355.94361877 C246.25744093 360.87751564 247.98521339 365.80886483 249.71875 370.73828125 C250.10297119 371.83366211 250.48719238 372.92904297 250.88305664 374.05761719 C251.55937614 375.98494768 252.23804169 377.91145745 252.91967773 379.83691406 C255 385.77527776 255 385.77527776 255 388 C220.68 388 186.36 388 151 388 C149.23777688 383.30073835 147.58133956 378.85062527 146.19067383 374.07470703 C145.87056839 372.98062531 145.55046295 371.88654358 145.22065735 370.75930786 C144.88616074 369.60381439 144.55166412 368.44832092 144.20703125 367.2578125 C143.85613937 366.05309296 143.5052475 364.84837341 143.14372253 363.60714722 C142.21915948 360.429217 141.2975656 357.25044398 140.37701416 354.0713501 C139.62187554 351.46775885 138.86242946 348.86543226 138.10298634 346.26309395 C137.19750434 343.1579402 136.29617291 340.05158315 135.39453125 336.9453125 C135.05396194 335.77767365 134.71339264 334.61003479 134.36250305 333.40701294 C134.0518541 332.33184418 133.74120514 331.25667542 133.42114258 330.14892578 C133.14595291 329.20042755 132.87076324 328.25192932 132.5872345 327.27468872 C132 325 132 325 132 323 C130.91847656 323.31453125 129.83695313 323.6290625 128.72265625 323.953125 C119.26741208 326.6163974 109.82751106 328.69923987 100.125 330.25 C99.11703369 330.41274414 98.10906738 330.57548828 97.07055664 330.74316406 C61.34347857 336.2204051 22.50701118 334.13423667 -12 323 C-12.20536377 323.87221191 -12.41072754 324.74442383 -12.62231445 325.64306641 C-15.43881757 337.27197305 -18.78948784 348.71925076 -22.22827148 360.17773438 C-23.20001778 363.41672379 -24.16581487 366.65744568 -25.13085938 369.8984375 C-25.74705409 371.96103963 -26.36357799 374.02354344 -26.98046875 376.0859375 C-27.26899216 377.05348969 -27.55751556 378.02104187 -27.8547821 379.01791382 C-28.12208633 379.90709503 -28.38939056 380.79627625 -28.66479492 381.71240234 C-28.89921799 382.49465179 -29.13364105 383.27690125 -29.37516785 384.08285522 C-30 386 -30 386 -31 388 C-65.32 388 -99.64 388 -135 388 C-132.95952879 380.51827222 -130.81593941 373.25455133 -128.26171875 365.95703125 C-127.90457794 364.92736237 -127.54743713 363.89769348 -127.17947388 362.83682251 C-126.01902369 359.49413874 -124.8533546 356.15330224 -123.6875 352.8125 C-122.87236428 350.46827618 -122.05750748 348.12395537 -121.24291992 345.77954102 C-118.83407153 338.85111932 -116.41819126 331.92516558 -114 325 C-113.49611755 323.55663269 -113.49611755 323.55663269 -112.98205566 322.08410645 C-109.80181631 312.97566973 -106.61419172 303.86983513 -103.421875 294.765625 C-99.79084625 284.41016767 -96.17571184 274.04918512 -92.5625 263.6875 C-91.92895811 261.87092993 -91.29541318 260.05436092 -90.66186523 258.23779297 C-88.17981203 251.12062625 -85.69824441 244.00329032 -83.21728516 236.88574219 C-81.4368381 231.77788506 -79.65604251 226.67014954 -77.875 221.5625 C-77.57471893 220.70129547 -77.27443787 219.84009094 -76.96505737 218.95278931 C-72.97972038 207.52423583 -68.98564339 196.09876693 -64.984375 184.67578125 C-64.33084297 182.80999168 -64.33084297 182.80999168 -63.66410828 180.9065094 C-63.44437505 180.27919009 -63.22464182 179.65187078 -62.99825001 179.0055418 C-61.8738128 175.7953684 -60.74938976 172.58519003 -59.625 169.375 C-59.40130863 168.73636143 -59.17761726 168.09772285 -58.94714737 167.4397316 C-52.62397094 149.38627044 -46.32511369 131.32457785 -40.0625 113.25 C-30.07812241 84.43842575 -20.01505157 55.65554513 -9.84838867 26.90774536 C-9.07816381 24.72971387 -8.30830347 22.55155345 -7.53881836 20.3732605 C-6.46865686 17.34470697 -5.39672519 14.31678628 -4.32421875 11.2890625 C-4.00200851 10.37654221 -3.67979828 9.46402191 -3.3478241 8.52384949 C-3.05217056 7.69049576 -2.75651703 6.85714203 -2.4519043 5.99853516 C-2.1943486 5.27090973 -1.93679291 4.5432843 -1.6714325 3.79360962 C-1 2 -1 2 0 0 Z M59 80 C58.84253799 80.53787643 58.68507599 81.07575287 58.52284241 81.62992859 C48.91633893 114.44266704 39.28744288 147.24880417 29.64292526 180.05038834 C28.81827629 182.85535252 27.99383884 185.66037879 27.16946411 188.46542358 C25.84846325 192.96019631 24.52687647 197.45479638 23.20487213 201.94927406 C22.71858863 203.60280341 22.23247984 205.25638416 21.7465744 206.91002464 C21.06700984 209.22256123 20.38679934 211.53490664 19.70629883 213.84716797 C19.48992704 214.58311975 19.27355526 215.31907152 19.05062675 216.07732487 C17.82604095 220.23254549 16.58416756 224.38206712 15.32650757 228.52740479 C14.90960049 229.9045399 14.90960049 229.9045399 14.48427105 231.30949593 C13.94381731 233.09209955 13.40101909 234.87399445 12.85561085 236.65508842 C12.61307418 237.45542566 12.37053751 238.2557629 12.12065125 239.08035278 C11.79569939 240.14478198 11.79569939 240.14478198 11.46418285 241.2307148 C10.91541068 243.01756127 10.91541068 243.01756127 11 245 C38.83099122 253.66146172 81.62985726 258.68507137 109 245 C106.19579036 233.33415488 102.97882909 221.82970412 99.5546875 210.33203125 C99.02569776 208.54645109 98.49701942 206.76077865 97.96862793 204.97502136 C96.56394374 200.23060275 95.15525066 195.48738353 93.74578094 190.74438477 C92.28454915 185.82447549 90.82719793 180.90341728 89.36962891 175.98242188 C87.31628572 169.05095255 85.26195066 162.119779 83.20619774 155.18902397 C78.63727809 139.78467359 74.08749652 124.37470522 69.54351807 108.96298218 C68.03652863 103.85178566 66.52853922 98.7408843 65.02062988 93.62995911 C63.68022697 89.08669632 62.34008136 84.54335765 61 80 C60.34 80 59.68 80 59 80 Z " fill="#0051CC" transform="translate(3183,83)"/>
<path d="M0 0 C39.93 0 79.86 0 121 0 C124.01125 8.745 127.0225 17.49 130.125 26.5 C136.38023121 44.65125471 142.653315 62.79550243 149.01177979 80.91088867 C153.87367635 94.76272746 158.69343292 108.62886853 163.5 122.5 C168.54228425 137.04878768 173.59551199 151.59352865 178.6875 166.125 C178.959039 166.89997833 179.230578 167.67495667 179.51034546 168.47341919 C180.0750475 170.08507803 180.63974986 171.69673676 181.20445251 173.30839539 C181.64078758 174.55372795 181.64078758 174.55372795 182.0859375 175.82421875 C182.53284691 177.09970329 182.53284691 177.09970329 182.98878479 178.4009552 C187.60453648 191.57705884 192.20885983 204.75716082 196.8125 217.9375 C197.04913864 218.61498039 197.28577728 219.29246078 197.52958679 219.99047089 C204.71612907 240.56583161 211.87730575 261.1498608 219.0144043 281.74243164 C223.22897175 293.90172985 227.45431091 306.05719604 231.69433594 318.2076416 C232.61179656 320.83715787 233.52861012 323.466899 234.4453125 326.09667969 C237.34854303 334.42224794 240.25977674 342.74488485 243.18841553 351.06155396 C244.60046473 355.07293597 246.00910271 359.08551187 247.41741943 363.09820557 C248.09282274 365.01950631 248.76992346 366.94021127 249.4487915 368.86029053 C250.38540074 371.50957995 251.31634952 374.16079507 252.24609375 376.8125 C252.5265303 377.60093292 252.80696686 378.38936584 253.09590149 379.20169067 C254.16178383 382.25626922 255 384.73982114 255 388 C220.68 388 186.36 388 151 388 C138 345 138 345 132 324 C128.0709375 324.86625 128.0709375 324.86625 124.0625 325.75 C116.11824092 327.44804736 108.14344239 328.88652453 100.125 330.1875 C98.61305054 330.43741699 98.61305054 330.43741699 97.07055664 330.69238281 C61.71959021 336.29606762 22.07359533 334.35786511 -12 323 C-12.1015036 323.57096405 -12.2030072 324.1419281 -12.30758667 324.73019409 C-13.66598764 331.96239235 -15.61438288 338.95385617 -17.6953125 346.0078125 C-18.00782959 347.07894287 -18.32034668 348.15007324 -18.64233398 349.25366211 C-19.79860391 353.2121268 -20.96222357 357.16844167 -22.125 361.125 C-24.72375 369.99375 -27.3225 378.8625 -30 388 C-64.65 388 -99.3 388 -135 388 C-121.15540082 346.46620245 -121.15540082 346.46620245 -114.625 327.75 C-113.89843734 325.6620033 -113.17204179 323.57394844 -112.44580078 321.48583984 C-107.08120879 306.06923877 -101.69178393 290.66128273 -96.29292297 275.25665283 C-92.49677762 264.42492905 -88.71526424 253.5881464 -84.9375 242.75 C-80.62742649 230.38488438 -76.30952143 218.02254765 -71.98046875 205.6640625 C-71.54516342 204.42130554 -71.10985809 203.17854858 -70.66136169 201.89813232 C-69.76762579 199.34663655 -68.87388142 196.79514375 -67.98013306 194.24365234 C-67.75676395 193.60596924 -67.53339485 192.96828613 -67.30325699 192.3112793 C-66.85085585 191.01977037 -66.39844037 189.72826647 -65.94601059 188.43676758 C-59.32936902 169.54861696 -52.75084089 150.64762804 -46.20651245 131.73428345 C-40.76486111 116.01440058 -35.22977791 100.32933519 -29.65365601 84.65670776 C-22.6588094 64.98502845 -15.84522261 45.25197987 -9.06881332 25.50424004 C-8.43583341 23.65987552 -7.80234896 21.81568418 -7.16885376 19.97149658 C-6.39201381 17.70941127 -5.61629384 15.44694091 -4.84188843 13.184021 C-4.4958255 12.17623596 -4.14976257 11.16845093 -3.79321289 10.13012695 C-3.49363174 9.25564407 -3.1940506 8.38116119 -2.88539124 7.48017883 C-1.98689268 4.96328346 -0.99252808 2.48132021 0 0 Z M60 79 C52.96687784 101.43998017 46.37416311 124.00779078 39.76773453 146.57609558 C38.56553914 150.68188372 37.36202949 154.78728611 36.15850544 158.89268494 C27.7464851 187.58756076 19.34893733 216.2866983 11 245 C19.61560634 247.42132257 28.09773762 249.64930935 37 250.75 C37.96929443 250.87068848 38.93858887 250.99137695 39.93725586 251.11572266 C63.27334192 253.77657466 86.53339777 251.89395738 109 245 C107.29967171 235.16009645 104.39522216 225.70885921 101.56640625 216.1484375 C101.01479922 214.27271872 100.46355859 212.39689216 99.91265869 210.52096558 C98.43884421 205.50647395 96.95962612 200.49359171 95.47925186 195.48103333 C94.25574137 191.33567564 93.03544983 187.18937357 91.81523418 183.04304504 C81.60367537 148.34424528 71.33096533 113.66343407 61 79 C60.67 79 60.34 79 60 79 Z " fill="#0051CC" transform="translate(1794,83)"/>
<path d="M0 0 C1.07258057 -0.00067474 2.14516113 -0.00134949 3.25024414 -0.00204468 C19.31881384 0.01401429 35.01541991 0.4248228 50.875 3.25 C51.86145508 3.42160645 52.84791016 3.59321289 53.86425781 3.77001953 C79.15475153 8.30092931 103.29401309 16.14386275 126.875 26.25 C126.875 55.95 126.875 85.65 126.875 116.25 C116.81117021 112.89539007 116.81117021 112.89539007 112.51171875 111.0859375 C76.74974865 96.27039355 39.73783121 85.63332658 0.875 84.25 C-0.10855469 84.20875 -1.09210937 84.1675 -2.10546875 84.125 C-19.04388697 83.75118663 -39.69649386 84.87142068 -53.125 96.25 C-58.46171805 101.58671805 -60.28482278 107.76394291 -60.625 115.125 C-60.39705002 122.35557327 -58.30929493 127.91728454 -53.28125 133.1796875 C-34.75038719 148.73731486 -8.19739184 152.86653508 14.6875 158.1875 C56.67421618 167.95625902 107.37361191 180.68827474 131.85083008 219.82250977 C148.94466209 248.69973743 148.98493647 285.65561919 140.84765625 317.421875 C133.59875722 343.50533207 117.16586234 365.22793141 93.6640625 378.6796875 C36.48976799 410.55962635 -44.09511513 404.93436041 -105.125 388.25 C-122.49844875 383.2865534 -142.00543041 377.32971306 -157.125 367.25 C-157.41105123 364.22973549 -157.50295795 361.41547516 -157.46557617 358.39404297 C-157.46601425 357.47691528 -157.46645233 356.5597876 -157.46690369 355.61486816 C-157.46480832 352.57376043 -157.44144202 349.5331993 -157.41796875 346.4921875 C-157.41237546 344.38754579 -157.4081041 342.28290018 -157.40510559 340.17825317 C-157.39363584 334.63134021 -157.36415031 329.08466188 -157.33099365 323.5378418 C-157.30033865 317.88072891 -157.28661004 312.22357821 -157.27148438 306.56640625 C-157.23928268 295.46083426 -157.18806061 284.35543662 -157.125 273.25 C-152.58178436 274.70379732 -148.58064652 276.53930044 -144.4375 278.875 C-97.27094693 304.63605812 -28.27948628 323.21345544 25.28125 310.4375 C33.98536957 307.79988801 42.38932308 303.9038942 46.9375 295.64453125 C50.16196726 287.40870447 50.8206916 278.62919529 47.875 270.25 C40.8868273 256.79129703 25.6718393 252.3125637 12.18496704 248.01734924 C0.53235058 244.40380595 -11.34335047 241.8093946 -23.25 239.1875 C-61.63904657 230.69970804 -61.63904657 230.69970804 -79.25 223.5 C-80.06218994 223.16983887 -80.87437988 222.83967773 -81.71118164 222.49951172 C-95.80407975 216.60231877 -108.3817153 208.98209806 -120.125 199.25 C-120.79660156 198.73050781 -121.46820312 198.21101562 -122.16015625 197.67578125 C-140.6824583 182.95076208 -151.0948061 158.43144419 -153.90589905 135.39624023 C-157.13233667 103.79112777 -153.03042286 71.94613032 -132.6875 46.5 C-131.18321927 44.73575129 -129.66332223 42.98464657 -128.125 41.25 C-127.51140625 40.55261719 -126.8978125 39.85523438 -126.265625 39.13671875 C-103.43742247 14.79639169 -67.17462439 4.91390089 -35.125 1.25 C-34.31546875 1.15428711 -33.5059375 1.05857422 -32.671875 0.95996094 C-21.82179976 -0.13525288 -10.89344514 0.00614731 0 0 Z " fill="#0051CC" transform="translate(2263.125,76.75)"/>
<path d="M0 0 C1.58513901 0.00323273 1.58513901 0.00323273 3.20230103 0.00653076 C19.13462677 0.05860555 34.71714634 0.49353935 50.4375 3.3125 C51.59652832 3.51649414 52.75555664 3.72048828 53.94970703 3.93066406 C70.18479584 6.86618348 85.89262898 10.78550473 101.4375 16.3125 C102.59572266 16.72314697 102.59572266 16.72314697 103.77734375 17.14208984 C111.48523952 19.90230469 118.94493164 22.98246962 126.4375 26.3125 C126.4375 56.0125 126.4375 85.7125 126.4375 116.3125 C116.38136821 112.96045607 116.38136821 112.96045607 111.671875 110.9296875 C67.79404409 92.33041163 6.9924104 72.65954686 -40.69140625 89.12109375 C-48.18162749 92.2292808 -54.91182618 95.77202525 -58.5625 103.3125 C-61.77149386 111.75096533 -61.13988646 118.85843075 -57.6328125 127.015625 C-57.27960937 127.77359375 -56.92640625 128.5315625 -56.5625 129.3125 C-56.27117188 130.02921875 -55.97984375 130.7459375 -55.6796875 131.484375 C-54.2677845 133.79476173 -53.02723714 134.2549037 -50.5625 135.3125 C-49.09967054 136.2219745 -47.64172974 137.13933709 -46.1875 138.0625 C-27.92469242 148.9621236 -6.84598761 153.38112158 13.66213989 158.11825562 C38.32415119 163.81842162 62.51139938 170.33919615 85.4375 181.3125 C86.14567871 181.6513623 86.85385742 181.99022461 87.58349609 182.33935547 C96.58922729 186.72764161 104.65700168 191.971169 112.4375 198.3125 C113.22640625 198.93640625 114.0153125 199.5603125 114.828125 200.203125 C134.89169063 216.89937892 142.93543344 241.05646615 145.4375 266.3125 C145.83822999 271.65556656 145.73396594 276.9668845 145.4375 282.3125 C145.36571533 283.62589355 145.36571533 283.62589355 145.29248047 284.96582031 C143.39285194 316.60464757 134.84036512 343.68700058 111.5 366.3125 C99.56147844 376.78576369 85.35540322 384.09035944 70.4375 389.3125 C69.43565674 389.66368896 69.43565674 389.66368896 68.41357422 390.02197266 C36.10632135 401.02636105 0.87755394 401.44278847 -32.875 399.5625 C-33.64841736 399.51959839 -34.42183472 399.47669678 -35.21868896 399.43249512 C-74.26704604 397.19727955 -112.07370114 389.08429266 -147.52807617 372.24462891 C-150.51393631 370.8765725 -153.54370824 369.6062679 -156.5625 368.3125 C-156.5625 336.9625 -156.5625 305.6125 -156.5625 273.3125 C-137.5625 282.3125 -137.5625 282.3125 -128.4375 286.6875 C-82.7559977 307.60922405 -15.94297723 325.55343806 33.109375 307.86328125 C39.38549888 304.93884325 43.77408634 300.96356553 47.4375 295.125 C50.45628892 286.63465617 50.39116647 277.87710313 47.484375 269.3828125 C42.12432748 258.78271852 29.68118678 253.79419552 18.99511719 250.13232422 C3.91728486 245.2992428 -11.51986273 241.69831811 -26.99511719 238.41015625 C-56.83440446 232.06769095 -87.78769515 223.92197173 -112.5625 205.3125 C-113.41714844 204.67828125 -114.27179687 204.0440625 -115.15234375 203.390625 C-136.85416852 186.67119143 -149.42476282 164.29237952 -153.875 137.4375 C-157.44436619 105.27888345 -153.49385888 73.14549468 -133.25 47 C-113.2488617 22.14435048 -83.56657995 10.08163325 -53 4.0625 C-52.23510254 3.91127686 -51.47020508 3.76005371 -50.68212891 3.60424805 C-33.87060741 0.54179129 -17.04970236 -0.06274379 0 0 Z " fill="#0051CC" transform="translate(2638.5625,76.6875)"/>
<path d="M0 0 C0.82242188 -0.02835938 1.64484375 -0.05671875 2.4921875 -0.0859375 C6.04967443 0.53688662 8.50261551 1.96268717 11.125 4.375 C13.15270318 7.26553889 14.6564287 10.37633168 16.20527649 13.54364014 C16.70771262 14.53796704 17.21014874 15.53229394 17.7278102 16.55675197 C18.88571911 18.85438048 20.03694082 21.15434859 21.17958283 23.45951748 C23.29295835 27.72065828 25.43466901 31.96733467 27.57652855 36.21421051 C32.51925258 46.02487955 37.43145318 55.85071994 42.34169924 65.67767382 C44.91881834 70.834199 47.49826337 75.98956057 50.07739258 81.14508057 C55.11104847 91.20797256 60.14256744 101.27193151 65.17329087 111.33628979 C69.25981482 119.51160414 73.34712728 127.68652382 77.43499184 135.86116791 C78.01867846 137.02838791 78.60236508 138.19560792 79.20373917 139.39819823 C80.38968025 141.76976065 81.57562311 144.14132216 82.76156775 146.5128828 C93.5326951 168.05227543 104.30149633 189.59283036 115.06937792 211.13384574 C124.89755922 230.79496564 134.7278222 250.4550434 144.55981445 270.11425781 C155.62576573 292.24080942 166.69042101 314.36800828 177.75300199 336.49624515 C178.93099351 338.85254673 180.1089867 341.20884749 181.28698158 343.5651474 C181.86652828 344.72439508 182.44607499 345.88364276 183.04318371 347.07801916 C187.13128838 355.25509269 191.22032238 363.4317011 195.30971336 371.60813141 C200.28386004 381.55362689 205.25659159 391.49982834 210.22748294 401.4469513 C212.76434217 406.52330509 215.30185071 411.59933158 217.84108162 416.67449951 C220.16218597 421.31374257 222.48146204 425.95389467 224.79924265 430.59479913 C225.6407272 432.2788911 226.48289588 433.96264143 227.32579412 435.64602628 C228.46576896 437.92296255 229.60330579 440.20110003 230.74020672 442.4795723 C231.07266642 443.14215054 231.40512613 443.80472878 231.74766037 444.48738515 C234.67226138 450.36086178 236.56433468 455.82780253 234.51171875 462.3125 C232.52441441 466.37465513 229.93316341 468.62114486 225.79533386 470.5643158 C219.80986977 472.38143734 213.40017916 471.92761946 207.19726562 471.89257812 C205.58346425 471.89800438 203.96966784 471.90512986 202.35588074 471.91381836 C197.99012962 471.93199492 193.62475821 471.92500776 189.25900078 471.91230202 C184.68099857 471.90214488 180.10302795 471.91157522 175.52502441 471.91784668 C167.83840117 471.9251152 160.15193188 471.9155563 152.46533203 471.89648438 C143.59018507 471.87471714 134.71540572 471.88176908 125.84026766 471.90379 C118.20774082 471.92196671 110.57532438 471.92449123 102.94278288 471.91403532 C98.38967587 471.90781286 93.83674142 471.90693032 89.28364563 471.92018127 C85.00217369 471.93177229 80.72117376 471.92365507 76.43975258 471.90060425 C74.87248326 471.89533445 73.30517393 471.89680122 71.73792076 471.90565491 C56.98119595 471.98130543 56.98119595 471.98130543 50.125 467.375 C48.41674805 465.41259766 48.41674805 465.41259766 47.38671875 463.2890625 C46.96890137 462.45987305 46.55108398 461.63068359 46.12060547 460.77636719 C45.68893066 459.86016602 45.25725586 458.94396484 44.8125 458 C44.32668457 457.02192383 43.84086914 456.04384766 43.34033203 455.03613281 C42.22694231 452.79035006 41.12418097 450.53927938 40.02978516 448.28417969 C37.47992412 443.03210583 34.85672006 437.81678258 32.24119568 432.59719849 C30.20448541 428.53243179 28.17105386 424.46620235 26.15112305 420.39306641 C22.34577052 412.72903014 18.47963592 405.10641155 14.46899414 397.54760742 C6.13931341 381.7777916 -1.82258805 365.82014564 -9.82397461 349.88208008 C-11.80799328 345.9318028 -13.7987677 341.98504739 -15.7956543 338.04125977 C-34.76349098 300.56853102 -50.61571464 264.06306506 -57.875 222.375 C-58.04016113 221.43333984 -58.20532227 220.49167969 -58.37548828 219.52148438 C-63.39669061 189.21772345 -63.20030938 155.61395351 -57.875 125.375 C-57.67632324 124.23289062 -57.47764648 123.09078125 -57.27294922 121.9140625 C-52.69263671 96.38782648 -45.32912668 72.09674019 -34.875 48.375 C-34.54532227 47.61928711 -34.21564453 46.86357422 -33.87597656 46.08496094 C-16.94832852 7.60678432 -16.94832852 7.60678432 -6.98828125 1.15234375 C-4.55520328 0.25736683 -2.59094287 0.04035737 0 0 Z " fill="#2684FF" transform="translate(235.875,-0.375)"/>
<path d="M0 0 C99 0 198 0 300 0 C300 27.72 300 55.44 300 84 C264.36 84 228.72 84 192 84 C192 184.32 192 284.64 192 388 C161.97 388 131.94 388 101 388 C101 287.68 101 187.36 101 84 C67.67 84 34.34 84 0 84 C0 56.28 0 28.56 0 0 Z " fill="#0052CB" transform="translate(1042,83)"/>
<path d="M0 0 C30.03 0 60.06 0 91 0 C91 99.99 91 199.98 91 303 C131.92 303 172.84 303 215 303 C213.87490225 309.75058653 213.87490225 309.75058653 212.71582031 313.05712891 C212.45754456 313.80137115 212.1992688 314.5456134 211.9331665 315.31240845 C211.65100281 316.10907928 211.36883911 316.90575012 211.078125 317.7265625 C210.77743103 318.5871225 210.47673706 319.4476825 210.16693115 320.33432007 C209.52356947 322.17257583 208.87785765 324.01001051 208.22998047 325.84667969 C207.29032525 328.51067479 206.35727903 331.17689339 205.42578125 333.84375 C199.07692156 351.94254429 192.51495405 369.95858878 186 388 C124.62 388 63.24 388 0 388 C0 259.96 0 131.92 0 0 Z " fill="#0051CC" transform="translate(1409,83)"/>
<path d="M0 0 C30.03 0 60.06 0 91 0 C91 128.04 91 256.08 91 388 C60.97 388 30.94 388 0 388 C0 259.96 0 131.92 0 0 Z " fill="#0052CC" transform="translate(2887,83)"/>
<path d="M0 0 C3.16675579 1.87381999 5.5054624 4.31427521 8 7 C8.80953125 7.86367187 9.6190625 8.72734375 10.453125 9.6171875 C42.05738635 44.6187453 59.62309912 91.03916406 67 137 C67.13277344 137.8235498 67.26554688 138.64709961 67.40234375 139.49560547 C72.96171772 175.98290119 70.34576125 221.54904565 51 254 C46.26146665 258.50738538 42.75663614 259.12471018 36.35310364 259.14717102 C35.67423165 259.15084771 34.99535965 259.1545244 34.29591578 259.1583125 C32.01603583 259.16934509 29.73620147 259.17319246 27.45629883 259.17700195 C25.82353572 259.18326698 24.19077404 259.18991382 22.55801392 259.19691467 C17.19102979 259.21795467 11.82404539 259.22831772 6.45703125 259.23828125 C4.60884778 259.24232898 2.76066447 259.2464459 0.91248131 259.25063133 C-7.77145684 259.2696837 -16.4553865 259.28391404 -25.13934153 259.2922433 C-35.15955099 259.30201312 -45.17953939 259.32832575 -55.19967097 259.36874419 C-62.94671572 259.39891982 -70.69369716 259.41371359 -78.44079953 259.41702431 C-83.06667818 259.41937337 -87.69232068 259.42831476 -92.31813622 259.45348549 C-96.67253164 259.47679624 -101.02653594 259.48098744 -105.38097763 259.47072411 C-106.97567739 259.47022935 -108.57039659 259.47653217 -110.16503716 259.49028015 C-125.16112498 259.61229105 -125.16112498 259.61229105 -132 255 C-135.68029694 251.20469379 -135.36126328 246.99451691 -135.30304742 241.97273898 C-134.80241032 237.06174707 -132.83904834 233.17278544 -130.59860229 228.82730103 C-130.12506006 227.86587893 -129.65151783 226.90445683 -129.16362584 225.91390073 C-127.58144408 222.71520033 -125.96847629 219.53310258 -124.35498047 216.35009766 C-123.21017191 214.05211851 -122.06726053 211.7531934 -120.92610168 209.45339966 C-118.15105315 203.869904 -115.35269381 198.29841526 -112.54597454 192.73078449 C-109.2757367 186.24170897 -106.02815193 179.741388 -102.78119029 173.24064343 C-96.98637016 161.64094722 -91.16997151 150.0522061 -85.34179688 138.46923828 C-79.69047351 127.23772377 -74.05636061 115.99778886 -68.44042969 104.74853516 C-62.31847024 92.48572667 -56.18784928 80.22732838 -50.04138672 67.9767803 C-49.38577689 66.67007106 -48.7301674 65.36336165 -48.07455826 64.05665207 C-47.75200163 63.41379869 -47.429445 62.77094531 -47.09711393 62.10861153 C-44.82755755 57.58413549 -42.56390513 53.05673483 -40.30230331 48.52827835 C-37.2576599 42.4327067 -34.19778166 36.34501521 -31.12761497 30.26224899 C-30.00293967 28.02854857 -28.88300269 25.79245515 -27.76815605 23.55383301 C-26.24605642 20.49947684 -24.70700452 17.45427703 -23.16329956 14.41079712 C-22.72553566 13.52238274 -22.28777176 12.63396837 -21.83674228 11.71863234 C-17.06727977 2.41529091 -10.84905936 -3.05407236 0 0 Z " fill="#1771EC" transform="translate(135,212)"/>
</svg>
