<?xml version="1.0" encoding="UTF-8"?>
<svg version="1.1" xmlns="http://www.w3.org/2000/svg" width="3649" height="1520">
<path d="M0 0 C0.80475769 0.00060425 1.60951538 0.0012085 2.43865967 0.00183105 C58.18572928 0.11465431 113.28572622 12.21726523 164.0625 35.1875 C165.02784668 35.6215918 165.99319336 36.05568359 166.98779297 36.50292969 C187.70498703 45.8981318 207.55866125 56.92110132 226.0625 70.1875 C227.22006332 70.99404332 228.37877246 71.79894679 229.5390625 72.6015625 C238.05061817 78.57865991 246.14312454 84.97201252 254.14941406 91.60791016 C256.00449388 93.13960572 257.87123531 94.65572535 259.7421875 96.16796875 C260.84918368 97.07003603 261.95596745 97.97236407 263.0625 98.875 C264.031875 99.66261719 265.00125 100.45023437 266 101.26171875 C267.0209375 102.21498047 267.0209375 102.21498047 268.0625 103.1875 C268.0625 103.8475 268.0625 104.5075 268.0625 105.1875 C268.8810144 105.51923218 268.8810144 105.51923218 269.71606445 105.85766602 C272.8065482 107.60918667 275.12438164 109.9635854 277.60546875 112.46484375 C278.13336502 112.99082657 278.66126129 113.51680939 279.20515442 114.05873108 C280.32290582 115.17512313 281.43814203 116.29403834 282.55102539 117.4152832 C284.22007949 119.09489031 285.89932173 120.76375411 287.58007812 122.43164062 C294.1863484 129.02921094 300.28283406 135.84136199 306.0625 143.1875 C307.11102374 144.4770992 308.16155497 145.76507099 309.21484375 147.05078125 C315.82607821 155.21257087 322.09386852 163.54551944 328.0625 172.1875 C328.46146484 172.75871582 328.86042969 173.32993164 329.27148438 173.91845703 C336.40854857 184.16721226 342.65155784 194.87062403 348.71972656 205.78076172 C349.85871475 207.82224272 351.01487194 209.85212718 352.1796875 211.87890625 C361.27889838 228.17064689 368.25609245 245.84469253 374.75 263.3125 C375.12479492 264.29871338 375.49958984 265.28492676 375.88574219 266.30102539 C378.10517544 272.46282179 379.52620346 278.44622021 380.5625 284.88671875 C382.57451912 300.57800582 382.57451912 300.57800582 391.32910156 312.88183594 C398.26169105 317.11737748 411.83677813 323.67168487 420.00003052 321.7256012 C421.02095291 321.4592411 421.02095291 321.4592411 422.0625 321.1875 C423.41502975 321.09106511 424.77130012 321.03975876 426.12719727 321.02636719 C426.9216777 321.01691071 427.71615814 321.00745422 428.53471375 320.99771118 C429.39079727 320.99331024 430.2468808 320.9889093 431.12890625 320.984375 C432.02668289 320.97731537 432.92445953 320.97025574 433.84944153 320.96298218 C491.91574735 320.61139256 547.07328842 332.16316494 598.48046875 359.7578125 C601.37555493 361.30760292 604.28449645 362.80743132 607.23828125 364.2421875 C607.87749512 364.55285156 608.51670898 364.86351562 609.17529297 365.18359375 C610.87287291 366.00126672 612.57493799 366.80961003 614.27734375 367.6171875 C617.09260295 369.20447249 618.83232453 370.87751706 621.0625 373.1875 C622.86793664 374.45728752 624.7043478 375.68368468 626.5625 376.875 C639.87591239 385.61041032 652.2587958 395.56136318 663.96875 406.33984375 C666.12583263 408.32695339 666.12583263 408.32695339 669.0625 410.1875 C669.0625 410.8475 669.0625 411.5075 669.0625 412.1875 C669.62453125 412.4246875 670.1865625 412.661875 670.765625 412.90625 C673.58144042 414.47697697 675.54205416 416.40221464 677.8125 418.6875 C678.61171875 419.4815625 679.4109375 420.275625 680.234375 421.09375 C682.0625 423.1875 682.0625 423.1875 682.0625 425.1875 C683.0525 425.5175 684.0425 425.8475 685.0625 426.1875 C686.5 427.578125 686.5 427.578125 688.0625 429.4375 C688.67996094 430.16839844 689.29742188 430.89929688 689.93359375 431.65234375 C690.63613281 432.48894531 691.33867187 433.32554687 692.0625 434.1875 C693.25552734 435.55068359 693.25552734 435.55068359 694.47265625 436.94140625 C708.04831836 452.5133391 719.61172905 469.38978362 730.0625 487.1875 C730.54847656 488.01362793 731.03445313 488.83975586 731.53515625 489.69091797 C753.5678897 527.52028082 765.87974323 569.04233269 772.0625 612.1875 C772.26166016 613.516604 772.26166016 613.516604 772.46484375 614.87255859 C778.48921547 656.27319175 771.30073917 697.51991858 762.3125 737.875 C762.11414551 738.7712207 761.91579102 739.66744141 761.71142578 740.59082031 C761.52306152 741.4103418 761.33469727 742.22986328 761.140625 743.07421875 C760.97981445 743.77764404 760.81900391 744.48106934 760.65332031 745.20581055 C759.77705654 748.1449151 759.08419854 750.45770885 756.519382 752.28973693 C752.9094583 753.60883007 749.3625324 753.45086982 745.56977081 753.4196291 C744.70021812 753.4204388 743.83066543 753.42124851 742.93476266 753.42208275 C740.00072775 753.42236536 737.06693406 753.40827538 734.13293457 753.3943634 C732.01631147 753.3916568 729.89968706 753.38984389 727.78306246 753.38885134 C721.95077312 753.38360367 716.11857638 753.36591233 710.28631997 753.34633601 C704.0026948 753.32746444 697.71905585 753.32020025 691.43540955 753.31175232 C681.25030107 753.29676632 671.06522212 753.27642244 660.880134 753.25135804 C643.6925465 753.20907912 626.50496882 753.18425621 609.31734169 753.16499066 C602.70685339 753.15751134 596.0963657 753.14949297 589.48587799 753.14151287 C588.75143785 753.14062957 588.0169977 753.13974627 587.26030179 753.13883621 C569.77460269 753.1177258 552.28891201 753.09169986 534.80322266 753.0637207 C534.03802294 753.06250114 533.27282322 753.06128157 532.48443563 753.06002504 C514.62671898 753.03150148 496.76901335 752.9995613 478.91131592 752.96075439 C478.14302662 752.95908594 477.37473732 752.95741748 476.58316652 752.95569846 C472.7090409 752.94727206 468.83491536 752.93880543 464.96078986 752.93032398 C464.19511545 752.9286478 463.42944104 752.92697162 462.64056437 752.92524465 C461.09511786 752.9218598 459.54967135 752.9184716 458.00422484 752.91508005 C432.48888565 752.85918665 406.97356585 752.82009811 381.45817242 752.80010907 C377.8573229 752.79726759 374.2564736 752.79420443 370.65562439 752.79099083 C369.94692389 752.79036071 369.23822338 752.7897306 368.50804711 752.78908139 C357.08692999 752.77837253 345.66592804 752.74938929 334.244866 752.71326224 C322.77434156 752.67728212 311.30393843 752.65935981 299.83334982 752.65901951 C293.61513755 752.65825008 287.3972176 752.64914483 281.17907524 752.61838913 C275.49315467 752.59042249 269.80769732 752.58522406 264.12172788 752.59858008 C262.05851729 752.59930893 259.99528331 752.59146233 257.93214279 752.57444165 C255.13925785 752.55260806 252.34811039 752.56124207 249.55522919 752.57784748 C248.74385142 752.56414072 247.93247365 752.55043395 247.09650868 752.53631184 C244.57600952 752.51740196 244.57600952 752.51740196 241.0625 753.1875 C238.79977936 755.53610374 238.79977936 755.53610374 237.0625 758.1875 C232.8887418 760.44223811 228.85274975 760.46894427 224.22090387 760.439349 C223.432515 760.44227786 222.64412613 760.44520673 221.83184669 760.44822434 C219.1746384 760.45563507 216.51765807 760.44873737 213.86045074 760.44197559 C211.9341178 760.44436415 210.00778578 760.4476285 208.08145565 760.45169219 C202.75617728 760.46035411 197.43096893 760.45646845 192.1056894 760.45063647 C186.32425058 760.44648257 180.54282493 760.45385876 174.76138926 760.45978898 C163.95076828 760.46915172 153.14016923 760.46941952 142.32954552 760.46557341 C132.11102677 760.46203587 121.89251963 760.46321082 111.67400169 760.4685955 C110.64343512 760.46913374 110.64343512 760.46913374 109.59204901 760.46968286 C106.79391829 760.47115773 103.99578759 760.47266212 101.19765691 760.47420432 C72.77596228 760.48985056 44.35427662 760.49251707 15.93257846 760.49004826 C12.00375264 760.48970982 8.07492682 760.48938773 4.146101 760.48908257 C3.36577711 760.48902153 2.58545322 760.48896049 1.78148315 760.48889759 C-15.5006599 760.48762647 -32.7828017 760.49022566 -50.06494438 760.49360864 C-54.00935191 760.49437938 -57.95375945 760.4951241 -61.89816698 760.49587366 C-63.48117411 760.49617535 -65.06418124 760.49647723 -66.64718837 760.4967793 C-67.43184724 760.49692898 -68.2165061 760.49707866 -69.02494251 760.49723287 C-70.61206388 760.4975364 -72.19918525 760.49784108 -73.78630662 760.49814692 C-118.82978976 760.50682199 -163.87327181 760.51146233 -208.91675568 760.50719929 C-209.75110767 760.50712123 -210.58545966 760.50704317 -211.44509505 760.50696275 C-220.74936058 760.50608992 -230.0536261 760.50516066 -239.35789162 760.50421212 C-240.61798971 760.50408385 -240.61798971 760.50408385 -241.90354433 760.503953 C-248.88451642 760.50324213 -248.88451642 760.50324213 -252.09544348 760.50291077 C-305.83984017 760.49737385 -359.58421969 760.50491956 -413.32861328 760.52368164 C-426.87182359 760.52840368 -440.41503391 760.53308411 -453.95824432 760.5375185 C-454.79210119 760.53779182 -455.62595805 760.53806515 -456.4850833 760.53834675 C-482.1748929 760.54671481 -507.86470107 760.5513974 -533.55451202 760.55222607 C-534.36076598 760.55225243 -535.16701993 760.5522788 -535.99770582 760.55230596 C-553.69470172 760.55284668 -571.39169751 760.55247443 -589.08869338 760.55126625 C-595.4205515 760.55084061 -601.75240963 760.55047549 -608.08426776 760.55013681 C-609.65953038 760.55005151 -611.234793 760.54996257 -612.81005562 760.54986999 C-637.93473164 760.54841983 -663.059396 760.55555638 -688.18406922 760.56687395 C-714.18302433 760.57850954 -740.1819586 760.57910353 -766.18091381 760.56703053 C-768.97027642 760.56577864 -771.75963905 760.56457516 -774.54900169 760.56340981 C-775.23357834 760.56311951 -775.91815498 760.56282922 -776.62347637 760.56253013 C-786.81788603 760.55846245 -797.0122689 760.56278649 -807.20667458 760.57203293 C-818.53700113 760.58225313 -829.86727036 760.58275731 -841.19759508 760.56964377 C-846.90789797 760.56334357 -852.61809333 760.56189819 -858.3283903 760.57350711 C-863.51563162 760.58395628 -868.70267314 760.58078378 -873.88990342 760.56640258 C-875.76202466 760.56365746 -877.63416153 760.56601838 -879.50626815 760.57390973 C-882.03639311 760.58385301 -884.56580888 760.57549908 -887.09590387 760.56239682 C-888.19066895 760.57333237 -888.19066895 760.57333237 -889.3075505 760.58448883 C-893.68982194 760.53726136 -896.46362005 759.89524983 -899.9375 757.1875 C-902.25208862 753.71561707 -902.71694431 751.08746869 -903.5 747 C-903.74878906 745.72769531 -903.99757813 744.45539062 -904.25390625 743.14453125 C-905.94558095 733.71462554 -906.1800035 724.42948596 -906.1875 714.875 C-906.18817474 714.10183441 -906.18884949 713.32866882 -906.18954468 712.53207397 C-906.09185531 641.59407431 -877.72268926 576.85997216 -827.83300781 526.89282227 C-817.99674643 517.1875 -817.99674643 517.1875 -814.9375 517.1875 C-814.9375 516.5275 -814.9375 515.8675 -814.9375 515.1875 C-813.28076172 513.68066406 -813.28076172 513.68066406 -810.9921875 511.953125 C-810.16686523 511.32986328 -809.34154297 510.70660156 -808.49121094 510.06445312 C-766.15952609 478.95106946 -712.69790854 454.22367962 -658.9375 457.1875 C-659.05867188 456.54240479 -659.17984375 455.89730957 -659.3046875 455.23266602 C-664.14510335 428.62666868 -665.59529586 401.61971482 -658.9375 375.1875 C-658.72851074 374.32302246 -658.51952148 373.45854492 -658.30419922 372.56787109 C-646.45052546 324.38068946 -616.23003863 283.59630125 -574.5625 257 C-556.90774409 246.47587543 -537.17658094 238.8862767 -516.9375 235.1875 C-515.41962891 234.88199219 -515.41962891 234.88199219 -513.87109375 234.5703125 C-467.3905728 226.706864 -416.77200875 239.52831961 -378.2734375 266.2265625 C-377.83257813 266.54367187 -377.39171875 266.86078125 -376.9375 267.1875 C-374.62064929 261.70725698 -372.33044683 256.22185543 -370.17578125 250.67578125 C-353.43573627 207.71544821 -329.53946758 168.66620976 -298.9375 134.1875 C-298.08027344 133.218125 -297.22304687 132.24875 -296.33984375 131.25 C-290.68912829 124.97710923 -284.81365584 118.93706513 -278.875 112.9375 C-278.12387939 112.17332764 -277.37275879 111.40915527 -276.59887695 110.62182617 C-275.894646 109.91646729 -275.19041504 109.2111084 -274.46484375 108.484375 C-273.83312256 107.84854492 -273.20140137 107.21271484 -272.55053711 106.55761719 C-270.9375 105.1875 -270.9375 105.1875 -268.9375 105.1875 C-268.9375 104.5275 -268.9375 103.8675 -268.9375 103.1875 C-267.42962839 101.81258701 -265.85210239 100.51385538 -264.25 99.25 C-260.5799267 96.32234611 -256.96967511 93.36880199 -253.42871094 90.28442383 C-236.94088214 75.99099965 -218.48397602 64.29508281 -199.72412109 53.24755859 C-198.09459785 52.2807111 -196.47817143 51.29187649 -194.86328125 50.30078125 C-137.26360544 15.8277005 -66.69831817 -0.09363114 0 0 Z " fill="#F38120" transform="translate(2739.9375,184.8125)"/>
<path d="M0 0 C7.68553394 0.57882682 14.18788376 3.86485454 21.16992188 6.9375 C22.59208008 7.54464844 22.59208008 7.54464844 24.04296875 8.1640625 C24.89914795 8.53998535 25.75532715 8.9159082 26.63745117 9.30322266 C29.34790289 10.10260565 30.32576182 9.702868 33 9 C34.35252975 8.90356511 35.70880012 8.85225876 37.06469727 8.83886719 C38.25641792 8.82468246 38.25641792 8.82468246 39.47221375 8.81021118 C40.32829727 8.80581024 41.1843808 8.8014093 42.06640625 8.796875 C42.96418289 8.78981537 43.86195953 8.78275574 44.78694153 8.77548218 C102.85324735 8.42389256 158.01078842 19.97566494 209.41796875 47.5703125 C212.31305493 49.12010292 215.22199645 50.61993132 218.17578125 52.0546875 C218.81499512 52.36535156 219.45420898 52.67601562 220.11279297 52.99609375 C221.81037291 53.81376672 223.51243799 54.62211003 225.21484375 55.4296875 C228.03010295 57.01697249 229.76982453 58.69001706 232 61 C233.80543664 62.26978752 235.6418478 63.49618468 237.5 64.6875 C250.81341239 73.42291032 263.1962958 83.37386318 274.90625 94.15234375 C277.06333263 96.13945339 277.06333263 96.13945339 280 98 C280 98.66 280 99.32 280 100 C280.84304688 100.35578125 280.84304688 100.35578125 281.703125 100.71875 C284.51894042 102.28947697 286.47955416 104.21471464 288.75 106.5 C289.54921875 107.2940625 290.3484375 108.088125 291.171875 108.90625 C293 111 293 111 293 113 C293.99 113.33 294.98 113.66 296 114 C297.4375 115.390625 297.4375 115.390625 299 117.25 C299.61746094 117.98089844 300.23492188 118.71179688 300.87109375 119.46484375 C301.57363281 120.30144531 302.27617187 121.13804687 303 122 C303.79535156 122.90878906 304.59070312 123.81757812 305.41015625 124.75390625 C318.98581836 140.3258391 330.54922905 157.20228362 341 175 C341.48597656 175.82612793 341.97195313 176.65225586 342.47265625 177.50341797 C364.5053897 215.33278082 376.81724323 256.85483269 383 300 C383.13277344 300.88606934 383.26554687 301.77213867 383.40234375 302.68505859 C389.42671547 344.08569175 382.23823917 385.33241858 373.25 425.6875 C372.95246826 427.03183105 372.95246826 427.03183105 372.64892578 428.40332031 C372.36637939 429.63260254 372.36637939 429.63260254 372.078125 430.88671875 C371.91731445 431.59014404 371.75650391 432.29356934 371.59082031 433.01831055 C370.01682175 438.29770985 370.01682175 438.29770985 367.4056257 440.10118943 C364.05843801 441.35179449 360.850995 441.27296289 357.3273716 441.24888897 C356.54637877 441.25149625 355.76538595 441.25410354 354.96072668 441.25678983 C352.32754743 441.26311681 349.69460424 441.25510965 347.06143188 441.24723816 C345.16035606 441.24882563 343.25928079 441.25128861 341.35820711 441.25455457 C336.12008891 441.26098695 330.88204765 441.25488488 325.64393449 441.24679029 C319.99753457 441.24022565 314.35114343 441.24515964 308.70474243 441.24867249 C297.62599543 441.25372461 286.54727821 441.24805681 275.4685349 441.23882218 C262.53336454 441.22843023 249.5982006 441.22850874 236.66302685 441.22899476 C212.83388479 441.22951125 189.00475956 441.21946257 165.175623 441.20449232 C143.51763312 441.19093562 121.85965424 441.18462816 100.20166016 441.18530273 C98.81695865 441.18534315 97.43225715 441.18538351 96.04755564 441.18542381 C95.36293334 441.18544416 94.67831104 441.18546452 93.97294262 441.18548548 C90.5251829 441.18558631 87.07742318 441.18567689 83.62966347 441.18575573 C82.60895977 441.1857808 82.60895977 441.1857808 81.56763579 441.18580638 C59.48940841 441.1862533 37.41118326 441.17910619 15.33295739 441.17139288 C6.35964258 441.16840319 -2.61367128 441.16731644 -11.58698654 441.16686058 C-22.58614566 441.16616965 -33.58529622 441.16158727 -44.58445172 441.15252777 C-50.17586686 441.14798829 -55.76727125 441.14483409 -61.35868835 441.14612198 C-90.5851397 441.15140482 -119.78314162 440.75589354 -149 440 C-148.36202132 437.27374486 -147.72315179 434.54770362 -147.08377075 431.82177734 C-146.90422002 431.05409531 -146.72466928 430.28641327 -146.53967762 429.49546814 C-145.29090888 424.17568184 -143.95557978 418.8900468 -142.4921875 413.625 C-142.05803385 412.0261936 -141.62445723 410.42723042 -141.19140625 408.828125 C-140.53449057 406.41177096 -139.87406111 403.99662135 -139.20361328 401.58398438 C-131.15398728 372.53712358 -129.63386792 343.69832168 -143.6953125 316.23046875 C-145.48890964 313.16416944 -147.66497793 310.66859665 -150 308 C-150 307.34 -150 306.68 -150 306 C-150.66 306 -151.32 306 -152 306 C-152.98432273 304.91573065 -153.91138021 303.77934586 -154.8125 302.625 C-171.24612324 283.49180826 -196.60867244 274.19818869 -221 271 C-225.11312555 270.71882085 -229.21333911 270.66276353 -233.33520508 270.63696289 C-234.52983777 270.6219146 -235.72447046 270.6068663 -236.95530415 270.591362 C-240.2704627 270.55146527 -243.5855094 270.51991639 -246.90077639 270.49184537 C-250.56233648 270.45868339 -254.22376601 270.41440348 -257.88522339 270.37156677 C-264.38089698 270.29704277 -270.87661421 270.22936118 -277.37240601 270.16601562 C-287.14017641 270.07064841 -296.90780566 269.96428103 -306.67543328 269.85536027 C-319.56865642 269.71168191 -332.46190388 269.57045509 -345.35520935 269.43435669 C-346.40872638 269.42323337 -347.46224342 269.41211005 -348.54768521 269.40064967 C-349.61224357 269.38941014 -350.67680194 269.37817062 -351.77361965 269.3665905 C-382.18947586 269.04538607 -412.60503731 268.69994309 -443.02055975 268.34876951 C-449.93126427 268.26899443 -456.84197251 268.1895446 -463.75268096 268.11011238 C-487.08303056 267.84192592 -510.41337498 267.57330752 -533.74368286 267.30151367 C-549.95380411 267.11269169 -566.16393843 266.92502864 -582.3740904 266.7388621 C-584.46341433 266.71486017 -586.55273792 266.69082835 -588.64206147 266.66679335 C-624.14417624 266.25862367 -659.64638164 265.88900068 -695.14959913 265.58876264 C-702.72762374 265.52451785 -710.30561454 265.45713902 -717.8835907 265.38742065 C-718.91817954 265.37791921 -719.95276839 265.36841776 -721.01870841 265.35862839 C-725.10471727 265.32104538 -729.19072528 265.28337779 -733.27672946 265.24528909 C-744.82804442 265.1377186 -756.37929983 265.04159139 -767.93087548 264.96680599 C-774.9484573 264.92049339 -781.96583866 264.86074043 -788.98321658 264.79000133 C-793.69755025 264.74308299 -798.41159567 264.71157656 -803.12612277 264.6933018 C-805.95736567 264.67817615 -808.78824852 264.64674019 -811.6192919 264.61044788 C-813.49902767 264.59097797 -815.37893253 264.5906579 -817.25876904 264.59125519 C-824.62571126 264.47422848 -831.46657024 263.65117068 -838 260 C-840.98082658 256.69024308 -840.98082658 256.69024308 -841.0625 253.75 C-838.71506602 247.67428852 -834.3874436 242.60694936 -829 239 C-826.36043759 238.59088914 -824.12463476 238.4060267 -821.48722839 238.40696716 C-820.75130057 238.391678 -820.01537276 238.37638883 -819.25714409 238.36063635 C-816.83043388 238.31485623 -814.40435868 238.2968374 -811.97729492 238.27905273 C-810.26030176 238.25237716 -808.5433343 238.22399827 -806.82639599 238.19399929 C-802.40172102 238.12124915 -797.97710226 238.07134859 -793.5520587 238.02746344 C-789.66361342 237.98561876 -785.77553754 237.92365085 -781.88735962 237.86233521 C-773.53104356 237.73531146 -765.17451388 237.64500706 -756.81767607 237.56040883 C-752.53525613 237.51634821 -748.25287576 237.46869538 -743.9704895 237.42149353 C-736.59776615 237.34065229 -729.2250241 237.26177949 -721.8522644 237.18432617 C-710.04934288 237.06026874 -698.2464704 236.93187308 -686.44360352 236.80273438 C-683.40143798 236.76947148 -680.35927238 236.73621352 -677.31710678 236.70295584 C-675.27649017 236.68064559 -673.23587362 236.65832952 -671.19525713 236.63600767 C-665.01530117 236.56843408 -658.8353418 236.50118373 -652.65537947 236.4341954 C-624.92896059 236.1336514 -597.20269506 235.82198777 -569.4765625 235.49609375 C-568.60296601 235.48582972 -567.72936952 235.47556568 -566.8293004 235.46499062 C-555.44103141 235.33115206 -544.05277062 235.19662296 -532.66451263 235.0618515 C-516.89614078 234.87524481 -501.12776256 234.68918127 -485.359375 234.50390625 C-484.48712265 234.49365229 -483.61487029 234.48339832 -482.71618605 234.47283363 C-455.11884465 234.14850393 -427.5213783 233.8366185 -399.92381096 233.53214645 C-393.85257086 233.46515025 -387.78133427 233.39784081 -381.71009827 233.33047485 C-378.70316665 233.29712545 -375.69623498 233.26378102 -372.68930328 233.23043942 C-370.69689552 233.20834708 -368.7044878 233.18625093 -366.71208012 233.16415095 C-356.11705796 233.04667196 -345.52202844 232.9299712 -334.92697144 232.81567383 C-316.11772241 232.61252788 -297.30859377 232.40344535 -278.49973011 232.16695213 C-276.963016 232.14764798 -275.42630177 232.12835376 -273.8895874 232.10906982 C-272.76807715 232.0949909 -272.76807715 232.0949909 -271.62391013 232.08062756 C-266.62076436 232.01845006 -261.61757766 231.9626825 -256.61431885 231.91046143 C-250.29393496 231.84444499 -243.97382847 231.76462357 -237.65374184 231.67444038 C-235.43784596 231.64489857 -233.22188447 231.61981348 -231.00588036 231.59998894 C-184.3539345 231.17123472 -142.50177567 216.06261893 -105.76171875 187.37109375 C-104.27028576 186.21035544 -102.76191233 185.07143425 -101.25 183.9375 C-86.45416464 172.4707276 -72.7589739 158.32634762 -62 143 C-61.26644287 141.96045166 -61.26644287 141.96045166 -60.51806641 140.89990234 C-50.91833196 127.17441402 -43.2147231 113.2855272 -36.92578125 97.75 C-36.44715637 96.57099625 -35.96853149 95.39199249 -35.47540283 94.17726135 C-30.21992407 81.16642805 -25.22289825 68.05855309 -20.25 54.9375 C-18.90262217 51.39073315 -17.55432596 47.84431691 -16.20567322 44.29803467 C-15.33920473 42.01947681 -14.47327554 39.74071378 -13.60792542 37.46173096 C-10.82740988 30.14628687 -8.01481066 22.84422507 -5.137146 15.56639099 C-3.12957704 10.45659893 -1.40039352 5.30815828 0 0 Z " fill="#F9AC3E" transform="translate(3129,497)"/>
<path d="M0 0 C6.6895066 0.51602085 12.30300932 2.95623949 18.4375 5.5625 C19.45521484 5.98724609 20.47292969 6.41199219 21.52148438 6.84960938 C24.01745631 7.89252723 26.51005214 8.94279942 29 10 C29 14 29 14 27.65501404 15.76327515 C25.38465058 18.83163484 24.54388363 22.16501808 23.51977539 25.78759766 C23.17762749 26.95942345 23.17762749 26.95942345 22.8285675 28.15492249 C22.07652274 30.73894869 21.33685174 33.32633388 20.59765625 35.9140625 C20.07402383 37.72627338 19.54979844 39.53831301 19.02500916 41.35018921 C17.92448237 45.1567447 16.82982413 48.96492341 15.73950195 52.77441406 C14.35611719 57.60683796 12.96057674 62.43563959 11.5607233 67.2633152 C10.47450879 71.01325398 9.39394725 74.76480392 8.31506157 78.51685715 C7.80348485 80.29428083 7.29048827 82.07129659 6.77592659 83.84785843 C-2.33090201 115.33994311 -8.89860759 146.69116855 5 178 C6.73653257 181.02789471 8.5656929 183.9202547 10.546875 186.79296875 C12 189 12 189 13 192 C13.66 192 14.32 192 15 192 C15.91788213 193.04724807 16.78226821 194.14137957 17.625 195.25 C36.74454681 217.57593043 65.87467402 225.83275323 94.03212357 228.26154327 C101.72429574 228.82166285 109.42597206 229.19423184 117.12890625 229.5703125 C119.58125818 229.69726867 122.03356366 229.82512481 124.48582458 229.9538269 C130.87729499 230.2871418 137.26926711 230.6095138 143.66143799 230.92907715 C152.68664006 231.38234944 161.71106248 231.85093942 170.73558044 232.31759644 C175.52450809 232.56518443 180.31361333 232.80873009 185.10292053 233.04885864 C187.29851337 233.1603276 189.49410565 233.27180773 191.68969727 233.38330078 C192.66084473 233.4310968 193.63199219 233.47889282 194.63256836 233.52813721 C197.42279943 233.67094663 200.21132048 233.82960082 203 234 C204.04675337 234.06362606 205.09350674 234.12725212 206.1719799 234.19280624 C207.2224859 234.26693867 208.27299191 234.34107109 209.35533142 234.41744995 C210.30176482 234.48221968 211.24819822 234.5469894 212.22331142 234.61372185 C217.56492193 235.3568183 223.14113791 237.14113791 227 241 C227.54722704 245.78489983 226.65023827 248.31297903 223.875 252.1875 C223.29492188 253.02667969 222.71484375 253.86585938 222.1171875 254.73046875 C216.3072504 260.95846405 209.10828587 260.64205504 201.12109375 261.03125 C199.76796038 261.10671537 198.41488865 261.18329255 197.06187439 261.26086426 C193.22485111 261.47684183 189.3870668 261.6747467 185.54891205 261.8694458 C181.96865427 262.05282509 178.38888306 262.2450057 174.80906105 262.43667603 C159.4394458 263.2588608 144.06790311 264.04378655 128.69604492 264.82275391 C101.17233961 266.15236455 101.17233961 266.15236455 73.68359375 268.04296875 C72.80276627 268.11354492 71.92193878 268.18412109 71.01441956 268.25683594 C37.51919307 271.22665604 5.13285958 285.62610373 -22 305 C-23.06992188 305.763125 -24.13984375 306.52625 -25.2421875 307.3125 C-31.86935833 312.16905267 -37.96882429 317.43054109 -44 323 C-45.7703794 324.56301431 -47.54120862 326.12551927 -49.3125 327.6875 C-52.92065634 330.92920296 -55.98632759 334.21138326 -59 338 C-59.763125 338.7425 -60.52625 339.485 -61.3125 340.25 C-72.09523378 351.28349503 -81.26147905 364.79472234 -88.875 378.1875 C-89.20749756 378.76709473 -89.53999512 379.34668945 -89.88256836 379.94384766 C-96.31099526 391.60842193 -100.13775261 403.2480053 -102.8125 416.1875 C-103.25836714 418.27440927 -103.70816975 420.36044007 -104.15861511 422.44636536 C-104.5584553 424.30818921 -104.94907417 426.17198651 -105.33911133 428.03588867 C-106 431 -106 431 -107 434 C-106.76129575 436.61098043 -106.76129575 436.61098043 -106 439 C-105.34 439.33 -104.68 439.66 -104 440 C-118.85 440 -133.7 440 -149 440 C-144.45979834 420.70414293 -144.45979834 420.70414293 -142.4921875 413.625 C-142.05803385 412.0261936 -141.62445723 410.42723042 -141.19140625 408.828125 C-140.53449057 406.41177096 -139.87406111 403.99662135 -139.20361328 401.58398438 C-131.15398728 372.53712358 -129.63386792 343.69832168 -143.6953125 316.23046875 C-145.48890964 313.16416944 -147.66497793 310.66859665 -150 308 C-150 307.34 -150 306.68 -150 306 C-150.66 306 -151.32 306 -152 306 C-152.98432273 304.91573065 -153.91138021 303.77934586 -154.8125 302.625 C-171.24612324 283.49180826 -196.60867244 274.19818869 -221 271 C-225.11312555 270.71882085 -229.21333911 270.66276353 -233.33520508 270.63696289 C-234.52983777 270.6219146 -235.72447046 270.6068663 -236.95530415 270.591362 C-240.2704627 270.55146527 -243.5855094 270.51991639 -246.90077639 270.49184537 C-250.56233648 270.45868339 -254.22376601 270.41440348 -257.88522339 270.37156677 C-264.38089698 270.29704277 -270.87661421 270.22936118 -277.37240601 270.16601562 C-287.14017641 270.07064841 -296.90780566 269.96428103 -306.67543328 269.85536027 C-319.56865642 269.71168191 -332.46190388 269.57045509 -345.35520935 269.43435669 C-346.40872638 269.42323337 -347.46224342 269.41211005 -348.54768521 269.40064967 C-349.61224357 269.38941014 -350.67680194 269.37817062 -351.77361965 269.3665905 C-382.18947586 269.04538607 -412.60503731 268.69994309 -443.02055975 268.34876951 C-449.93126427 268.26899443 -456.84197251 268.1895446 -463.75268096 268.11011238 C-487.08303056 267.84192592 -510.41337498 267.57330752 -533.74368286 267.30151367 C-549.95380411 267.11269169 -566.16393843 266.92502864 -582.3740904 266.7388621 C-584.46341433 266.71486017 -586.55273792 266.69082835 -588.64206147 266.66679335 C-624.14417624 266.25862367 -659.64638164 265.88900068 -695.14959913 265.58876264 C-702.72762374 265.52451785 -710.30561454 265.45713902 -717.8835907 265.38742065 C-718.91817954 265.37791921 -719.95276839 265.36841776 -721.01870841 265.35862839 C-725.10471727 265.32104538 -729.19072528 265.28337779 -733.27672946 265.24528909 C-744.82804442 265.1377186 -756.37929983 265.04159139 -767.93087548 264.96680599 C-774.9484573 264.92049339 -781.96583866 264.86074043 -788.98321658 264.79000133 C-793.69755025 264.74308299 -798.41159567 264.71157656 -803.12612277 264.6933018 C-805.95736567 264.67817615 -808.78824852 264.64674019 -811.6192919 264.61044788 C-813.49902767 264.59097797 -815.37893253 264.5906579 -817.25876904 264.59125519 C-824.62571126 264.47422848 -831.46657024 263.65117068 -838 260 C-840.98082658 256.69024308 -840.98082658 256.69024308 -841.0625 253.75 C-838.71506602 247.67428852 -834.3874436 242.60694936 -829 239 C-826.36043759 238.59088914 -824.12463476 238.4060267 -821.48722839 238.40696716 C-820.75130057 238.391678 -820.01537276 238.37638883 -819.25714409 238.36063635 C-816.83043388 238.31485623 -814.40435868 238.2968374 -811.97729492 238.27905273 C-810.26030176 238.25237716 -808.5433343 238.22399827 -806.82639599 238.19399929 C-802.40172102 238.12124915 -797.97710226 238.07134859 -793.5520587 238.02746344 C-789.66361342 237.98561876 -785.77553754 237.92365085 -781.88735962 237.86233521 C-773.53104356 237.73531146 -765.17451388 237.64500706 -756.81767607 237.56040883 C-752.53525613 237.51634821 -748.25287576 237.46869538 -743.9704895 237.42149353 C-736.59776615 237.34065229 -729.2250241 237.26177949 -721.8522644 237.18432617 C-710.04934288 237.06026874 -698.2464704 236.93187308 -686.44360352 236.80273438 C-683.40143798 236.76947148 -680.35927238 236.73621352 -677.31710678 236.70295584 C-675.27649017 236.68064559 -673.23587362 236.65832952 -671.19525713 236.63600767 C-665.01530117 236.56843408 -658.8353418 236.50118373 -652.65537947 236.4341954 C-624.92896059 236.1336514 -597.20269506 235.82198777 -569.4765625 235.49609375 C-568.60296601 235.48582972 -567.72936952 235.47556568 -566.8293004 235.46499062 C-555.44103141 235.33115206 -544.05277062 235.19662296 -532.66451263 235.0618515 C-516.89614078 234.87524481 -501.12776256 234.68918127 -485.359375 234.50390625 C-484.48712265 234.49365229 -483.61487029 234.48339832 -482.71618605 234.47283363 C-455.11884465 234.14850393 -427.5213783 233.8366185 -399.92381096 233.53214645 C-393.85257086 233.46515025 -387.78133427 233.39784081 -381.71009827 233.33047485 C-378.70316665 233.29712545 -375.69623498 233.26378102 -372.68930328 233.23043942 C-370.69689552 233.20834708 -368.7044878 233.18625093 -366.71208012 233.16415095 C-356.11705796 233.04667196 -345.52202844 232.9299712 -334.92697144 232.81567383 C-316.11772241 232.61252788 -297.30859377 232.40344535 -278.49973011 232.16695213 C-276.963016 232.14764798 -275.42630177 232.12835376 -273.8895874 232.10906982 C-272.76807715 232.0949909 -272.76807715 232.0949909 -271.62391013 232.08062756 C-266.62076436 232.01845006 -261.61757766 231.9626825 -256.61431885 231.91046143 C-250.29393496 231.84444499 -243.97382847 231.76462357 -237.65374184 231.67444038 C-235.43784596 231.64489857 -233.22188447 231.61981348 -231.00588036 231.59998894 C-184.3539345 231.17123472 -142.50177567 216.06261893 -105.76171875 187.37109375 C-104.27028576 186.21035544 -102.76191233 185.07143425 -101.25 183.9375 C-86.45416464 172.4707276 -72.7589739 158.32634762 -62 143 C-61.26644287 141.96045166 -61.26644287 141.96045166 -60.51806641 140.89990234 C-50.91833196 127.17441402 -43.2147231 113.2855272 -36.92578125 97.75 C-36.44715637 96.57099625 -35.96853149 95.39199249 -35.47540283 94.17726135 C-30.21992407 81.16642805 -25.22289825 68.05855309 -20.25 54.9375 C-18.90262217 51.39073315 -17.55432596 47.84431691 -16.20567322 44.29803467 C-15.33920473 42.01947681 -14.47327554 39.74071378 -13.60792542 37.46173096 C-10.82740988 30.14628687 -8.01481066 22.84422507 -5.137146 15.56639099 C-3.12957704 10.45659893 -1.40039352 5.30815828 0 0 Z " fill="#FEFEFD" transform="translate(3129,497)"/>
<path d="M0 0 C34.959375 -0.0928125 34.959375 -0.0928125 70.625 -0.1875 C81.60128662 -0.22846802 81.60128662 -0.22846802 92.79931641 -0.27026367 C101.84057617 -0.28381348 101.84057617 -0.28381348 106.09359741 -0.28633118 C109.01936892 -0.28908925 111.94497164 -0.30018061 114.87069702 -0.31672668 C150.29036961 -0.50797139 184.49673678 1.87108944 213 25 C213.99 25.66 214.98 26.32 216 27 C216 27.66 216 28.32 216 29 C216.58265625 29.25136719 217.1653125 29.50273438 217.765625 29.76171875 C230.89785487 37.03954544 237.84301422 55.67614731 241.96875 69.16796875 C248.01575449 93.49596368 245.33529523 122.09006043 232.33984375 143.76953125 C228.45346487 149.53270358 224.04249518 155.20093563 219 160 C218.34 160 217.68 160 217 160 C216.67 160.99 216.34 161.98 216 163 C208.05327675 169.27665882 198.83165967 174.08771592 190 179 C200.58187655 194.98485822 211.41037468 210.80163172 222.28881836 226.58569336 C225.54658943 231.32043477 228.73802266 236.09673214 231.9140625 240.88671875 C234.36919008 244.55101965 236.86964256 248.18244784 239.375 251.8125 C243.17987115 257.33152926 246.95665125 262.86811587 250.6875 268.4375 C251.12175293 269.08243408 251.55600586 269.72736816 252.00341797 270.3918457 C255 274.88182437 255 274.88182437 255 276 C243.66492561 276.25525702 232.33053834 276.45051178 220.99317169 276.56993389 C215.72813674 276.62726291 210.46507249 276.70496566 205.20117188 276.82983398 C200.11759712 276.9496652 195.03591293 277.01518699 189.95103455 277.04364967 C188.01474744 277.06392189 186.07856003 277.1035142 184.14308167 277.16303062 C169.05703584 277.60833279 169.05703584 277.60833279 164.21113586 273.81947327 C162.10822811 270.98149119 160.55315802 268.1679116 159 265 C157.93366841 263.37003656 156.84479384 261.75454146 155.73120117 260.15649414 C154.66556941 258.53460843 153.60290862 256.91076745 152.54296875 255.28515625 C151.34702696 253.45791513 150.15080886 251.63085485 148.9543457 249.80395508 C148.34015778 248.8651651 147.72596985 247.92637512 147.09317017 246.95913696 C145.15821122 244.01798078 143.2033698 241.09096484 141.24291992 238.16674805 C128.71825041 219.42660646 128.71825041 219.42660646 124.16842651 210.06646729 C120.66812235 203.19517796 116.47183867 199.30829808 111 193 C94.17 192.505 94.17 192.505 77 192 C77 219.72 77 247.44 77 276 C51.59 276 26.18 276 0 276 C0 184.92 0 93.84 0 0 Z M77 70 C77 91.78 77 113.56 77 136 C92.84 136 108.68 136 125 136 C125 134.68 125 133.36 125 132 C125.57105469 132.04640625 126.14210938 132.0928125 126.73046875 132.140625 C137.86735551 132.63638467 148.4686592 129.23164435 157 122 C163.4318205 115.94504399 166.99252937 110.0244126 167.4375 101.125 C167.16072028 93.29093056 164.11437399 86.23711515 158.75390625 80.52734375 C146.35507259 69.73014117 129.63616594 69.82263872 114.109375 69.90234375 C112.68262451 69.90385437 112.68262451 69.90385437 111.22705078 69.90539551 C107.73468794 69.91055677 104.24234252 69.92451689 100.75 69.9375 C92.9125 69.958125 85.075 69.97875 77 70 Z " fill="#404040" transform="translate(2890,1070)"/>
<path d="M0 0 C0.52198975 0.42265137 1.04397949 0.84530273 1.58178711 1.28076172 C5.92946642 4.8328796 9.41158695 8.70998276 13 13 C13.72574219 13.84949219 14.45148438 14.69898438 15.19921875 15.57421875 C32.6200156 36.30762892 43.16457116 61.24050803 47 88 C47.27457031 89.83884766 47.27457031 89.83884766 47.5546875 91.71484375 C51.97856477 128.39064066 42.06830069 166.21683064 19.9453125 195.7421875 C-6.14785535 228.52114925 -42.90021212 246.80631929 -84 252 C-89.60123187 252.24249348 -95.20654657 252.24505667 -100.8125 252.25 C-101.9927626 252.25151062 -101.9927626 252.25151062 -103.1968689 252.25305176 C-114.73229445 252.24304309 -125.75972353 251.81307454 -137 249 C-138.21558594 248.69835938 -139.43117188 248.39671875 -140.68359375 248.0859375 C-144.1589205 247.14954059 -147.57508149 246.10558773 -151 245 C-152.09183594 244.66484375 -153.18367187 244.3296875 -154.30859375 243.984375 C-171.88941594 238.21217442 -186.79123168 228.68668743 -201 217 C-201.83398315 216.32723022 -201.83398315 216.32723022 -202.68481445 215.64086914 C-205.56754178 213.29236134 -208.15712474 210.89678555 -210.5625 208.0625 C-211.14257812 207.38058594 -211.72265625 206.69867187 -212.3203125 205.99609375 C-212.87460937 205.33738281 -213.42890625 204.67867187 -214 204 C-214.76957031 203.12021484 -214.76957031 203.12021484 -215.5546875 202.22265625 C-219 198.24205508 -219 198.24205508 -219 196 C-219.66 196 -220.32 196 -221 196 C-222.6331352 193.76177123 -224.11173594 191.54172566 -225.5625 189.1875 C-226.00360107 188.47335937 -226.44470215 187.75921875 -226.89916992 187.0234375 C-248.43922127 151.37093872 -254.09143002 110.79975049 -244.1875 70.30859375 C-242.4213824 63.61256172 -239.87972069 57.2944804 -237 51 C-236.70609375 50.34789551 -236.4121875 49.69579102 -236.109375 49.02392578 C-229.54128287 34.63187221 -220.94722946 22.43084201 -210 11 C-208.7934375 9.7315625 -208.7934375 9.7315625 -207.5625 8.4375 C-206.716875 7.633125 -205.87125 6.82875 -205 6 C-204.31808594 5.34644531 -203.63617187 4.69289063 -202.93359375 4.01953125 C-148.49965902 -46.74470001 -56.65441473 -46.62025408 0 0 Z M-153.3125 59.75 C-165.66992417 75.94337458 -169.97454148 96.80206648 -167.5390625 116.78125 C-164.0309659 136.42659094 -155.22434082 153.88003111 -139 166 C-123.2867476 176.71746291 -106.7127526 179.08178049 -88.125 179.3125 C-87.2697876 179.33022461 -86.4145752 179.34794922 -85.53344727 179.36621094 C-70.58150357 179.34886697 -58.18201523 172.19387027 -47.7265625 161.91015625 C-33.57318635 146.80375907 -28.93720483 126.16173569 -29 106 C-29.68443818 87.60247489 -35.75477303 68.97553078 -48 55 C-49.62332967 53.61423077 -51.28724465 52.27358732 -53 51 C-53.721875 50.21625 -54.44375 49.4325 -55.1875 48.625 C-62.51900827 41.78225895 -71.60547057 38.16334218 -81 35 C-81.73605469 34.75121094 -82.47210937 34.50242187 -83.23046875 34.24609375 C-109.95549171 26.85406612 -136.12048537 39.91813668 -153.3125 59.75 Z " fill="#404040" transform="translate(975,1097)"/>
<path d="M0 0 C171.86598279 0 171.86598279 0 217 35 C217.60602051 35.46889648 218.21204102 35.93779297 218.83642578 36.42089844 C220.2662761 37.56326785 221.63965397 38.77568857 223 40 C223 40.66 223 41.32 223 42 C223.99 42.33 224.98 42.66 226 43 C227.54318872 44.69381304 229.01400272 46.45442502 230.4375 48.25 C231.19933594 49.20390625 231.96117187 50.1578125 232.74609375 51.140625 C233.48988281 52.08421875 234.23367188 53.0278125 235 54 C235.67546875 54.82371094 236.3509375 55.64742187 237.046875 56.49609375 C259.74511896 85.59524251 264.60341607 123.72034184 260.359375 159.36523438 C256.73047483 185.97059488 244.29901581 211.39657369 226 231 C225.34 231 224.68 231 224 231 C223.79246094 231.55042969 223.58492187 232.10085938 223.37109375 232.66796875 C221.49283531 235.86261344 218.88281005 237.98033611 216.0625 240.3125 C215.47839355 240.79887939 214.89428711 241.28525879 214.29248047 241.78637695 C209.13343768 246.01219251 203.78469379 249.67341335 198 253 C196.89398437 253.64582031 195.78796875 254.29164063 194.6484375 254.95703125 C136.95612502 287.71746155 60.79226762 276 0 276 C0 184.92 0 93.84 0 0 Z M74 67 C74 112.87 74 158.74 74 206 C122.31713878 207.331246 122.31713878 207.331246 163.25 184.83984375 C176.5259904 170.58324043 181.59322995 152.30342276 181.1875 133.03125 C180.13487613 116.01383069 174.90426464 97.94210456 162 86 C135.73105442 64.46944017 108.12037265 67 74 67 Z " fill="#404040" transform="translate(1493,1070)"/>
<path d="M0 0 C73.59 0 147.18 0 223 0 C223 20.79 223 41.58 223 63 C174.82 63 126.64 63 77 63 C77 76.53 77 90.06 77 104 C120.56 104 164.12 104 209 104 C209 125.12 209 146.24 209 168 C165.44 168 121.88 168 77 168 C77 181.53 77 195.06 77 209 C126.5 209 176 209 227 209 C227 231.11 227 253.22 227 276 C152.09 276 77.18 276 0 276 C0 184.92 0 93.84 0 0 Z " fill="#404040" transform="translate(3242,1070)"/>
<path d="M0 0 C1.86011719 0.52207031 1.86011719 0.52207031 3.7578125 1.0546875 C23.23695744 7.05145187 40.50049271 16.81950296 56 30 C56.95777344 30.81082031 57.91554688 31.62164063 58.90234375 32.45703125 C81.107267 51.75207133 97.82594081 80.78158566 102 110 C75.27 110 48.54 110 21 110 C19.02 106.37 17.04 102.74 15 99 C12.85392377 95.95566613 12.85392377 95.95566613 10.75 93.5625 C7.14847716 89.32582487 7.14847716 89.32582487 6.015625 86.83984375 C4.69867509 84.45413834 3.46226497 84.10845736 1 83 C-0.72492111 81.75177434 -2.43177702 80.4783974 -4.125 79.1875 C-19.13115596 68.25416107 -36.65288696 63.57344588 -55.11181641 66.31347656 C-72.51195436 69.48451079 -88.24892642 78.21691544 -98.8828125 92.53515625 C-106.61127739 104.16131014 -112.14952635 117.95429875 -113 132 C-113.05285156 132.85722656 -113.10570312 133.71445313 -113.16015625 134.59765625 C-113.81258912 155.67407474 -106.40624371 175.58866952 -92 191 C-91.34 191.33 -90.68 191.66 -90 192 C-90 192.66 -90 193.32 -90 194 C-89.44054687 194.26167969 -88.88109375 194.52335937 -88.3046875 194.79296875 C-85.76247676 196.12439777 -83.49190965 197.69019566 -81.125 199.3125 C-65.65712848 209.2709818 -48.25937331 210.67666849 -30.37890625 208.57421875 C-13.29589775 204.79602284 2.1368303 193.786189 11.79296875 179.3125 C13.87196835 175.91498996 15.73786615 172.78640154 17 169 C44.06 169 71.12 169 99 169 C93.16470952 187.67292952 93.16470952 187.67292952 89.75 194.625 C89.18019409 195.80775513 89.18019409 195.80775513 88.59887695 197.0144043 C84.95739739 204.40132023 80.6530817 211.21166092 76 218 C75.64373535 218.56638184 75.2874707 219.13276367 74.92041016 219.71630859 C73.99625265 221.17660551 73.00327799 222.59288684 72 224 C71.34 224 70.68 224 70 224 C69.731875 224.5775 69.46375 225.155 69.1875 225.75 C67.97070811 228.05550043 66.69666121 230.02056192 65 232 C64.34 232 63.68 232 63 232 C62.73832031 232.58523438 62.47664063 233.17046875 62.20703125 233.7734375 C57.54852081 242.36680627 47.7867474 248.37351881 40 254 C38.96359375 254.75410156 37.9271875 255.50820312 36.859375 256.28515625 C4.50155785 278.44322669 -37.63441178 285.8512885 -76 279 C-103.83051439 273.40032071 -134.68272306 260.73193656 -154 239 C-154.66666667 237.66666667 -155.33333333 236.33333333 -156 235 C-156.99 234.67 -157.98 234.34 -159 234 C-169.86593759 222.71614173 -177.48452956 208.1025888 -184 194 C-184.47308594 193.00226563 -184.94617188 192.00453125 -185.43359375 190.9765625 C-199.25504342 158.8556857 -198.18566378 118.69374998 -185.52685547 86.46875 C-178.57697368 69.37061094 -168.77885095 53.40692302 -156 40 C-155.34 40 -154.68 40 -154 40 C-153.78859375 39.44699219 -153.5771875 38.89398437 -153.359375 38.32421875 C-151.52550549 35.18872347 -149.00997701 33.10384748 -146.25 30.8125 C-145.67217773 30.33055176 -145.09435547 29.84860352 -144.49902344 29.35205078 C-104.71202192 -3.17462728 -49.39347506 -14.17982617 0 0 Z " fill="#404040" transform="translate(252,1072)"/>
<path d="M0 0 C25.74 0 51.48 0 78 0 C78.03738281 11.66472656 78.07476563 23.32945313 78.11328125 35.34765625 C78.14356989 42.75326693 78.17460322 50.15886219 78.20898438 57.56445312 C78.26337477 69.30963719 78.31479184 81.0547785 78.34643555 92.80004883 C78.36950034 101.35585625 78.40299214 109.91155046 78.44870156 118.46726793 C78.47252002 122.99216795 78.49132298 127.51695665 78.49761391 132.0419178 C78.50371672 136.31259132 78.52390083 140.58298041 78.55427551 144.85354805 C78.56297336 146.40979528 78.56679575 147.96607981 78.56500816 149.52235031 C78.5550556 162.20029581 79.30910533 175.15806907 85.375 186.5625 C85.93960937 187.65691406 86.50421875 188.75132812 87.0859375 189.87890625 C90.66822978 195.81662269 90.66822978 195.81662269 96 200 C96 200.66 96 201.32 96 202 C96.72574219 202.2784375 97.45148438 202.556875 98.19921875 202.84375 C101.66094293 204.27285789 104.90725953 206.01562989 108.20703125 207.78125 C115.35429971 210.90005805 122.05330515 211.35827023 129.75 211.3125 C131.20925903 211.30512817 131.20925903 211.30512817 132.69799805 211.29760742 C142.93591765 211.13086606 151.36201062 209.49261917 160.16015625 204.0859375 C162 203 162 203 165 202 C165 201.34 165 200.68 165 200 C165.73863281 199.45730469 166.47726562 198.91460938 167.23828125 198.35546875 C170.70880997 195.39545628 172.23903858 192.37274417 174.1875 188.3125 C174.52974609 187.64283203 174.87199219 186.97316406 175.22460938 186.28320312 C179.38518955 177.82470324 180.33139369 169.403906 180.62109375 160.0703125 C180.65883408 158.99572784 180.6965744 157.92114319 180.73545837 156.81399536 C181.17854241 142.61912565 181.10956434 128.41819448 181.06846237 114.21836472 C181.05830037 110.22443915 181.05493864 106.230508 181.05102539 102.23657227 C181.04006479 92.15770177 181.0204254 82.07885505 181 72 C180.97789909 61.02903932 180.95743278 50.05808703 180.94658184 39.08710861 C180.94160157 34.34642988 180.93175065 29.60579384 180.91815186 24.86513233 C180.91072604 21.93808311 180.90738414 19.01103984 180.9051857 16.08398247 C180.90240571 14.07218053 180.89460419 12.06038753 180.88668823 10.04859924 C180.88661774 8.86330124 180.88654724 7.67800323 180.88647461 6.45678711 C180.884254 5.42089951 180.88203339 4.3850119 180.87974548 3.31773376 C181 1 181 1 182 0 C184.40348286 -0.09496708 186.77810982 -0.12558862 189.18188477 -0.11352539 C189.93305573 -0.11367142 190.68422668 -0.11381744 191.4581604 -0.1139679 C193.95260459 -0.11326863 196.44697503 -0.10547564 198.94140625 -0.09765625 C200.66633564 -0.09579212 202.39126557 -0.09436819 204.11619568 -0.09336853 C208.66512503 -0.08954297 213.21402267 -0.07971238 217.76293945 -0.06866455 C222.40120006 -0.05845124 227.03946577 -0.05387108 231.67773438 -0.04882812 C240.78517022 -0.03809014 249.89258248 -0.02101327 259 0 C259.04690716 21.29828698 259.08207996 42.59656533 259.10362434 63.89489365 C259.11389765 73.78606655 259.12788167 83.67720719 259.15087891 93.56835938 C259.17093452 102.19849301 259.18374504 110.82860325 259.18817699 119.45875955 C259.19076395 124.02016108 259.19676015 128.58149576 259.21146011 133.14287567 C259.34785458 177.23765454 256.65125745 218.24888527 224.5625 251.75 C220.08880334 256.11458211 215.22570049 259.59641876 210 263 C209.401875 263.42796875 208.80375 263.8559375 208.1875 264.296875 C176.92303008 285.79119807 132.27461612 285.97544157 96.56103516 279.56201172 C66.79522964 273.75546119 39.2359951 259.90595234 21.0625 234.9375 C17.53337135 229.54771689 14.68475203 223.84836335 12 218 C11.64164063 217.23558594 11.28328125 216.47117187 10.9140625 215.68359375 C0.92399792 192.70644521 -0.17716556 167.26076614 -0.11352539 142.58789062 C-0.11324237 141.01904807 -0.11340349 139.45020539 -0.1139679 137.88136292 C-0.11425139 133.67788702 -0.10842804 129.47444046 -0.10139394 125.2709713 C-0.0950849 120.8574476 -0.09455069 116.44392302 -0.09336853 112.03039551 C-0.09027726 103.69754486 -0.08209398 95.36470755 -0.07201904 87.03186274 C-0.05868353 75.75416727 -0.05334017 64.47646809 -0.04751682 53.19876671 C-0.03815229 35.46583451 -0.01821876 17.73293043 0 0 Z " fill="#404040" transform="translate(1116,1070)"/>
<path d="M0 0 C0.70346558 0.00719055 1.40693115 0.0143811 2.13171387 0.02178955 C2.87327728 0.0214975 3.6148407 0.02120544 4.37887573 0.02090454 C6.83550629 0.02230039 9.29183536 0.03787335 11.74841309 0.05352783 C13.44949172 0.05725706 15.1505725 0.06010446 16.85165405 0.06210327 C21.33321035 0.06974684 25.81463741 0.08940149 30.29614258 0.11151123 C34.86745455 0.13195411 39.43878735 0.14110165 44.01013184 0.15118408 C52.98284493 0.17264674 61.95546202 0.20679137 70.92810059 0.24884033 C73.86769704 6.03096156 76.70813522 11.81981555 79.24060059 17.79180908 C79.53055908 18.46889923 79.82051758 19.14598938 80.1192627 19.84359741 C81.05867425 22.03985596 81.99351513 24.23802428 82.92810059 26.43634033 C83.59982299 28.01021732 84.27170086 29.58402796 84.94372559 31.15777588 C89.49326263 41.82380862 93.98365209 52.51397953 98.45397949 63.21343994 C104.01163492 76.5001487 109.65775059 89.74920685 115.30310059 102.99884033 C115.80404236 104.17460632 116.30498413 105.35037231 116.82110596 106.56176758 C123.17757726 121.47799625 129.5542575 136.38539133 135.9538269 151.28317261 C140.5035851 161.87834801 144.98486663 172.50083432 149.43203735 183.13943481 C153.07796023 191.8600344 156.75890878 200.56450639 160.49060059 209.24884033 C165.71116004 221.40779692 170.92799658 233.56832349 176.12387085 245.737854 C177.02809974 247.85397373 177.93361782 249.9695431 178.84048462 252.08453369 C180.12435892 255.07928228 181.40365786 258.07594853 182.68200684 261.07305908 C183.06590576 261.96579025 183.44980469 262.85852142 183.84533691 263.77830505 C184.20724121 264.62927261 184.56914551 265.48024017 184.9420166 266.35699463 C185.25445816 267.08750534 185.56689972 267.81801605 185.8888092 268.57066345 C187.37895893 272.41066887 188.62555739 276.34121074 189.92810059 280.24884033 C161.87810059 280.24884033 133.82810059 280.24884033 104.92810059 280.24884033 C84.92810059 233.58217367 84.92810059 233.58217367 84.92810059 231.24884033 C83.97405334 231.41117157 83.0200061 231.57350281 82.03704834 231.74075317 C77.41754699 232.39617549 72.84340347 232.38887208 68.18493652 232.37823486 C67.2328833 232.37998718 66.28083008 232.3817395 65.29992676 232.38354492 C62.17075753 232.38792628 59.04164534 232.3850395 55.91247559 232.38165283 C53.7324828 232.38232671 51.55249009 232.38329745 49.37249756 232.384552 C44.81322511 232.38602374 40.25397231 232.38389039 35.69470215 232.37921143 C29.8446688 232.37350089 23.9946812 232.37680482 18.14464951 232.38278389 C13.64776259 232.38639206 9.15088657 232.38524996 4.65399933 232.3826561 C2.49617762 232.38198824 0.33835492 232.38281033 -1.81946564 232.38513565 C-4.82844176 232.38766781 -7.83734295 232.38381416 -10.84631348 232.37823486 C-11.74090271 232.38025909 -12.63549194 232.38228333 -13.55718994 232.3843689 C-14.37578491 232.38154907 -15.19437988 232.37872925 -16.03778076 232.37582397 C-17.10402365 232.37525844 -17.10402365 232.37525844 -18.19180679 232.37468147 C-20.07189941 232.24884033 -20.07189941 232.24884033 -23.07189941 231.24884033 C-23.24781113 231.80154602 -23.42372284 232.35425171 -23.60496521 232.92370605 C-25.34432647 238.27865494 -27.32856694 243.44805079 -29.57580566 248.60821533 C-29.89975815 249.36048401 -30.22371063 250.11275269 -30.55747986 250.88781738 C-31.57966313 253.25966833 -32.60683234 255.62931758 -33.63439941 257.99884033 C-34.66445865 260.38309826 -35.69347871 262.76780144 -36.72203064 265.15270996 C-37.35866882 266.62792006 -37.9963587 268.10267689 -38.63526917 269.5769043 C-40.1670678 273.11692662 -41.63896356 276.66650069 -43.07189941 280.24884033 C-69.80189941 280.24884033 -96.53189941 280.24884033 -124.07189941 280.24884033 C-123.36494262 276.71405636 -122.77755236 274.2245548 -121.42053223 271.02642822 C-121.08169006 270.22158997 -120.7428479 269.41675171 -120.39373779 268.58752441 C-120.02456238 267.72423523 -119.65538696 266.86094604 -119.27502441 265.97149658 C-118.88989685 265.06091492 -118.50476929 264.15033325 -118.10797119 263.2121582 C-116.85065908 260.24319525 -115.58643883 257.27723139 -114.32189941 254.31134033 C-113.4505194 252.25832053 -112.57942731 250.20517851 -111.70861816 248.1519165 C-106.36509611 235.56699691 -100.96591079 223.00686131 -95.50891113 210.47076416 C-90.73525423 199.50237295 -86.07140962 188.48913093 -81.42785645 177.46514893 C-79.08637729 171.91119746 -76.73449411 166.36165022 -74.38439941 160.81134033 C-71.33507624 153.60620864 -68.2914042 146.3987753 -65.25939941 139.18634033 C-55.88023084 116.89347092 -46.39219902 94.64787744 -36.85031128 72.42425537 C-31.85332389 60.78227192 -26.89626993 49.12497669 -22.00939941 37.43634033 C-21.48485916 36.18266292 -20.96028304 34.92900052 -20.43566895 33.675354 C-19.93664063 32.48272949 -19.4376123 31.29010498 -18.92346191 30.06134033 C-16.25399421 23.68197855 -13.58285599 17.3035037 -10.88439941 10.93634033 C-10.52144775 10.0696875 -10.15849609 9.20303467 -9.7845459 8.31011963 C-9.45269287 7.53063965 -9.12083984 6.75115967 -8.77893066 5.94805908 C-8.49509521 5.27605469 -8.21125977 4.60405029 -7.91882324 3.91168213 C-5.96445793 0.07450076 -4.0484792 0.01733131 0 0 Z M31.92810059 97.24884033 C20.75276664 124.45977282 20.75276664 124.45977282 9.61560059 151.68634033 C9.1788501 152.75408691 8.74209961 153.8218335 8.29211426 154.92193604 C7.88710693 155.91540039 7.48209961 156.90886475 7.06481934 157.93243408 C6.54987915 159.19398315 6.54987915 159.19398315 6.02453613 160.48101807 C4.610207 164.05132522 3.27649781 167.6531144 1.92810059 171.24884033 C22.05810059 171.24884033 42.18810059 171.24884033 62.92810059 171.24884033 C60.97321057 164.73254028 59.02022603 158.73633176 56.32653809 152.56915283 C55.61383585 150.90733443 54.90263988 149.24486944 54.19274902 147.58184814 C53.63750549 146.28205017 53.63750549 146.28205017 53.07104492 144.95599365 C51.08830764 140.25972486 49.18627072 135.53109514 47.27966309 130.80352783 C46.49464392 128.86467024 45.70948733 126.92586828 44.92419434 124.98712158 C43.72280735 122.01919369 42.52361571 119.05045183 41.32995605 116.07940674 C40.15269014 113.15157708 38.96697897 110.2272936 37.77966309 107.30352783 C37.42135406 106.40584686 37.06304504 105.50816589 36.69387817 104.58328247 C36.35947723 103.76377106 36.02507629 102.94425964 35.68054199 102.09991455 C35.24374619 101.0167244 35.24374619 101.0167244 34.79812622 99.91165161 C34.03508395 98.05850984 34.03508395 98.05850984 31.92810059 97.24884033 Z " fill="#404040" transform="translate(2603.0718994140625,1065.7511596679688)"/>
<path d="M0 0 C72.6 0 145.2 0 220 0 C220 22.11 220 44.22 220 67 C172.81 67 125.62 67 77 67 C77.33 81.52 77.66 96.04 78 111 C120.24 111 162.48 111 206 111 C206 132.12 206 153.24 206 175 C163.43 175 120.86 175 77 175 C77 208.33 77 241.66 77 276 C51.59 276 26.18 276 0 276 C0 184.92 0 93.84 0 0 Z " fill="#404040" transform="translate(1862,1070)"/>
<path d="M0 0 C25.74 0 51.48 0 78 0 C78 68.97 78 137.94 78 209 C121.56 209 165.12 209 210 209 C210 231.11 210 253.22 210 276 C140.7 276 71.4 276 0 276 C0 184.92 0 93.84 0 0 Z " fill="#404040" transform="translate(2189,1070)"/>
<path d="M0 0 C25.41 0 50.82 0 77 0 C77 68.97 77 137.94 77 209 C120.89 209 164.78 209 210 209 C210 231.11 210 253.22 210 276 C140.7 276 71.4 276 0 276 C0 184.92 0 93.84 0 0 Z " fill="#404040" transform="translate(437,1070)"/>
<path d="M0 0 C6.78488994 4.69903431 11.34907856 11.99084084 12.89453125 20.1015625 C13.81716717 29.22950716 12.99332033 37.11826827 7.5625 44.75 C1.56186925 51.95663988 -4.95581275 56.67752901 -14.33984375 57.83203125 C-24.57429913 58.43929622 -32.87775551 56.44425739 -40.77734375 49.4765625 C-42.59507824 47.53200932 -44.1282601 45.57412063 -45.625 43.375 C-46.25535156 42.45074219 -46.25535156 42.45074219 -46.8984375 41.5078125 C-50.88184013 34.69930162 -51.38006084 26.42445233 -50.0625 18.75 C-47.620635 9.83961844 -42.57607606 3.01953573 -34.625 -1.625 C-22.63700931 -7.80136843 -11.33825084 -6.8029505 0 0 Z M-38.125 11.3125 C-42.14681613 17.40202951 -43.5316336 23.14517823 -42.625 30.375 C-40.78918874 37.97386432 -37.29558226 43.23028366 -30.625 47.375 C-23.50042857 50.69062181 -16.92584164 51.17436826 -9.49609375 48.65234375 C-2.93173613 45.77498776 0.77751648 41.19722089 4.25 35.0625 C6.92985322 26.27853665 5.25453116 19.5150877 1.375 11.375 C0.715 11.375 0.055 11.375 -0.625 11.375 C-0.86476563 10.77171875 -1.10453125 10.1684375 -1.3515625 9.546875 C-3.80124283 5.36889259 -8.18717033 3.88600367 -12.625 2.375 C-22.65540019 0.71642989 -31.68606634 3.2093975 -38.125 11.3125 Z " fill="#434140" transform="translate(3577.625,1075.625)"/>
<path d="M0 0 C2.825625 -0.04125 5.65125 -0.0825 8.5625 -0.125 C9.43849854 -0.14320801 10.31449707 -0.16141602 11.21704102 -0.18017578 C16.7990934 -0.2192596 22.47059968 -0.12143253 26.9375 3.625 C28.49825378 7.11374374 28.78961799 10.30126309 28 14 C26.78556248 15.92881254 25.41773594 17.63426116 23.9921875 19.41015625 C22.70576428 21.07100161 22.70576428 21.07100161 23.5 23.625 C23.995 24.40875 24.49 25.1925 25 26 C28 30.96153846 28 30.96153846 28 33 C24.9375 33.625 24.9375 33.625 21 33 C19.01617278 30.55400644 17.4398146 27.96573935 15.77734375 25.29296875 C14.21886814 22.90858015 14.21886814 22.90858015 12.00390625 22.11328125 C9.88118766 21.79947323 9.88118766 21.79947323 7 22 C7 25.63 7 29.26 7 33 C4.69 33 2.38 33 0 33 C0 22.11 0 11.22 0 0 Z M7 8 C7 11.3 7 14.6 7 18 C10.3 18 13.6 18 17 18 C17 16.68 17 15.36 17 14 C18.32 13.67 19.64 13.34 21 13 C20.34 11.35 19.68 9.7 19 8 C15.04 8 11.08 8 7 8 Z " fill="#444140" transform="translate(3545,1087)"/>
</svg>
