<?xml version="1.0" encoding="UTF-8"?>
<svg version="1.1" xmlns="http://www.w3.org/2000/svg" width="3840" height="2160">
<path d="M0 0 C1267.2 0 2534.4 0 3840 0 C3840 712.8 3840 1425.6 3840 2160 C2572.8 2160 1305.6 2160 0 2160 C0 1447.2 0 734.4 0 0 Z " fill="#FEFEFE" transform="translate(0,0)"/>
<path d="M0 0 C1.76166822 -0.00187152 3.52333603 -0.00417358 5.28500319 -0.00686532 C10.09496712 -0.01294767 14.90491357 -0.01285395 19.71488047 -0.01167095 C24.91483226 -0.01146603 30.11477857 -0.01699439 35.31472778 -0.02172852 C45.49148799 -0.03001633 55.66824239 -0.03278252 65.84500569 -0.03334089 C74.12302526 -0.033817 82.40104292 -0.03587645 90.67906189 -0.03904152 C114.18034016 -0.04784344 137.68161388 -0.05246169 161.18289381 -0.05171105 C162.44846049 -0.05167109 163.71402716 -0.05163113 165.01794434 -0.05158997 C166.91862896 -0.05152864 166.91862896 -0.05152864 168.85771126 -0.05146609 C189.38039383 -0.05105987 209.90305803 -0.06062435 230.42573529 -0.07472833 C251.52923115 -0.08911631 272.63271805 -0.09599717 293.73621893 -0.09513456 C305.57169718 -0.0948034 317.40715619 -0.09751486 329.24263 -0.10831261 C339.32185556 -0.11744958 349.40105314 -0.11956677 359.48028105 -0.11280318 C364.61501821 -0.10955389 369.74970179 -0.10942324 374.88443375 -0.11815643 C413.84994483 -0.18037549 413.84994483 -0.18037549 431.32946777 2.13371277 C433.29787814 2.35036284 435.26653754 2.56480066 437.23571777 2.77433777 C456.11722223 5.16188104 473.49943487 10.79525276 490.99084473 18.16203308 C493.4954668 19.20268407 496.01618117 20.19632862 498.54040527 21.18840027 C516.00928689 28.1624308 532.6983158 39.40426971 547.32946777 51.13371277 C548.8067334 52.30547058 548.8067334 52.30547058 550.31384277 53.50090027 C580.61197211 78.04790763 602.74521998 109.58239787 618.32946777 145.13371277 C618.79763916 146.19646423 618.79763916 146.19646423 619.27526855 147.28068542 C624.25400332 158.77267866 627.32425959 170.36812567 629.8182373 182.62443542 C630.27254025 184.85429489 630.74699831 187.07830302 631.23181152 189.30168152 C634.49564909 204.71154147 635.74330491 219.7394992 635.70446777 235.44621277 C635.70315353 236.75555786 635.70315353 236.75555786 635.70181274 238.09135437 C635.6513847 253.41519938 634.52184672 268.10396553 631.32946777 283.13371277 C631.08277344 284.2982196 630.8360791 285.46272644 630.58190918 286.66252136 C625.88597948 308.14733663 618.67594375 327.76948672 608.32946777 347.13371277 C607.98303223 347.78791199 607.63659668 348.44211121 607.27966309 349.11613464 C597.03283897 368.3347892 584.30995788 385.34051207 569.32946777 401.13371277 C568.8061084 401.69107117 568.28274902 402.24842957 567.74353027 402.82267761 C551.89570914 419.6041174 532.72023472 434.28946269 511.64978027 443.91496277 C509.32677868 444.97908257 509.32677868 444.97908257 507.89587402 446.62590027 C505.60347993 448.83254396 503.10386488 449.61411524 500.14196777 450.75871277 C499.50557373 451.00597107 498.86917969 451.25322937 498.21350098 451.50798035 C495.92247823 452.39304507 493.62614735 453.2634343 491.32946777 454.13371277 C490.37523926 454.49867859 489.42101074 454.86364441 488.43786621 455.2396698 C485.29969727 456.43920731 482.15892367 457.63163181 479.01696777 458.82121277 C478.01576904 459.20164734 477.01457031 459.58208191 475.98303223 459.9740448 C466.80418672 463.41924076 457.86037083 466.29615597 448.14196777 467.69621277 C447.32389648 467.8191571 446.5058252 467.94210144 445.66296387 468.06877136 C443.21964451 468.4324879 440.77491892 468.7846521 438.32946777 469.13371277 C437.6303125 469.23570984 436.93115723 469.33770691 436.21081543 469.4427948 C421.6738281 471.55421272 407.3277137 472.28232018 392.65893555 472.26742554 C390.89726733 472.26929706 389.13559952 472.27159912 387.37393236 472.27429086 C382.56396843 472.2803732 377.75402197 472.28027949 372.94405508 472.27909648 C367.74410329 472.27889157 362.54415697 472.28441992 357.34420776 472.28915405 C347.16744756 472.29744187 336.99069315 472.30020806 326.81392986 472.30076643 C318.53591029 472.30124253 310.25789262 472.30330198 301.97987366 472.30646706 C278.47859538 472.31526898 254.97732167 472.31988722 231.47604173 472.31913658 C230.21047506 472.31909663 228.94490839 472.31905667 227.64099121 472.3190155 C225.74030659 472.31895418 225.74030659 472.31895418 223.80122429 472.31889162 C203.27854172 472.31848541 182.75587751 472.32804988 162.23320025 472.34215387 C141.1297044 472.35654184 120.02621749 472.3634227 98.92271662 472.36256009 C87.08723836 472.36222893 75.25177936 472.3649404 63.41630554 472.37573814 C53.33707999 472.38487511 43.25788241 472.3869923 33.17865449 472.38022872 C28.04391733 472.37697943 22.90923375 472.37684878 17.7745018 472.38558197 C-21.17503848 472.44777551 -21.17503848 472.44777551 -38.67053223 470.13371277 C-40.6506441 469.91688686 -42.63101904 469.70240736 -44.61193848 469.49308777 C-64.42658699 466.99982665 -82.99358981 460.73241753 -101.06506348 452.30949402 C-103.53198169 451.19623707 -106.01492456 450.21635013 -108.54553223 449.25871277 C-114.87608204 446.78775623 -120.74686778 443.43908039 -126.67053223 440.13371277 C-126.67053223 439.47371277 -126.67053223 438.81371277 -126.67053223 438.13371277 C-127.34729004 437.89910339 -128.02404785 437.66449402 -128.72131348 437.42277527 C-132.39047305 435.81903664 -135.54874008 433.74738864 -138.85803223 431.50871277 C-139.52439697 431.05995789 -140.19076172 430.611203 -140.87731934 430.14884949 C-146.37454441 426.40783931 -151.58954521 422.42534584 -156.67053223 418.13371277 C-157.20533203 417.68769714 -157.74013184 417.24168152 -158.2911377 416.78215027 C-169.88600926 407.10520306 -180.26170481 396.99329123 -189.67053223 385.13371277 C-190.32666504 384.34480652 -190.98279785 383.55590027 -191.65881348 382.74308777 C-213.22628859 356.63736639 -229.32457997 324.15286498 -236.67053223 291.13371277 C-236.8432666 290.37654968 -237.01600098 289.6193866 -237.19396973 288.83927917 C-237.73893633 286.43974779 -238.2698413 284.0375362 -238.79553223 281.63371277 C-239.03360596 280.56866516 -239.03360596 280.56866516 -239.27648926 279.48210144 C-242.27874442 265.30899463 -243.07814981 251.25958545 -243.04553223 236.82121277 C-243.04532074 235.95031006 -243.04510925 235.07940735 -243.04489136 234.18211365 C-243.00794899 218.84735565 -241.71242948 204.19432966 -238.67053223 189.13371277 C-238.4832959 188.15821472 -238.29605957 187.18271667 -238.10314941 186.17765808 C-235.53915182 172.97683455 -231.75670735 160.57152094 -226.67053223 148.13371277 C-226.30878906 147.24168152 -225.9470459 146.34965027 -225.57434082 145.43058777 C-224.43385661 142.63764483 -223.27568431 139.85289958 -222.10803223 137.07121277 C-221.58064453 135.80458801 -221.58064453 135.80458801 -221.04260254 134.51237488 C-218.40956619 128.38131711 -215.20468609 122.78565493 -211.67053223 117.13371277 C-211.13822998 116.26270935 -210.60592773 115.39170593 -210.05749512 114.49430847 C-202.99804665 102.96481682 -195.80411363 92.11061389 -186.67053223 82.13371277 C-185.96025879 81.31644714 -185.24998535 80.49918152 -184.51818848 79.65715027 C-168.2672971 61.0760566 -149.97784753 45.65709361 -128.67053223 33.13371277 C-128.01053223 33.13371277 -127.35053223 33.13371277 -126.67053223 33.13371277 C-126.67053223 32.47371277 -126.67053223 31.81371277 -126.67053223 31.13371277 C-124.34052396 29.85645563 -122.00682293 28.58688828 -119.67053223 27.32121277 C-119.02213379 26.96478699 -118.37373535 26.60836121 -117.70568848 26.24113464 C-113.78421771 24.12509349 -109.88697938 22.38941571 -105.69396973 20.8868866 C-103.61396369 20.11265655 -101.60169645 19.24494494 -99.57678223 18.33683777 C-77.27887082 8.38372925 -54.90039704 3.46064048 -30.67053223 1.13371277 C-29.81306444 1.05116468 -28.95559665 0.96861658 -28.07214499 0.88356704 C-18.70678854 0.06781307 -9.39055023 -0.00953514 0 0 Z " fill="#FEFEFE" transform="translate(526.6705322265625,843.8662872314453)"/>
<path d="M0 0 C5.58556731 0.01137057 11.17109856 -0.00091629 16.75666356 -0.00984204 C27.62941808 -0.02360213 38.50205457 -0.01634887 49.37480323 -0.00116646 C62.09352117 0.01590159 74.81221139 0.01245771 87.53093727 0.00873946 C110.93578792 0.00271708 134.3405631 0.018339 157.74539446 0.0439271 C179.00705398 0.06704914 200.26864541 0.07241955 221.53031468 0.06219471 C226.98243957 0.05959162 232.43456445 0.05700629 237.88668942 0.05459678 C238.55840057 0.05429933 239.23011172 0.05400189 239.92217776 0.05369543 C257.81647128 0.04604379 275.71075827 0.05258447 293.60504997 0.0632928 C296.17593924 0.0648183 298.74682851 0.06633866 301.31771779 0.06785381 C302.58193844 0.06861162 303.84615908 0.06936944 305.14868944 0.07015022 C313.97194168 0.07485307 322.7951784 0.07307048 331.61843038 0.06878841 C342.39582234 0.06381574 353.17314452 0.07004828 363.95052068 0.08968271 C369.42783815 0.0994222 374.90505034 0.10480813 380.38237309 0.09679019 C400.72415822 0.07025194 420.96071181 0.27043563 441.24702001 1.89286792 C442.40683975 1.98501805 442.40683975 1.98501805 443.5900902 2.07902981 C470.17065717 4.25144523 495.83674422 10.67975678 520.99174047 19.41839588 C524.02732163 20.44249158 527.07036349 21.2892223 530.15970922 22.13323963 C545.2324044 26.71653137 559.67995922 34.37615915 573.39408422 42.04730213 C575.74361218 43.26100856 577.64089854 44.04460616 580.22220922 44.50823963 C580.22220922 45.16823963 580.22220922 45.82823963 580.22220922 46.50823963 C581.07041234 46.75702869 581.91861547 47.00581775 582.79252172 47.26214588 C586.50619035 48.61141728 589.74622772 50.38977145 593.09720922 52.44573963 C593.73344213 52.83253894 594.36967504 53.21933826 595.02518773 53.61785877 C600.15113086 56.77204532 605.17722066 60.0701624 610.15970922 63.44573963 C610.86402074 63.91810047 611.56833226 64.39046131 612.29398656 64.87713611 C613.97483328 66.03400353 615.60447508 67.26464637 617.22220922 68.50823963 C617.22220922 69.16823963 617.22220922 69.82823963 617.22220922 70.50823963 C618.21220922 70.50823963 619.20220922 70.50823963 620.22220922 70.50823963 C620.22220922 71.16823963 620.22220922 71.82823963 620.22220922 72.50823963 C621.07105687 72.89302478 621.07105687 72.89302478 621.93705297 73.28558338 C625.32156068 75.09643964 628.12824252 77.5382599 631.10111547 79.94964588 C633.23074273 81.68159552 633.23074273 81.68159552 636.22220922 82.50823963 C637.93579565 84.12662681 639.59298181 85.80495644 641.22220922 87.50823963 C644.66582853 91.04447462 648.13901398 94.4811636 651.89408422 97.68792713 C656.49990226 101.69764817 660.84502285 105.93895584 665.15970922 110.25823963 C665.95385228 111.05318836 666.74799535 111.84813709 667.56620336 112.66717517 C672.38255614 117.53403356 676.91632295 122.43957158 681.12455297 127.84417713 C682.76150862 129.9231413 684.42891569 131.92698239 686.16361547 133.92230213 C686.92460546 134.80051624 686.92460546 134.80051624 687.70096898 135.69647205 C688.69000677 136.83376233 689.68374756 137.96698559 690.68290257 139.09539783 C693.00861948 141.78822266 694.80491709 143.90040149 695.22220922 147.50823963 C695.88220922 147.50823963 696.54220922 147.50823963 697.22220922 147.50823963 C697.32533422 148.14761463 697.42845922 148.78698963 697.53470922 149.44573963 C697.76158422 150.12636463 697.98845922 150.80698963 698.22220922 151.50823963 C699.21220922 151.83823963 700.20220922 152.16823963 701.22220922 152.50823963 C702.54984593 154.09271228 702.54984593 154.09271228 703.90189672 156.17230213 C704.41236547 156.9537157 704.92283422 157.73512928 705.44877172 158.54022205 C706.26474828 159.82376575 706.26474828 159.82376575 707.09720922 161.13323963 C707.94799047 162.456422 707.94799047 162.456422 708.81595922 163.80633533 C714.85526079 173.31341318 720.38775015 183.10494418 725.81595922 192.97064197 C726.71823773 194.59881609 727.63381776 196.21973012 728.56595922 197.83099353 C731.20291974 202.41653121 733.32680432 207.01011655 735.22611547 211.94622791 C736.2407318 214.5558808 737.32659652 217.12330448 738.44095922 219.69183338 C738.8160764 220.55743885 739.19119359 221.42304431 739.57767797 222.31488025 C740.33927012 224.06550248 741.10228609 225.81550599 741.86674047 227.56488025 C748.0453696 241.84367094 752.21703901 256.49990315 756.22220922 271.50823963 C756.49355687 272.5172533 756.76490453 273.52626697 757.04447484 274.56585681 C764.6434605 303.19875937 768.09727943 331.404726 767.87406468 360.94671619 C767.84557763 364.74790622 767.86256021 368.54734381 767.89128423 372.34847438 C768.11932162 408.1112505 761.4118159 441.68954113 751.59720922 476.00823963 C751.40920751 476.66995166 751.2212058 477.3316637 751.02750707 478.01342762 C749.10729388 484.73585336 747.13473746 491.28352069 744.12040257 497.60369861 C743.11934494 499.72635438 742.25990874 501.88371321 741.40970922 504.07073963 C737.43884257 514.06798037 733.29432465 524.00918842 727.98783422 533.37933338 C726.58962311 535.85713668 725.23281667 538.34604028 723.89408422 540.85589588 C718.81182765 550.33420919 713.45131944 559.59214179 707.72220922 568.69573963 C706.82308812 570.13977161 706.82308812 570.13977161 705.90580297 571.61297596 C705.33990453 572.50009265 704.77400609 573.38720935 704.19095922 574.30120838 C703.69015843 575.09035633 703.18935765 575.87950428 702.67338109 576.6925658 C701.22220922 578.50823963 701.22220922 578.50823963 698.22220922 579.50823963 C697.48897125 581.52332321 697.48897125 581.52332321 697.22220922 583.50823963 C696.56220922 583.50823963 695.90220922 583.50823963 695.22220922 583.50823963 C694.86836156 584.30874744 694.86836156 584.30874744 694.50736547 585.12542713 C692.85190158 588.19482825 690.79220414 590.88730387 688.65970922 593.63323963 C688.21715795 594.20582508 687.77460668 594.77841053 687.31864476 595.36834705 C683.89843929 599.74555174 680.29504896 603.91683819 676.52299047 607.99652088 C674.63477232 610.0578524 672.80430731 612.14886114 670.98002172 614.26605213 C667.09415504 618.71885692 662.97367041 622.90440109 658.78470922 627.07073963 C657.71639867 628.14485096 657.71639867 628.14485096 656.62650609 629.2406615 C649.51501347 636.33923588 641.95988653 642.80836258 634.15970922 649.13323963 C633.49133031 649.67980213 632.8229514 650.22636463 632.13431859 650.78948963 C620.17188587 660.50823963 620.17188587 660.50823963 617.22220922 660.50823963 C616.89220922 661.49823963 616.56220922 662.48823963 616.22220922 663.50823963 C615.23220922 663.50823963 614.24220922 663.50823963 613.22220922 663.50823963 C613.22220922 664.16823963 613.22220922 664.82823963 613.22220922 665.50823963 C611.27228513 666.94209823 609.33689015 668.23429191 607.28470922 669.50823963 C606.66950414 669.89616687 606.05429906 670.28409412 605.4204514 670.68377674 C600.31266671 673.88091401 595.15154821 676.9911626 589.97220922 680.07073963 C588.86438085 680.73299549 588.86438085 680.73299549 587.73417211 681.40863025 C582.4607707 684.50823963 582.4607707 684.50823963 580.22220922 684.50823963 C580.22220922 685.16823963 580.22220922 685.82823963 580.22220922 686.50823963 C579.67435765 686.70417713 579.12650609 686.90011463 578.56205297 687.10198963 C573.08091757 689.16966997 567.9757067 691.63964229 562.84720922 694.44573963 C557.4396277 697.39502129 552.02527586 700.01386769 546.28812718 702.28118885 C543.40083329 703.43675017 540.54539314 704.6503887 537.68705297 705.87542713 C531.21670461 708.5735201 524.64920481 710.81809229 517.97220922 712.94573963 C516.15064305 713.5271471 516.15064305 713.5271471 514.29227757 714.12030017 C502.71216748 717.75894391 491.05617149 720.82206767 479.22220922 723.50823963 C478.00332006 723.79972888 478.00332006 723.79972888 476.75980687 724.09710681 C444.46645068 731.74816867 410.19880307 730.96333558 377.22876644 730.91507268 C371.65115765 730.91025073 366.07358033 730.92292872 360.49598241 730.93309009 C349.62442778 730.95011076 338.75293136 730.95115333 327.88136689 730.94587719 C319.02681129 730.94180246 310.17227262 730.94331774 301.31771779 730.94862545 C300.0478026 730.94937387 298.77788741 730.95012229 297.46948994 730.95089339 C294.88799241 730.95242519 292.30649488 730.95396354 289.72499736 730.95550836 C272.44555832 730.9653058 255.16612906 730.96953416 237.88668942 730.96188247 C236.87804601 730.96143671 236.87804601 730.96143671 235.84902596 730.96098195 C230.39217878 730.95853425 224.93533168 730.95592204 219.47848459 730.95329781 C198.21773646 730.94320452 176.95706742 730.95154837 155.69633031 730.97479236 C131.68018076 731.0010078 107.66409033 731.0136256 83.64792144 731.00660461 C70.97984263 731.00313896 58.31182859 731.00516628 45.64375997 731.02285564 C34.85979764 731.03773026 24.07594571 731.03801752 13.2919852 731.02078473 C7.8139303 731.01239558 2.33607127 731.00981966 -3.1419723 731.02543628 C-24.82089985 731.08274691 -46.28842339 730.6204436 -67.88628078 728.62141407 C-69.26290538 728.49405144 -69.26290538 728.49405144 -70.66734059 728.36411583 C-84.61029644 727.04331221 -98.22702813 725.15671384 -111.77779078 721.50823963 C-112.70688258 721.26235096 -113.63597438 721.01646228 -114.59322047 720.76312244 C-121.71006741 718.85009478 -128.7479043 716.71724586 -135.77779078 714.50823963 C-136.97806911 714.1353783 -138.17834743 713.76251697 -139.41499782 713.37835681 C-154.97799218 708.50830415 -169.94240316 703.08016093 -184.49849391 695.65570056 C-188.11510142 693.83500056 -191.7886103 692.14091669 -195.46529078 690.44573963 C-201.62394463 687.5851627 -201.62394463 687.5851627 -203.77779078 686.50823963 C-203.77779078 685.84823963 -203.77779078 685.18823963 -203.77779078 684.50823963 C-204.87993922 684.34581775 -204.87993922 684.34581775 -206.00435328 684.18011463 C-208.94837334 683.4669154 -210.68546587 682.4862578 -213.15279078 680.75823963 C-214.322615 679.94999744 -214.322615 679.94999744 -215.51607203 679.12542713 C-217.47051397 677.72795051 -219.40609191 676.3084388 -221.34029078 674.88323963 C-223.64461453 673.21449399 -225.91459401 671.90928863 -228.49263453 670.71136463 C-232.92864343 668.52885029 -236.8183087 665.82726805 -240.77779078 662.88323963 C-241.45712672 662.39339588 -242.13646266 661.90355213 -242.83638453 661.39886463 C-244.52445401 660.15573902 -246.15695192 658.83783401 -247.77779078 657.50823963 C-247.77779078 656.84823963 -247.77779078 656.18823963 -247.77779078 655.50823963 C-248.61310328 655.41542713 -248.61310328 655.41542713 -249.46529078 655.32073963 C-252.72728596 654.17463321 -254.37537847 651.96785223 -256.77779078 649.50823963 C-257.87091578 648.78636463 -258.96404078 648.06448963 -260.09029078 647.32073963 C-260.97716578 646.72261463 -261.86404078 646.12448963 -262.77779078 645.50823963 C-262.77779078 644.84823963 -262.77779078 644.18823963 -262.77779078 643.50823963 C-263.76779078 643.50823963 -264.75779078 643.50823963 -265.77779078 643.50823963 C-267.10200953 642.22308338 -267.10200953 642.22308338 -268.46529078 640.44573963 C-270.6208024 637.76676154 -272.83650898 635.49075535 -275.46529078 633.27777088 C-279.88393147 629.47013782 -283.99274971 625.40608102 -288.09029078 621.25823963 C-288.79218532 620.55183338 -289.49407985 619.84542713 -290.21724391 619.11761463 C-291.511149 617.81507528 -292.80401394 616.51150111 -294.09541774 615.20648181 C-295.17705604 614.11464085 -296.26420285 613.02821486 -297.35811305 611.94866931 C-299.51989738 609.75528539 -301.44323306 607.38268742 -303.40279078 605.00823963 C-304.19943141 604.04917713 -304.99607203 603.09011463 -305.81685328 602.10198963 C-307.77779078 599.50823963 -307.77779078 599.50823963 -308.77779078 596.50823963 C-309.43779078 596.50823963 -310.09779078 596.50823963 -310.77779078 596.50823963 C-326.79999663 579.78762994 -338.17906653 557.81425363 -349.46675563 537.82366931 C-350.5363891 535.93458107 -351.61822059 534.05240383 -352.70357203 532.17230213 C-355.85826082 526.61287641 -358.23219593 520.98824541 -360.44185328 514.99261463 C-361.60797681 511.95114626 -362.87463269 508.98279483 -364.21407008 506.01434314 C-371.79430853 489.20011125 -377.47379943 472.29548425 -381.1967361 454.23187244 C-381.76932203 451.54793602 -382.39843954 448.88464885 -383.05122828 446.21917713 C-386.64026697 431.46469191 -388.98998719 416.58499627 -390.77779078 401.50823963 C-390.88381618 400.61983387 -390.98984157 399.7314281 -391.09907985 398.81610096 C-392.18241561 388.07107987 -392.02169492 377.23355881 -392.02779078 366.44573963 C-392.02846553 365.37344104 -392.02914027 364.30114246 -392.02983546 363.19634998 C-392.01341427 346.75612687 -391.41226186 330.76485385 -388.77779078 314.50823963 C-388.60618434 313.38723865 -388.43457789 312.26623767 -388.25777125 311.11126697 C-385.74870732 294.90661548 -382.09063499 279.20174512 -377.58565211 263.44280994 C-376.7622105 260.45164397 -376.03249377 257.44780306 -375.31294703 254.43011463 C-373.89663168 248.69385059 -371.99100107 243.25586478 -369.84029078 237.75823963 C-369.33852321 236.4375951 -369.33852321 236.4375951 -368.82661891 235.09027088 C-366.99925282 230.35109024 -364.98499903 225.80995534 -362.65987086 221.29583728 C-361.42404358 218.7913459 -360.51300115 216.20452975 -359.59029078 213.57073963 C-357.50082855 208.01614436 -354.99667368 202.81159398 -352.21529078 197.57073963 C-351.83928737 196.86119129 -351.46328395 196.15164295 -351.07588649 195.42059314 C-349.41386669 192.34157859 -347.71020443 189.40809723 -345.75044703 186.50433338 C-344.27460531 184.26280743 -343.14169572 182.26503182 -342.00825953 179.86761463 C-339.2306602 174.16900361 -335.62704835 169.00593443 -332.09029078 163.75823963 C-331.37131618 162.68783435 -330.65234157 161.61742908 -329.91157985 160.51458728 C-315.89711889 139.75254017 -299.61338317 121.29902458 -281.96529078 103.57073963 C-281.2599319 102.86070789 -280.55457301 102.15067615 -279.82783961 101.4191283 C-276.1107846 97.71347395 -272.33025197 94.16465125 -268.29585719 90.80584705 C-265.99153078 88.83616309 -263.88953527 86.68031967 -261.77779078 84.50823963 C-261.11779078 83.84823963 -260.45779078 83.18823963 -259.77779078 82.50823963 C-258.78779078 82.50823963 -257.79779078 82.50823963 -256.77779078 82.50823963 C-256.40086085 81.61177722 -256.40086085 81.61177722 -256.01631618 80.69720447 C-254.60745373 78.2071866 -253.28636832 77.1294027 -250.96138453 75.48480213 C-250.19632594 74.93823963 -249.43126735 74.39167713 -248.64302516 73.82855213 C-247.84187282 73.269099 -247.04072047 72.70964588 -246.21529078 72.13323963 C-245.44120875 71.58152088 -244.66712672 71.02980213 -243.86958766 70.46136463 C-236.99969848 65.58780461 -230.10458727 60.74286584 -222.73872828 56.64495838 C-217.28986861 53.48635645 -212.01708095 50.00109974 -206.77779078 46.50823963 C-205.78779078 46.50823963 -204.79779078 46.50823963 -203.77779078 46.50823963 C-203.77779078 45.84823963 -203.77779078 45.18823963 -203.77779078 44.50823963 C-195.47230618 40.44904385 -187.13701684 36.45554869 -178.77779078 32.50823963 C-177.89301051 32.08768299 -177.00823024 31.66712635 -176.09663844 31.23382556 C-151.44886402 19.64713765 -124.36893277 12.08842747 -97.77779078 6.50823963 C-97.19168831 6.36871279 -96.60558584 6.22918596 -96.00172269 6.08543104 C-86.81592541 4.03933869 -77.44421322 3.28059165 -68.08940578 2.41459644 C-67.12922598 2.32569603 -66.16904619 2.23679562 -65.17977004 2.14520126 C-43.44592006 0.18283385 -21.80768899 -0.06216862 0 0 Z M-45.55073726 131.23333573 C-48.97019797 131.65542845 -52.39617782 132.01608276 -55.82157487 132.38633174 C-75.26015757 134.56179398 -93.96344421 141.714463 -111.77779078 149.50823963 C-113.90180364 150.36485802 -116.02672522 151.21922867 -118.15279078 152.07073963 C-123.92816351 154.47047899 -129.35530503 157.40205192 -134.77779078 160.50823963 C-134.77779078 161.16823963 -134.77779078 161.82823963 -134.77779078 162.50823963 C-135.47001735 162.75702869 -136.16224391 163.00581775 -136.87544703 163.26214588 C-140.2039385 164.69120211 -143.18458793 166.48338944 -146.21529078 168.44573963 C-146.82147243 168.83761463 -147.42765407 169.22948963 -148.05220485 169.63323963 C-158.68114662 176.62783978 -168.5680085 184.74020562 -177.77779078 193.50823963 C-178.3411111 194.04432849 -178.90443141 194.58041736 -179.48482203 195.13275135 C-188.41976542 203.69383789 -196.41811766 212.56659853 -203.77779078 222.50823963 C-204.85286891 223.92556385 -204.85286891 223.92556385 -205.94966578 225.37152088 C-211.01310766 232.15221533 -215.44382563 239.24522927 -219.77779078 246.50823963 C-220.4029861 247.49437244 -221.02818141 248.48050525 -221.67232203 249.49652088 C-242.50744414 283.57106883 -251.24217648 325.2578732 -251.15279078 364.82073963 C-251.1525793 365.69131 -251.15236781 366.56188037 -251.15214992 367.45883167 C-251.11522826 382.77816942 -249.89060165 397.47216204 -246.77779078 412.50823963 C-246.57991969 413.47261951 -246.3820486 414.43699939 -246.17818141 415.43060291 C-242.62810906 432.27046876 -237.5228782 448.10102416 -229.77779078 463.50823963 C-229.3295193 464.40204334 -228.88124782 465.29584705 -228.41939235 466.21673572 C-222.78041571 477.39219604 -217.15510299 488.36637674 -209.77779078 498.50823963 C-208.8129275 499.8791576 -208.8129275 499.8791576 -207.82857203 501.27777088 C-190.09693973 526.18566302 -168.50770362 547.19062655 -142.84029078 563.82073963 C-142.25513698 564.1999657 -141.66998317 564.57919178 -141.06709743 564.96990955 C-138.14910069 566.92352796 -138.14910069 566.92352796 -134.77779078 567.50823963 C-134.77779078 568.16823963 -134.77779078 568.82823963 -134.77779078 569.50823963 C-125.28197047 574.68654456 -115.92512857 579.77837626 -105.72700953 583.43792713 C-102.8090256 584.49690408 -99.99495295 585.6991085 -97.15279078 586.94573963 C-91.88548632 589.16207546 -86.53271666 590.96837935 -81.09029078 592.69573963 C-80.30637965 592.94573719 -79.52246852 593.19573474 -78.7148025 593.45330799 C-69.57360993 596.29708517 -60.52655435 597.92579938 -51.02779078 599.07073963 C-49.53505641 599.25926502 -49.53505641 599.25926502 -48.01216578 599.451599 C-34.6955001 601.09044124 -21.51680469 601.65556733 -8.11398768 601.6419524 C-6.35303216 601.64382392 -4.59207704 601.64612598 -2.83112258 601.64881772 C1.97691074 601.65490006 6.78492658 601.65480635 11.59296286 601.65362334 C16.79088877 601.65341842 21.9888092 601.65894682 27.18673253 601.66368091 C37.35981773 601.67196887 47.53289713 601.67473493 57.70598542 601.67529329 C65.98161272 601.67576941 74.25723811 601.67782896 82.53286481 601.68099391 C106.02907742 601.68979609 129.52528547 601.69441407 153.02149975 601.69366344 C154.28680369 601.69362348 155.55210764 601.69358353 156.85575414 601.69354236 C158.7560453 601.69348104 158.7560453 601.69348104 160.69472618 601.69341848 C181.21026666 601.69301232 201.72578877 601.70257534 222.24132394 601.71668073 C243.33917456 601.73107124 264.43701623 601.73794941 285.53487188 601.73708695 C297.36646961 601.73675586 309.19804809 601.73946403 321.02964139 601.750265 C331.10627651 601.75940535 341.18288363 601.76151644 351.25952112 601.75475558 C356.39235692 601.7515079 361.52513913 601.75136968 366.65796971 601.76010883 C401.6778902 601.92456505 401.6778902 601.92456505 436.32377172 597.28948963 C438.51618809 596.85012763 440.7147319 596.43446129 442.92606664 596.10321033 C450.34282622 594.99078683 457.19958336 593.13397801 464.28470922 590.69573963 C465.28308812 590.3650951 466.28146703 590.03445056 467.31009984 589.6937865 C473.30039334 587.66851531 479.02387851 585.31568574 484.75126195 582.63934314 C488.90047294 580.73999579 493.17760837 579.25738753 497.47220922 577.71917713 C500.15081116 576.53967911 501.24715284 575.56293538 503.22220922 573.50823963 C504.94672039 572.60371661 506.70150065 571.75610489 508.47220922 570.94573963 C534.58237475 558.17377913 560.19145048 535.90903022 577.22220922 512.50823963 C577.66629125 511.90286365 578.11037328 511.29748767 578.56791234 510.67376697 C585.2670559 501.50547268 591.57480208 492.17588491 597.19730687 482.30706775 C598.1868863 480.57023564 599.19446944 478.84369945 600.20267797 477.11761463 C611.55647254 456.90287459 618.52862385 435.13356376 623.22220922 412.50823963 C623.55889623 410.91350818 623.55889623 410.91350818 623.902385 409.28655994 C631.06333654 373.88299136 629.10419804 335.34058181 618.85404515 300.78094471 C618.11362201 298.11765294 617.51127819 295.43225973 616.89017797 292.73870838 C615.28734603 286.27542992 612.84113875 280.37440638 610.09720922 274.32073963 C609.60712377 273.22922596 609.11703832 272.13771228 608.61210179 271.01312244 C599.07114923 249.98180716 587.6013019 229.87929099 572.22220922 212.50823963 C571.5557639 211.73351306 570.88931859 210.9587865 570.20267797 210.16058338 C553.36722631 190.95130181 534.65987845 175.6828635 512.84720922 162.44573963 C511.89588109 161.85986072 510.94455297 161.27398181 509.96439672 160.670349 C494.32049525 151.14659547 478.0509454 145.083153 460.78470922 139.25823963 C459.77827367 138.9167992 458.77183812 138.57535877 457.73490453 138.22357166 C447.85429554 134.93385614 438.31105192 133.13577694 427.97220922 131.94573963 C426.92935765 131.82005603 425.88650609 131.69437244 424.81205297 131.56488025 C411.37073198 129.98208598 398.08076982 129.36079049 384.55840611 129.37452686 C382.79745059 129.37265533 381.03649547 129.37035327 379.27554101 129.36766154 C374.46750769 129.36157919 369.65949185 129.3616729 364.85145557 129.36285591 C359.65352966 129.36306083 354.45560923 129.35753244 349.2576859 129.35279834 C339.0846007 129.34451038 328.9115213 129.34174433 318.73843301 129.34118596 C310.46280571 129.34070984 302.18718032 129.33865029 293.91155362 129.33548534 C270.41534101 129.32668316 246.91913296 129.32206518 223.42291868 129.32281581 C222.15761474 129.32285577 220.89231079 129.32289573 219.58866429 129.32293689 C217.68837313 129.32299821 217.68837313 129.32299821 215.74969225 129.32306077 C195.23415177 129.32346693 174.71862966 129.31390392 154.20309449 129.29979853 C133.10524387 129.28540801 112.0074022 129.27852984 90.90954655 129.2793923 C79.07794882 129.27972339 67.24637034 129.27701523 55.41477704 129.26621425 C45.33814192 129.2570739 35.2615348 129.25496281 25.18489731 129.26172367 C20.05206151 129.26497136 14.9192793 129.26510957 9.78644872 129.25637043 C-17.93511169 129.08812703 -17.93511169 129.08812703 -45.55073726 131.23333573 Z " fill="#FE131D" transform="translate(534.7777907848358,714.4917603731155)"/>
<path d="M0 0 C1.76402354 -0.00299812 3.52804643 -0.00640214 5.29206848 -0.01017761 C10.0528159 -0.01895694 14.81354531 -0.0213532 19.57430005 -0.0219934 C22.55886789 -0.02270754 25.54343125 -0.02484875 28.52799797 -0.02749062 C38.96951459 -0.03672512 49.4110185 -0.04082802 59.85253906 -0.04003906 C69.53746954 -0.03943931 79.22234413 -0.04997596 88.90726048 -0.06578273 C97.26102378 -0.07892393 105.61476897 -0.08422019 113.96854252 -0.08358365 C118.94052567 -0.08333052 123.91245912 -0.08607802 128.88443184 -0.0967617 C133.56884856 -0.10655381 138.25316922 -0.10644708 142.93758965 -0.09924507 C144.6405438 -0.09821276 146.3435043 -0.10047972 148.04644775 -0.10660553 C176.11265737 -0.20088962 206.56473374 3.71713605 231.23217773 18.14526367 C231.23217773 18.80526367 231.23217773 19.46526367 231.23217773 20.14526367 C233.54217773 20.80526367 235.85217773 21.46526367 238.23217773 22.14526367 C238.23217773 22.80526367 238.23217773 23.46526367 238.23217773 24.14526367 C238.91280273 24.39276367 239.59342773 24.64026367 240.29467773 24.89526367 C246.50611693 27.53842929 250.52717972 30.35796249 255.23217773 35.14526367 C256.78810116 36.59289847 258.36304954 38.0179775 259.93847656 39.44433594 C268.92329393 47.59311178 276.27999494 56.18000761 283.23217773 66.14526367 C283.80838867 66.94061523 284.38459961 67.7359668 284.97827148 68.55541992 C305.27117121 98.12775185 312.70784618 138.35459847 306.64233398 173.40795898 C301.50456271 200.27804403 289.92905596 224.32799738 272.23217773 245.14526367 C271.79824707 245.66427246 271.36431641 246.18328125 270.91723633 246.71801758 C255.84652988 264.59995772 234.53034479 280.00857173 212.23217773 287.14526367 C210.7409467 287.64423194 209.25005777 288.14422385 207.75952148 288.64526367 C187.03083941 295.47872295 167.16268271 297.29808268 145.43676758 297.29052734 C143.69377573 297.29352708 141.95078454 297.29693146 140.20779419 297.30070496 C135.5132116 297.30946689 130.81864728 297.31187977 126.12405729 297.31252074 C123.17933816 297.31323577 120.23462355 297.31537859 117.28990555 297.31801796 C106.98338785 297.32724599 96.67688302 297.3313561 86.37036133 297.33056641 C76.81719335 297.3299665 67.26408199 297.34050777 57.71092832 297.35631007 C49.46411451 297.3694573 41.21731905 297.3747473 32.97049487 297.374111 C28.06502002 297.37385809 23.15959557 297.37659325 18.25413132 297.38728905 C13.63288431 297.39709179 9.01173464 297.39696744 4.39048386 297.38977242 C2.71213638 297.38874146 1.03378244 297.39099857 -0.64455414 297.39713287 C-29.03380167 297.49402263 -59.7940141 293.75258543 -84.76782227 279.14526367 C-84.76782227 278.48526367 -84.76782227 277.82526367 -84.76782227 277.14526367 C-85.31180664 277.05374023 -85.85579102 276.9622168 -86.41625977 276.86791992 C-95.37701946 274.11419809 -103.6881426 266.12264972 -110.76782227 260.14526367 C-112.01885742 259.09725586 -112.01885742 259.09725586 -113.29516602 258.02807617 C-119.55197119 252.61001067 -124.72776926 246.69641119 -129.76782227 240.14526367 C-130.40075195 239.36280273 -131.03368164 238.5803418 -131.68579102 237.77416992 C-143.0324316 223.15221041 -151.43883526 205.81586461 -156.76782227 188.14526367 C-156.98937988 187.44030762 -157.2109375 186.73535156 -157.43920898 186.0090332 C-163.84934856 164.78434883 -163.62380572 134.18918674 -157.70532227 112.95776367 C-157.49053223 112.16732666 -157.27574219 111.37688965 -157.05444336 110.5625 C-152.83872523 95.77242859 -146.32227191 79.97693813 -137.76782227 67.14526367 C-137.10782227 67.14526367 -136.44782227 67.14526367 -135.76782227 67.14526367 C-135.49969727 66.40663086 -135.23157227 65.66799805 -134.95532227 64.90698242 C-130.07021691 53.54589858 -118.38695529 44.57145586 -109.74731445 36.09301758 C-108.36249068 34.73039744 -107.01666677 33.32751637 -105.70239258 31.89672852 C-103.76782227 30.14526367 -103.76782227 30.14526367 -100.76782227 30.14526367 C-100.76782227 29.48526367 -100.76782227 28.82526367 -100.76782227 28.14526367 C-99.31244659 27.30677563 -97.85341853 26.47462433 -96.39282227 25.64526367 C-95.58071289 25.18120117 -94.76860352 24.71713867 -93.93188477 24.23901367 C-91.76782227 23.14526367 -91.76782227 23.14526367 -89.76782227 23.14526367 C-89.27282227 21.66026367 -89.27282227 21.66026367 -88.76782227 20.14526367 C-85.9781315 18.19877516 -82.83764871 16.84846209 -79.76782227 15.39526367 C-78.84098633 14.95569336 -77.91415039 14.51612305 -76.95922852 14.06323242 C-62.17778261 7.33011696 -45.93563662 2.84464747 -29.76782227 1.14526367 C-28.92441819 1.05461986 -28.08101412 0.96397604 -27.21205235 0.87058544 C-18.14157183 0.00946202 -9.10029395 -0.00311098 0 0 Z M-44.14282227 59.08276367 C-44.81128174 59.3421875 -45.47974121 59.60161133 -46.16845703 59.86889648 C-54.60164383 62.59663967 -54.60164383 62.59663967 -60.76782227 68.14526367 C-62.43448893 68.81193034 -64.1011556 69.47859701 -65.76782227 70.14526367 C-66.09782227 70.80526367 -66.42782227 71.46526367 -66.76782227 72.14526367 C-67.75782227 72.47526367 -68.74782227 72.80526367 -69.76782227 73.14526367 C-71.31218353 74.6687122 -71.31218353 74.6687122 -72.83032227 76.58276367 C-75.58976499 79.87085753 -78.50067936 82.7855219 -81.64282227 85.70776367 C-98.40300449 102.4170804 -104.72596983 125.64346414 -104.89282227 148.64526367 C-104.8621768 151.14542306 -104.82095261 153.64548103 -104.76782227 156.14526367 C-104.76266602 157.20358398 -104.75750977 158.2619043 -104.75219727 159.35229492 C-104.06226907 178.94132751 -94.28922017 196.59336881 -81.76782227 211.14526367 C-81.2199707 211.81428711 -80.67211914 212.48331055 -80.10766602 213.17260742 C-77.25241082 216.62666294 -74.33237856 219.39546311 -70.76782227 222.14526367 C-70.43782227 222.80526367 -70.10782227 223.46526367 -69.76782227 224.14526367 C-68.77782227 224.47526367 -67.78782227 224.80526367 -66.76782227 225.14526367 C-66.43782227 225.80526367 -66.10782227 226.46526367 -65.76782227 227.14526367 C-63.82348806 228.25058473 -61.83692129 229.28247295 -59.83032227 230.27026367 C-58.74879883 230.8090918 -57.66727539 231.34791992 -56.55297852 231.90307617 C-53.97166318 233.2810392 -53.97166318 233.2810392 -51.76782227 233.14526367 C-51.76782227 233.80526367 -51.76782227 234.46526367 -51.76782227 235.14526367 C-49.39758016 236.09643875 -47.02255663 237.03085056 -44.64282227 237.95776367 C-43.99700195 238.21879883 -43.35118164 238.47983398 -42.68579102 238.7487793 C-29.51353669 243.82950597 -16.81302608 244.58835314 -2.89916992 244.54931641 C-1.04131157 244.55503166 0.81654328 244.56200035 2.6743927 244.57011414 C7.68072804 244.58793337 12.68688703 244.58689843 17.69324446 244.58117175 C21.89017082 244.57806344 26.0870641 244.58419052 30.28398573 244.5902105 C40.19382818 244.60421734 50.10358435 244.60272662 60.01342773 244.59130859 C70.19840846 244.57983206 80.3831257 244.59390412 90.56807172 244.62070507 C99.34901722 244.6429367 108.12988046 244.64948266 116.91085207 244.64362866 C122.13929538 244.64027558 127.36756989 244.64256351 132.59598923 244.65987968 C137.5160889 244.67546622 142.43580143 244.67126485 147.35588646 244.65257454 C149.14879094 244.64892078 150.94172486 244.65190181 152.73460197 244.66246033 C168.87832052 244.75018522 182.39533978 241.82524891 197.23217773 235.14526367 C198.89566085 234.47069259 200.56139108 233.80153663 202.23217773 233.14526367 C202.23217773 232.48526367 202.23217773 231.82526367 202.23217773 231.14526367 C202.96049805 230.87842773 203.68881836 230.6115918 204.43920898 230.33666992 C222.39417509 222.67755851 236.32167597 204.44003903 244.23217773 187.14526367 C252.52398944 166.26925164 255.87492449 139.49642798 247.23217773 118.14526367 C246.99080078 117.50669434 246.74942383 116.868125 246.50073242 116.21020508 C241.18025111 102.19291186 233.25773999 89.47153023 222.23217773 79.14526367 C221.57217773 79.14526367 220.91217773 79.14526367 220.23217773 79.14526367 C219.98209961 78.53682617 219.73202148 77.92838867 219.47436523 77.30151367 C218.03558527 74.80400882 216.84938552 74.03713821 214.35717773 72.64526367 C211.15696533 70.76650343 208.85831969 68.77140563 206.23217773 66.14526367 C200.2475055 62.26419557 193.92807905 60.15023348 187.16967773 57.95776367 C186.1068457 57.60262695 185.04401367 57.24749023 183.94897461 56.8815918 C176.29111559 54.36085994 169.44697974 52.99502957 161.35375977 53.00482178 C160.19094907 53.00036509 160.19094907 53.00036509 159.00464725 52.99581838 C156.41641718 52.98717206 153.82823358 52.98562656 151.23999023 52.98413086 C149.38007001 52.97949968 147.52015073 52.97447461 145.66023254 52.96908569 C140.61228851 52.95598559 135.56435776 52.94952099 130.51639938 52.94507504 C127.35802788 52.94213946 124.19965997 52.93803366 121.04129028 52.93357086 C111.1463806 52.91990004 101.25147918 52.91023227 91.35656071 52.90636897 C79.95944645 52.90189403 68.56245246 52.88437055 57.16537476 52.85536838 C48.34047707 52.83369658 39.51561308 52.8236617 30.69068909 52.82232785 C25.42755503 52.82128344 20.1645341 52.81545373 14.90142822 52.79750824 C9.94375937 52.78093308 4.98628752 52.77891755 0.02860069 52.78764725 C-1.78126875 52.78841269 -3.5911492 52.78414078 -5.40099144 52.774189 C-18.97249029 52.70399907 -31.39518315 53.98839404 -44.14282227 59.08276367 Z " fill="#FE141E" transform="translate(1555.767822265625,932.854736328125)"/>
<path d="M0 0 C2.07070921 0.00028249 4.14141853 0.00012294 6.21212769 -0.0004425 C11.80215677 -0.00072808 17.39216416 0.00512987 22.98218822 0.01213145 C28.83580094 0.01840493 34.68941422 0.01897194 40.54302979 0.02015686 C51.61366629 0.02325843 62.68429287 0.03145594 73.75492501 0.04150635 C86.36439373 0.05270402 98.97386294 0.05818713 111.5833354 0.06320179 C137.50901295 0.07363958 163.4346817 0.0912162 189.36035156 0.11352539 C188.09691796 3.38353101 186.89233679 5.9728121 184.68847656 8.70336914 C180.76353223 13.78319861 177.46796839 19.21135476 174.11035156 24.67602539 C169.6586667 31.86259939 165.18667675 39.02453096 160.48535156 46.05102539 C160.07510742 46.66469971 159.66486328 47.27837402 159.2421875 47.91064453 C156.51111843 51.96275852 156.51111843 51.96275852 155.36035156 53.11352539 C153.08306288 53.20973375 150.80272581 53.23371196 148.52340698 53.23136902 C147.79965759 53.2320736 147.07590821 53.23277818 146.33022702 53.23350412 C143.8856554 53.23482071 141.44114714 53.22912192 138.99658203 53.22363281 C137.25052388 53.22339082 135.50446559 53.22366747 133.75840759 53.22442627 C129.98465414 53.22553577 126.21091282 53.22409112 122.43716049 53.2210598 C116.44905823 53.21742901 110.46101928 53.22656682 104.47293091 53.23884583 C102.95593072 53.24187872 102.95593072 53.24187872 101.40828407 53.24497288 C99.33894977 53.24914235 97.26961554 53.25334511 95.20028138 53.2575804 C81.25750806 53.28567159 67.31486878 53.30597294 53.37207031 53.28857422 C43.97416301 53.27694266 34.57653851 53.28683611 25.17868149 53.3206318 C20.21296472 53.33765313 15.24775739 53.34428126 10.28203964 53.32451439 C-24.24468693 53.05085202 -24.24468693 53.05085202 -56.59124947 64.1345396 C-58.63964844 65.11352539 -58.63964844 65.11352539 -60.63964844 65.11352539 C-61.13464844 66.59852539 -61.13464844 66.59852539 -61.63964844 68.11352539 C-62.95964844 68.11352539 -64.27964844 68.11352539 -65.63964844 68.11352539 C-65.63964844 68.77352539 -65.63964844 69.43352539 -65.63964844 70.11352539 C-66.62964844 70.11352539 -67.61964844 70.11352539 -68.63964844 70.11352539 C-68.89617188 70.7077832 -69.15269531 71.30204102 -69.41699219 71.91430664 C-70.75674409 74.32414792 -72.07697274 75.56224527 -74.20214844 77.30102539 C-88.84174474 89.79242006 -97.55101376 103.84762135 -103.63964844 122.11352539 C-12.22964844 122.11352539 79.18035156 122.11352539 173.36035156 122.11352539 C166.61446346 134.48098691 166.61446346 134.48098691 163.66113281 138.84008789 C163.014104 139.80164795 162.3670752 140.76320801 161.70043945 141.75390625 C161.03133545 142.73883057 160.36223145 143.72375488 159.67285156 144.73852539 C158.26042383 146.83552903 156.84897165 148.93319007 155.43847656 151.03149414 C154.74947266 152.05549316 154.06046875 153.07949219 153.35058594 154.13452148 C150.02180295 159.11707915 146.77786141 164.15345722 143.54711914 169.19995117 C140.45535337 174.01852358 140.45535337 174.01852358 139.36035156 175.11352539 C136.23795964 175.21158481 133.13767015 175.24343015 130.01487732 175.23377991 C128.52514085 175.23506154 128.52514085 175.23506154 127.00530869 175.23636907 C123.65024976 175.23802688 120.29523993 175.2324976 116.94018555 175.22705078 C114.54597983 175.22676895 112.15177403 175.22692657 109.75756836 175.22749329 C104.58904475 175.2277216 99.42053242 175.22487028 94.25201225 175.21925545 C86.77911869 175.21114251 79.30623123 175.20852544 71.83333374 175.20726746 C59.71025615 175.20507661 47.58718527 175.19841564 35.46411133 175.18896484 C23.6848148 175.17979157 11.90552008 175.17271032 0.1262207 175.16845703 C-0.5993565 175.16819431 -1.3249337 175.16793158 -2.07249809 175.1676609 C-5.71235676 175.1663559 -9.35221544 175.16509218 -12.99207413 175.163849 C-43.20793704 175.15347537 -73.42379181 175.13578205 -103.63964844 175.11352539 C-102.86583899 177.34936907 -102.08614131 179.58286294 -101.30297852 181.81542969 C-100.86923416 183.05947067 -100.43548981 184.30351166 -99.98860168 185.58525085 C-98.26176646 190.10190018 -96.05139728 193.95379119 -93.32714844 197.92602539 C-92.85365967 198.63960205 -92.3801709 199.35317871 -91.89233398 200.08837891 C-88.62430578 204.92347374 -85.08673902 209.36510197 -81.00292969 213.54711914 C-79.63964844 215.11352539 -79.63964844 215.11352539 -79.63964844 217.11352539 C-79.03894531 217.38938477 -78.43824219 217.66524414 -77.81933594 217.94946289 C-75.63964844 219.11352539 -75.63964844 219.11352539 -72.76464844 221.73852539 C-67.3627052 226.48991202 -60.92780433 229.70096438 -54.63964844 233.11352539 C-53.78113281 233.60208008 -52.92261719 234.09063477 -52.03808594 234.59399414 C-44.96255171 238.43939318 -37.4374905 240.29551421 -29.63964844 242.11352539 C-28.92724912 242.29169768 -28.2148498 242.46986998 -27.48086262 242.65344143 C-23.56468754 243.28759614 -19.72345676 243.26709623 -15.76225281 243.27174377 C-14.86776627 243.27668175 -13.97327973 243.28161973 -13.05168754 243.28670734 C-10.05456112 243.30206491 -7.0574561 243.31043827 -4.06030273 243.31884766 C-1.91180737 243.32842754 0.23668611 243.33843769 2.38517761 243.34884644 C8.21939418 243.37588953 14.05361883 243.39690236 19.8878634 243.41684842 C25.98443593 243.43871161 32.08098357 243.46609868 38.17753601 243.49290466 C49.72296121 243.54282702 61.26840024 243.58776757 72.81385249 243.63092703 C85.95762842 243.68030328 99.10137937 243.73521998 112.24513113 243.79060662 C139.28351463 243.90441966 166.3219221 244.01126021 193.36035156 244.11352539 C193.36035156 245.10352539 193.36035156 246.09352539 193.36035156 247.11352539 C192.70035156 247.11352539 192.04035156 247.11352539 191.36035156 247.11352539 C190.96638184 248.19114136 190.96638184 248.19114136 190.56445312 249.29052734 C189.32096072 252.20587664 187.84589973 254.64232335 186.09472656 257.28149414 C185.45148437 258.25795898 184.80824219 259.23442383 184.14550781 260.24047852 C183.47390625 261.25045898 182.80230469 262.26043945 182.11035156 263.30102539 C177.82907456 269.76499666 173.64895882 276.24890651 169.69580078 282.91894531 C167.94805908 285.79105686 166.04959364 288.4746453 164.04785156 291.17602539 C163.37109375 292.09512695 162.69433594 293.01422852 161.99707031 293.96118164 C160.36035156 296.11352539 160.36035156 296.11352539 159.36035156 297.11352539 C157.10178979 297.21501342 154.83998623 297.24430816 152.57914734 297.24723816 C151.86144836 297.24950372 151.14374938 297.25176927 150.40430194 297.25410348 C147.98037474 297.26047282 145.55650304 297.25961219 143.13256836 297.25878906 C141.4013461 297.2617792 139.67012451 297.26518139 137.93890381 297.26896667 C133.21669282 297.2778373 128.49449993 297.28014639 123.77228141 297.28078246 C120.8160742 297.28149258 117.85987161 297.28362642 114.90366554 297.28627968 C104.57127211 297.29555135 94.2388916 297.29961331 83.90649414 297.29882812 C74.31213063 297.29823057 64.71782394 297.30871384 55.12347478 297.32457179 C46.86843056 297.33772395 38.61340469 297.34300865 30.3583501 297.34237272 C25.43703237 297.34211947 20.51576483 297.34487222 15.59445763 297.35555077 C10.94629749 297.36535847 6.29823409 297.36522585 1.65007019 297.35803413 C-0.03955416 297.35700299 -1.72918492 297.35926145 -3.41879845 297.36539459 C-12.41836552 297.39589494 -21.29996663 297.09044514 -30.26066589 296.21162415 C-31.06918576 296.13252184 -31.87770562 296.05341954 -32.71072608 295.97192019 C-40.87510865 295.0972868 -48.73853898 293.30932965 -56.63964844 291.11352539 C-57.65236816 290.83702148 -57.65236816 290.83702148 -58.68554688 290.55493164 C-68.84917477 287.73305314 -78.20805456 283.81577119 -87.63964844 279.11352539 C-87.63964844 278.45352539 -87.63964844 277.79352539 -87.63964844 277.11352539 C-88.49558594 276.87375977 -89.35152344 276.63399414 -90.23339844 276.38696289 C-93.97246484 274.98910091 -96.95206255 273.08165422 -100.13964844 270.73852539 C-100.74059326 270.3015332 -101.34153809 269.86454102 -101.96069336 269.41430664 C-131.12959337 247.87792915 -155.59576782 215.36199356 -161.54199219 178.82055664 C-167.71507385 137.11250711 -161.56737839 96.57477031 -136.4519043 62.01831055 C-130.79323191 54.48439961 -124.29409637 47.76797332 -117.63964844 41.11352539 C-117.135625 40.5630957 -116.63160156 40.01266602 -116.11230469 39.44555664 C-112.33939155 35.38000758 -108.13456971 32.13955954 -103.63964844 28.92602539 C-103.05836182 28.51006104 -102.4770752 28.09409668 -101.87817383 27.66552734 C-91.11615544 20.11352539 -91.11615544 20.11352539 -87.63964844 20.11352539 C-87.63964844 19.45352539 -87.63964844 18.79352539 -87.63964844 18.11352539 C-70.59396595 9.08658212 -51.86012092 3.14474626 -32.63964844 1.11352539 C-31.82956203 1.02251336 -31.01947563 0.93150133 -30.18484116 0.83773136 C-20.13483661 -0.14842465 -10.08632099 -0.01935286 0 0 Z " fill="#FE151E" transform="translate(3503.6396484375,932.886474609375)"/>
<path d="M0 0 C41.20875 -0.04125 82.4175 -0.0825 124.875 -0.125 C137.8672998 -0.14320801 150.85959961 -0.16141602 164.24560547 -0.18017578 C180.16040039 -0.18920898 180.16040039 -0.18920898 187.62039185 -0.19088745 C192.80961559 -0.19274415 197.99880779 -0.20004481 203.1880188 -0.21115112 C209.824029 -0.22533273 216.45999168 -0.22896706 223.09601998 -0.22614455 C225.52090483 -0.22673406 227.94579192 -0.23065064 230.37066436 -0.23843026 C265.74387977 -0.34656966 265.74387977 -0.34656966 279.375 4.8125 C280.48149902 5.20671143 280.48149902 5.20671143 281.61035156 5.60888672 C283.75042908 6.38145936 285.87627409 7.18369606 288 8 C289.18335937 8.44988281 290.36671875 8.89976562 291.5859375 9.36328125 C296.76358479 11.42794801 301.63973225 13.48756209 306 17 C306 17.66 306 18.32 306 19 C306.8353125 19.0928125 306.8353125 19.0928125 307.6875 19.1875 C310.27819148 20.09774295 311.54700007 21.37931699 313.39453125 23.36328125 C315.42727926 25.43559613 317.61740777 27.28822418 319.8125 29.1875 C338.37436001 45.90692354 348.35005693 69.93395146 349.9375 94.6875 C350.84466007 115.24330952 345.85866854 134.0641061 336 152 C335.46503906 152.97710938 334.93007812 153.95421875 334.37890625 154.9609375 C333.92386719 155.63382813 333.46882813 156.30671875 333 157 C332.34 157 331.68 157 331 157 C330.67 158.32 330.34 159.64 330 161 C329.34 161 328.68 161 328 161 C327.62681641 161.82951172 327.62681641 161.82951172 327.24609375 162.67578125 C325.76982341 165.42932625 324.00376915 167.74012716 322.0625 170.1875 C321.02802734 171.50814453 321.02802734 171.50814453 319.97265625 172.85546875 C318 175 318 175 315 176 C314.195625 176.825 313.39125 177.65 312.5625 178.5 C310.16304524 180.84093148 309.22865886 181.64126013 306 182 C306 182.66 306 183.32 306 184 C305.01 184 304.02 184 303 184 C303 184.66 303 185.32 303 186 C288.39480412 195.15873137 271.11634503 200.20585006 253.8828125 200.09765625 C253.02565643 200.0962413 252.16850037 200.09482635 251.28536987 200.09336853 C248.5652101 200.08780022 245.84513462 200.07525364 243.125 200.0625 C241.27343869 200.0574809 239.42187609 200.05291871 237.5703125 200.04882812 C233.04684285 200.03784117 228.52343568 200.02059852 224 200 C224 200.66 224 201.32 224 202 C224.85271484 202.38865234 224.85271484 202.38865234 225.72265625 202.78515625 C230.25321339 205.20197146 234.0535401 208.7435172 238 212 C238.57153809 212.46776855 239.14307617 212.93553711 239.73193359 213.41748047 C241.5355716 214.89627885 243.3312726 216.3842023 245.125 217.875 C245.70564209 218.35122803 246.28628418 218.82745605 246.88452148 219.31811523 C248.294803 220.50102094 249.65280607 221.74571599 251 223 C251 223.66 251 224.32 251 225 C251.61875 225.0825 252.2375 225.165 252.875 225.25 C255.66938743 226.23625439 255.716952 227.43390399 257 230 C258.32594105 230.36162029 259.65938457 230.69728039 261 231 C261.33 231.99 261.66 232.98 262 234 C262.99 234 263.98 234 265 234 C266.34919532 235.65385233 267.68133728 237.321702 269 239 C270.32467746 239.6837045 271.65863633 240.34964186 273 241 C274.67108165 242.66223995 276.33683595 244.32983806 278 246 C280.17237794 247.95917008 282.39584705 249.85588206 284.625 251.75 C285.24109131 252.27585693 285.85718262 252.80171387 286.49194336 253.34350586 C291.02389886 257.19997776 295.61343896 260.98102503 300.234375 264.73046875 C303.29367866 267.24099901 306.30309097 269.80516757 309.3125 272.375 C313.91591643 276.29967661 318.60483131 280.09246851 323.375 283.8125 C333.28936793 291.55441308 333.28936793 291.55441308 337 295 C337 295.66 337 296.32 337 297 C326.44692627 297.16249022 315.89415215 297.28672077 305.34008026 297.3626852 C300.43883446 297.39915267 295.5384471 297.44858295 290.63769531 297.52807617 C285.90435911 297.60436965 281.17184632 297.64603905 276.4379425 297.6641407 C274.63579857 297.6770332 272.83369761 297.70221046 271.03190613 297.7401104 C255.14473312 298.06087239 255.14473312 298.06087239 249.83007812 293.58227539 C247 290.52166585 247 290.52166585 247 288 C246.443125 287.9175 245.88625 287.835 245.3125 287.75 C242.26322081 286.76104459 240.34810037 285.15242534 238 283 C238 282.34 238 281.68 238 281 C237.360625 280.71125 236.72125 280.4225 236.0625 280.125 C234 279 234 279 233 277 C232.2575 276.566875 231.515 276.13375 230.75 275.6875 C227.65797269 273.79011961 225.49860516 271.62353542 223 269 C219.51672968 265.19792607 219.51672968 265.19792607 215 263 C213.65697334 261.34113444 212.3251201 259.67320419 211 258 C209.20472893 256.43441802 207.36928203 254.91392468 205.5 253.4375 C202.80886481 251.30455357 200.23982085 249.24633773 197.84375 246.78515625 C196.02713089 244.76864617 196.02713089 244.76864617 193 244 C191.65302285 242.34434058 190.32145019 240.6761041 189 239 C187.37129389 237.58023974 185.70141479 236.20676217 184 234.875 C179.85009592 231.55286934 175.88397719 228.12256172 172 224.5 C167.39053293 220.20986124 162.62211689 216.19585018 157.71484375 212.24609375 C154.89326505 209.9116941 152.19409288 207.48009402 149.5 205 C145.92207537 201.70668301 142.28460334 198.55348679 138.5 195.5 C134.71539666 192.44651321 131.07792463 189.29331699 127.5 186 C123.90082652 182.68753166 120.24087503 179.51336588 116.4375 176.4375 C105.32978823 167.44249422 105.32978823 167.44249422 101 163 C101 162.34 101 161.68 101 161 C100.18789062 160.90525391 100.18789062 160.90525391 99.359375 160.80859375 C96.01121803 159.66112936 93.78730251 157.43664264 91.25 155.0625 C90.49009766 154.37897461 90.49009766 154.37897461 89.71484375 153.68164062 C88.43214232 152.50093297 87.21064807 151.25448188 86 150 C86 149.34 86 148.68 86 148 C86.82199953 148.00276538 87.64399906 148.00553076 88.49090767 148.00837994 C108.54096946 148.07478607 128.59101215 148.12435156 148.64116096 148.15543652 C158.33747444 148.17087056 168.03371428 148.19189349 177.72998047 148.22631836 C186.18646162 148.25632714 194.64288941 148.27560013 203.09942234 148.28226548 C207.57236205 148.28615839 212.04514915 148.29523415 216.5180397 148.31719017 C220.73856882 148.33773719 224.95888423 148.34379749 229.17945862 148.33932304 C230.71841981 148.34014018 232.25738907 148.34599641 233.79630661 148.35761642 C249.81298663 148.4724981 267.06592482 146.47704079 279.34375 135.01171875 C289.46718065 122.71557068 293.42739756 108.79760226 292 93 C289.45587095 79.18696037 283.31180859 69.33501685 272 61 C271.01 60.67 270.02 60.34 269 60 C269 59.34 269 58.68 269 58 C267.41701974 57.5196682 265.83360022 57.04078388 264.25 56.5625 C263.36828125 56.29566406 262.4865625 56.02882813 261.578125 55.75390625 C260.30195313 55.38072266 260.30195313 55.38072266 259 55 C258.45178211 54.82271394 257.90356422 54.64542788 257.33873367 54.46276951 C253.90596838 53.78352196 250.4875096 53.84627162 247.00213623 53.84178162 C246.19213165 53.83685196 245.38212708 53.8319223 244.5475769 53.82684326 C241.82175917 53.8114533 239.09596472 53.80310255 236.37011719 53.79467773 C234.38719095 53.78496305 232.40426677 53.77481762 230.42134476 53.76427555 C225.10517915 53.73720479 219.78900528 53.71603936 214.47280884 53.69608307 C209.48657477 53.67647477 204.50037277 53.6515596 199.51416016 53.6270752 C184.92613089 53.55854216 170.33806253 53.49854412 155.75 53.4375 C123.1625 53.293125 90.575 53.14875 57 53 C57 133.52 57 214.04 57 297 C38.19 297 19.38 297 0 297 C0 198.99 0 100.98 0 0 Z " fill="#FE141E" transform="translate(1894,933)"/>
<path d="M0 0 C7.9160558 6.74011998 12.68712718 16.28835449 18.00732422 25.07324219 C21.22768702 30.38502171 24.57619648 35.58314702 28.0546875 40.73046875 C35.59689926 51.95840286 42.79635943 63.41879711 50.05078125 74.83349609 C57.96451882 87.34823077 57.96451882 87.34823077 66.08203125 99.73046875 C68.35229151 103.15539292 70.52353884 106.63245114 72.6875 110.125 C76.39036853 116.07237008 80.1379457 121.98890639 83.9375 127.875 C84.38101807 128.56440674 84.82453613 129.25381348 85.28149414 129.96411133 C87.39699332 133.2312808 89.55717384 136.44568041 91.8359375 139.6015625 C97.125 147.02069113 97.125 147.02069113 97.125 150.8125 C97.785 150.8125 98.445 150.8125 99.125 150.8125 C100.18962361 152.43864709 101.17772786 154.11531018 102.125 155.8125 C108.99418023 166.95607113 115.86840624 178.10212787 123.19921875 188.94921875 C131.00103393 200.54907783 138.3903744 212.41346951 145.77636719 224.28027344 C149.50581968 230.26002667 153.3057375 236.16517683 157.2578125 242 C159.94579384 246.04884219 162.49172585 250.18262169 165.05273438 254.3125 C169.13369216 260.87184767 173.34315762 267.34518402 177.57104492 273.81054688 C179.09397082 276.14136782 180.61122547 278.47572683 182.125 280.8125 C182.61919434 281.57175781 183.11338867 282.33101562 183.62255859 283.11328125 C184.08098145 283.82871094 184.5394043 284.54414062 185.01171875 285.28125 C185.41994873 285.91482422 185.82817871 286.54839844 186.2487793 287.20117188 C187.125 288.8125 187.125 288.8125 187.125 290.8125 C178.64091689 291.04471558 170.15817113 291.22212888 161.67169094 291.33062172 C157.73042124 291.38270868 153.79133254 291.45327866 149.85131836 291.56689453 C146.04504753 291.67596047 142.2408664 291.73542007 138.43315315 291.76127243 C136.98444777 291.77968054 135.53585075 291.81563444 134.08804131 291.86980057 C122.79188615 292.27541437 122.79188615 292.27541437 118.77870178 288.75331116 C116.95218073 286.18737188 115.51573102 283.63498889 114.125 280.8125 C113.3957705 279.63757275 112.65495852 278.46965664 111.89672852 277.31323242 C111.27209717 276.27529541 110.64746582 275.2373584 110.00390625 274.16796875 C109.65545151 273.59146072 109.30699677 273.0149527 108.94798279 272.42097473 C107.85785337 270.61594885 106.77247444 268.80812808 105.6875 267 C104.60503972 265.20323824 103.52155725 263.40709708 102.43772888 261.61116028 C101.45104781 259.97509061 100.46676199 258.33757708 99.48266602 256.69995117 C99.1208297 256.13069664 98.75899338 255.56144211 98.38619232 254.97493744 C97.125 252.8125 97.125 252.8125 95.66977692 249.63864899 C92.27539983 242.69871346 92.27539983 242.69871346 85.95596981 238.64112568 C81.99995653 238.24180961 78.15374893 238.25022859 74.19116211 238.40356445 C72.68414549 238.41375284 71.17707933 238.41804967 69.67002869 238.41693115 C66.43595905 238.42661657 63.20598639 238.4766849 59.97294426 238.55846596 C54.85798832 238.68665992 49.74516376 238.71818326 44.62879944 238.73612976 C34.69464709 238.78394907 24.76301706 238.92708627 14.83005524 239.08242798 C2.18349685 239.27696413 -10.46269444 239.43539624 -23.11066812 239.49370354 C-28.19349099 239.52044329 -33.27223094 239.59788256 -38.35373509 239.71527636 C-41.51710873 239.77871294 -44.67982327 239.80081737 -47.84377098 239.81216431 C-49.30692778 239.82602039 -50.77004186 239.85710491 -52.23241425 239.90697289 C-63.26890581 240.27061856 -63.26890581 240.27061856 -67.24880791 236.65740013 C-69.05362081 234.11392472 -70.48457068 231.59960128 -71.875 228.8125 C-72.73524362 227.47048282 -73.60948652 226.13714188 -74.5078125 224.8203125 C-75.34039496 223.52723308 -76.17108394 222.23293279 -77 220.9375 C-77.93855573 219.4790081 -78.8773698 218.02068243 -79.81640625 216.5625 C-80.30641113 215.80066406 -80.79641602 215.03882813 -81.30126953 214.25390625 C-84.16767996 209.80710137 -87.05325988 205.3727525 -89.9375 200.9375 C-90.49775879 200.07527832 -91.05801758 199.21305664 -91.63525391 198.32470703 C-93.70233368 195.14492667 -95.7712162 191.9681757 -97.875 188.8125 C-97.875 187.8225 -97.875 186.8325 -97.875 185.8125 C-48.375 185.8125 1.125 185.8125 52.125 185.8125 C48.85609106 179.16967503 48.85609106 179.16967503 44.9375 173.25 C42.16297048 169.37381905 39.61482675 165.41232443 37.1875 161.3125 C32.93982553 154.14732643 28.61145318 147.03402414 24.25 139.9375 C23.90267822 139.37235687 23.55535645 138.80721375 23.19750977 138.22494507 C18.51456938 130.61217552 13.7460862 123.06547445 8.85375977 115.5859375 C5.64559323 110.66541435 2.60063578 105.66462164 -0.39453125 100.61230469 C-3.44849915 95.47829329 -6.61520307 90.42080542 -9.8125 85.375 C-10.31547607 84.57980957 -10.81845215 83.78461914 -11.33666992 82.96533203 C-13.83429207 79.02036576 -16.34232467 75.0824376 -18.86328125 71.15234375 C-19.78397774 69.70580781 -20.7045564 68.25919687 -21.625 66.8125 C-22.05546631 66.14806885 -22.48593262 65.4836377 -22.92944336 64.79907227 C-25.875 60.15188224 -25.875 60.15188224 -25.875 56.8125 C-28.12424884 58.92342167 -29.78178016 61.04595442 -31.40625 63.6640625 C-31.88126953 64.42396484 -32.35628906 65.18386719 -32.84570312 65.96679688 C-33.35037109 66.78212891 -33.85503906 67.59746094 -34.375 68.4375 C-35.45751294 70.16978377 -36.54086286 71.90154476 -37.625 73.6328125 C-38.17027344 74.50454102 -38.71554688 75.37626953 -39.27734375 76.27441406 C-41.60794514 79.97687923 -43.98843569 83.64595652 -46.375 87.3125 C-54.39434657 99.66513808 -62.29521779 112.0809224 -69.80004883 124.75366211 C-71.80237174 128.10845115 -73.89530242 131.33720815 -76.1875 134.5 C-80.20467521 140.08146694 -83.60973433 146.01066861 -87.10717773 151.92431641 C-90.64652614 157.86821824 -94.36690508 163.65055669 -98.25 169.375 C-102.5271432 175.6804012 -106.45077789 181.99409282 -109.875 188.8125 C-110.535 188.8125 -111.195 188.8125 -111.875 188.8125 C-112.28552612 189.90425537 -112.28552612 189.90425537 -112.7043457 191.01806641 C-113.82579616 193.69504699 -115.1001062 196.04570917 -116.60546875 198.5234375 C-117.42748779 199.87840332 -117.42748779 199.87840332 -118.26611328 201.26074219 C-118.8589209 202.22657227 -119.45172852 203.19240234 -120.0625 204.1875 C-120.68108887 205.19973633 -121.29967773 206.21197266 -121.93701172 207.25488281 C-127.54592417 216.37976678 -133.38632866 225.34488524 -139.265625 234.296875 C-146.61650592 245.4993357 -153.74306526 256.83267373 -160.56591797 268.36401367 C-164.13166458 274.34092304 -168.00445698 280.10222355 -171.90625 285.86328125 C-173.81761337 288.5938592 -173.81761337 288.5938592 -174.875 290.8125 C-196.985 290.8125 -219.095 290.8125 -241.875 290.8125 C-239.68014945 285.32537362 -236.903842 280.55402291 -233.875 275.5 C-233.3284375 274.56865234 -232.781875 273.63730469 -232.21875 272.67773438 C-231.6928125 271.79794922 -231.166875 270.91816406 -230.625 270.01171875 C-230.14546875 269.20565186 -229.6659375 268.39958496 -229.171875 267.5690918 C-228.74390625 266.9894165 -228.3159375 266.40974121 -227.875 265.8125 C-227.215 265.8125 -226.555 265.8125 -225.875 265.8125 C-225.875 264.8225 -225.875 263.8325 -225.875 262.8125 C-225.215 262.8125 -224.555 262.8125 -223.875 262.8125 C-223.61203125 262.09964844 -223.3490625 261.38679688 -223.078125 260.65234375 C-221.81965866 257.68187288 -220.33317187 255.1117884 -218.625 252.375 C-218.28927979 251.83641357 -217.95355957 251.29782715 -217.60766602 250.74291992 C-216.36907509 248.76252514 -215.12229686 246.78742333 -213.875 244.8125 C-213.33665527 243.95720703 -212.79831055 243.10191406 -212.24365234 242.22070312 C-210.43709815 239.35302973 -208.625681 236.48848752 -206.8125 233.625 C-206.23532227 232.71113525 -205.65814453 231.79727051 -205.06347656 230.85571289 C-202.20168438 226.35426782 -199.27773097 221.92533629 -196.19140625 217.57421875 C-193.4887257 213.75544236 -191.15528025 209.89424906 -188.875 205.8125 C-187.22459238 203.18396984 -185.51715842 200.59357945 -183.8125 198 C-179.86865998 191.95947701 -176.04439347 185.86103643 -172.3125 179.6875 C-168.18249104 172.86864129 -163.86863935 166.20773035 -159.4140625 159.59765625 C-152.62074575 149.50859827 -146.10840583 139.24487221 -139.7734375 128.86328125 C-137.20705316 124.73911217 -134.50285762 120.71435688 -131.79296875 116.68359375 C-128.73850736 112.11123301 -125.80838718 107.4631292 -122.875 102.8125 C-121.95718527 101.3618817 -121.03920288 99.91136948 -120.12109375 98.4609375 C-114.09322241 88.94058546 -114.09322241 88.94058546 -108.125 79.3828125 C-107.6916333 78.68438232 -107.2582666 77.98595215 -106.81176758 77.26635742 C-106.01740542 75.98423175 -105.22531454 74.70069397 -104.4362793 73.4152832 C-102.2421037 69.87521812 -99.93198013 66.44914051 -97.5234375 63.05078125 C-93.73781095 57.68293476 -90.26388714 52.14918473 -86.8125 46.5625 C-85.49651127 44.45026065 -84.18009483 42.33828772 -82.86328125 40.2265625 C-80.89292281 37.06113154 -78.92539225 33.89410219 -76.96630859 30.72167969 C-60.09132808 3.41883796 -60.09132808 3.41883796 -46.875 -4.1875 C-45.92625 -4.765 -44.9775 -5.3425 -44 -5.9375 C-29.17181541 -11.86877384 -12.90532243 -9.26816874 0 0 Z " fill="#FE141E" transform="translate(2487.875,939.1875)"/>
<path d="M0 0 C2.06203709 0.00056592 4.12407459 0.00024404 6.18611145 -0.00088501 C11.71577892 -0.00145247 17.24535738 0.01020213 22.77500439 0.02426291 C28.57918519 0.03687283 34.38336865 0.03794877 40.18756104 0.04031372 C51.14815626 0.04649862 62.10871099 0.06286843 73.06928849 0.0830127 C85.56044003 0.10546546 98.05159363 0.11638858 110.54276037 0.12640357 C136.20984436 0.14723772 161.87689255 0.18235476 187.54394531 0.22705078 C186.00306587 4.26820919 184.1467822 7.40034152 181.60644531 10.91455078 C177.443633 16.77761867 173.65196524 22.81886174 169.96606445 28.99145508 C169.09999736 30.43366772 168.19046893 31.85037031 167.24693298 33.24313354 C165.81448703 35.75301677 165.06540023 37.67404779 164.23742676 40.38670349 C162.17656308 45.92692141 159.65897577 50.0712369 154.54394531 53.22705078 C142.62954726 56.37532585 129.64849859 55.2968143 117.43928289 55.02095056 C112.44930667 54.92736733 107.45948749 54.93416346 102.46878052 54.93095398 C93.01076518 54.91051265 83.55567929 54.80711223 74.09869778 54.67058963 C60.2644233 54.47390838 46.42937335 54.38711623 32.59393501 54.31814098 C31.57358693 54.31302999 30.55323885 54.307919 29.50197113 54.30265313 C27.46499567 54.29252741 25.42801891 54.28266063 23.39104092 54.27305955 C17.4717404 54.24217416 11.55365316 54.18243801 5.63489985 54.09664118 C1.93142308 54.04572615 -1.77210529 54.01102384 -5.47579002 53.97920609 C-7.17484125 53.96079511 -8.87383532 53.93530585 -10.57265282 53.90164375 C-22.8161644 53.6628187 -34.73338465 54.60973121 -46.18507576 59.35878468 C-48.45605469 60.22705078 -48.45605469 60.22705078 -52.45605469 60.22705078 C-52.45605469 60.88705078 -52.45605469 61.54705078 -52.45605469 62.22705078 C-53.16632812 62.40880859 -53.87660156 62.59056641 -54.60839844 62.77783203 C-55.5275 63.02919922 -56.44660156 63.28056641 -57.39355469 63.53955078 C-58.31007813 63.78318359 -59.22660156 64.02681641 -60.17089844 64.27783203 C-60.925 64.59107422 -61.67910156 64.90431641 -62.45605469 65.22705078 C-62.95105469 66.71205078 -62.95105469 66.71205078 -63.45605469 68.22705078 C-65.10605469 68.55705078 -66.75605469 68.88705078 -68.45605469 69.22705078 C-68.45605469 69.88705078 -68.45605469 70.54705078 -68.45605469 71.22705078 C-70.03808594 72.56689453 -70.03808594 72.56689453 -72.26855469 74.16455078 C-81.90195663 81.49200454 -89.58875632 89.61973591 -95.45605469 100.22705078 C-95.78734375 100.8002002 -96.11863281 101.37334961 -96.45996094 101.96386719 C-108.16486169 122.36645942 -110.18703499 145.25581736 -106.45605469 168.22705078 C-106.34696777 168.90912598 -106.23788086 169.59120117 -106.12548828 170.29394531 C-103.29564564 186.68461804 -94.6451294 201.10223494 -83.45605469 213.22705078 C-82.43125 214.38914062 -82.43125 214.38914062 -81.38574219 215.57470703 C-73.17707605 224.40432393 -62.86071516 230.25955308 -52.14355469 235.53955078 C-51.52996094 235.85287354 -50.91636719 236.16619629 -50.28417969 236.48901367 C-35.67875277 243.36377637 -20.23963966 243.81582144 -4.42260742 243.77294922 C-2.26248436 243.78170379 -0.10236777 243.79219606 2.05773926 243.80427551 C7.8685832 243.83192535 13.67921336 243.83554487 19.4901135 243.83455563 C25.58264427 243.83770293 31.6750813 243.86335869 37.76756287 243.88653564 C49.2807265 243.92696065 60.7938337 243.94740453 72.30705732 243.96050954 C85.42454381 243.97642547 98.54193487 244.01486032 111.65936577 244.05510283 C138.62086018 244.13731692 165.58235179 244.19152435 192.54394531 244.22705078 C191.43604105 246.1359872 190.32691698 248.0442157 189.21728516 249.95214844 C188.59977386 251.01486969 187.98226257 252.07759094 187.34603882 253.17251587 C185.05649058 257.05328287 182.64320755 260.83743255 180.16894531 264.60205078 C179.22076707 266.05500512 178.27285462 267.50813293 177.32519531 268.96142578 C176.85984375 269.67363281 176.39449219 270.38583984 175.91503906 271.11962891 C174.20127091 273.75375404 172.50963879 276.401631 170.81884766 279.05053711 C168.14686513 283.23664306 165.47533747 287.40273123 162.54394531 291.41455078 C160.4203989 294.11090164 160.4203989 294.11090164 159.54394531 297.22705078 C136.28990026 297.27393542 113.0358631 297.30911986 89.78178024 297.33067513 C78.98259646 297.34095314 68.18344218 297.35494638 57.38427734 297.37792969 C47.96307804 297.39797064 38.54190012 297.41079242 29.12068009 297.41522777 C24.14009593 297.41781716 19.1595729 297.42382942 14.17900848 297.43851089 C9.47423669 297.45226472 4.7695502 297.45623819 0.06476021 297.45326614 C-1.64582981 297.45380847 -3.35642322 297.45767845 -5.06699562 297.46546173 C-20.63033795 297.53269674 -36.68928009 297.10815567 -51.76855469 292.91455078 C-52.58557861 292.69871338 -53.40260254 292.48287598 -54.24438477 292.26049805 C-64.95401686 289.3737174 -75.41610615 285.98281588 -85.45605469 281.22705078 C-85.45605469 280.56705078 -85.45605469 279.90705078 -85.45605469 279.22705078 C-86.04378662 279.10265625 -86.63151855 278.97826172 -87.23706055 278.85009766 C-89.44300791 278.23071404 -91.01644584 277.45397743 -92.95996094 276.25830078 C-93.6123877 275.85708008 -94.26481445 275.45585938 -94.93701172 275.04248047 C-126.28720047 255.23074965 -152.51738579 223.99380613 -161.16308594 187.21972656 C-166.00427654 163.78227545 -166.34985661 141.7938234 -162.45605469 118.22705078 C-162.34390625 117.53417969 -162.23175781 116.84130859 -162.11621094 116.12744141 C-160.52050201 106.62213824 -157.38336021 97.97111355 -153.45605469 89.22705078 C-153.02897217 88.26412109 -153.02897217 88.26412109 -152.59326172 87.28173828 C-145.02324635 70.47622047 -134.29465411 56.34761066 -121.45605469 43.22705078 C-120.8334375 42.55416016 -120.21082031 41.88126953 -119.56933594 41.18798828 C-109.71211002 30.73407799 -96.83068772 23.3022647 -84.45605469 16.22705078 C-83.5547583 15.70449707 -83.5547583 15.70449707 -82.63525391 15.17138672 C-74.13437538 10.36236057 -65.16984899 7.84223957 -55.76855469 5.41455078 C-54.65947754 5.12418945 -53.55040039 4.83382812 -52.40771484 4.53466797 C-35.18302884 0.34534735 -17.64236582 -0.0690989 0 0 Z " fill="#FE141E" transform="translate(2811.4560546875,932.77294921875)"/>
<path d="M0 0 C7.28421548 -0.02312916 14.5684231 -0.04091801 21.85266781 -0.05181217 C25.23471813 -0.05703975 28.6167434 -0.06413511 31.9987793 -0.07543945 C35.88329777 -0.08834267 39.76780597 -0.09322924 43.65234375 -0.09765625 C44.87211411 -0.10281754 46.09188446 -0.10797882 47.34861755 -0.11329651 C49.03024742 -0.11340981 49.03024742 -0.11340981 50.74584961 -0.11352539 C51.73846298 -0.115746 52.73107635 -0.11796661 53.75376892 -0.12025452 C56 0 56 0 57 1 C57.09805926 4.12238709 57.1299069 7.22268599 57.12025452 10.34547424 C57.12111053 11.33622452 57.12196655 12.32697479 57.12284851 13.3477478 C57.12451443 16.70523837 57.11896275 20.06267995 57.11352539 23.42016602 C57.11321932 25.85327878 57.1133521 28.28639163 57.11389065 30.71950436 C57.11409422 36.59552183 57.10979408 42.47152561 57.10338932 48.34753862 C57.09620589 55.14050722 57.09539548 61.93346812 57.09460449 68.72644043 C57.0893483 86.67179604 57.07538727 104.61714825 57.0625 122.5625 C57.041875 162.636875 57.02125 202.71125 57 244 C144.45 244 231.9 244 322 244 C321.34 245.98 320.68 247.96 320 250 C319.34 250 318.68 250 318 250 C318 250.99 318 251.98 318 253 C317.34 253 316.68 253 316 253 C316 253.99 316 254.98 316 256 C315.34 256 314.68 256 314 256 C313.76023437 256.85207031 313.52046875 257.70414063 313.2734375 258.58203125 C311.86652698 262.35824814 309.91540703 265.41293719 307.625 268.6875 C302.85682167 275.65726843 298.32515002 282.75697782 293.84814453 289.91674805 C293.11700439 291.08330933 293.11700439 291.08330933 292.37109375 292.2734375 C291.93724365 292.96872559 291.50339355 293.66401367 291.05639648 294.38037109 C290 296 290 296 289 297 C287.61239819 297.09826912 286.21982814 297.12738942 284.82875156 297.12863445 C283.92376126 297.1318589 283.01877095 297.13508335 282.0863567 297.1384055 C281.08055323 297.1368569 280.07474977 297.1353083 279.03846741 297.13371277 C277.44905851 297.1371111 277.44905851 297.1371111 275.82754034 297.14057809 C272.24707662 297.14695054 268.66665043 297.14608664 265.08618164 297.14526367 C262.53086294 297.14825328 259.97554469 297.15165534 257.42022705 297.15544128 C251.17988807 297.16338607 244.93956304 297.16649702 238.69921947 297.16705366 C233.62447968 297.1675283 228.549743 297.16958046 223.4750042 297.17275429 C209.08847247 297.18156865 194.70194822 297.18617286 180.31541378 297.18542381 C179.53900057 297.18538386 178.76258737 297.1853439 177.96264648 297.18530273 C177.18528463 297.18526185 176.40792279 297.18522097 175.60700452 297.18517885 C163.0267171 297.18477297 150.4464597 297.19432597 137.86618096 297.2084411 C124.95005714 297.22281855 112.03394794 297.22971042 99.11781591 297.22884732 C91.86615479 297.22851565 84.61452508 297.23124921 77.36287117 297.24202538 C70.53641286 297.25210435 63.71002178 297.2517809 56.88356018 297.24450874 C54.38023214 297.2434635 51.87689998 297.24582219 49.37357903 297.2518692 C45.95043688 297.25960102 42.52752271 297.25493611 39.10438538 297.24723816 C37.62579492 297.2549535 37.62579492 297.2549535 36.11733395 297.26282471 C27.54416118 297.22036056 19.53619422 296.36305981 12 292 C12 291.34 12 290.68 12 290 C11.10667969 289.88398437 11.10667969 289.88398437 10.1953125 289.765625 C7.25850513 288.74140037 6.52168431 287.35365791 4.875 284.75 C4.37742187 283.98171875 3.87984375 283.2134375 3.3671875 282.421875 C1.03155426 278.28446754 -0.25044631 274.86482633 -0.24609566 270.08998394 C-0.25007775 269.12209491 -0.25405985 268.15420589 -0.25816262 267.15698689 C-0.24942409 265.57381703 -0.24942409 265.57381703 -0.24050903 263.95866394 C-0.24221788 262.83141492 -0.24392673 261.70416589 -0.24568737 260.54275781 C-0.24898696 256.75785176 -0.23797065 252.97312219 -0.22705078 249.18823242 C-0.22537357 246.47816861 -0.22671492 243.76810828 -0.22793579 241.05804443 C-0.22898431 235.21950128 -0.22271118 229.38100284 -0.21146011 223.54247093 C-0.19520357 215.10094866 -0.18999695 206.65944799 -0.18748413 198.21791176 C-0.18310727 184.52197123 -0.16979841 170.82605454 -0.15087891 157.13012695 C-0.13251988 143.82609171 -0.11836348 130.52206293 -0.10986328 117.21801758 C-0.10933783 116.39790741 -0.10881239 115.57779725 -0.10827102 114.73283526 C-0.10566094 110.61856887 -0.10313352 106.50430245 -0.10064721 102.39003599 C-0.07991499 68.26000684 -0.0446897 34.13000599 0 0 Z " fill="#FE141E" transform="translate(3030,933)"/>
</svg>
