<?xml version="1.0" encoding="UTF-8"?>
<svg version="1.1" xmlns="http://www.w3.org/2000/svg" width="2400" height="1800">
<path d="M0 0 C4.26217383 3.75635165 6.96203486 8.03004483 9.44140625 13.08984375 C9.78023331 13.77542358 10.11906036 14.46100342 10.46815491 15.1673584 C15.67333526 25.88494734 20.19327253 36.91940882 24.8203125 47.89453125 C25.84423179 50.31262819 26.86865237 52.73051291 27.89355469 55.14819336 C29.94241327 59.98300801 31.98870394 64.81889569 34.03271484 69.65576172 C36.51221007 75.52145099 39.00075961 81.38322088 41.49609375 87.2421875 C41.84627563 88.06448853 42.19645752 88.88678955 42.55725098 89.73400879 C43.24472605 91.34832959 43.93220562 92.96264847 44.61968994 94.57696533 C59.47416814 129.4736686 74.17405266 164.43623005 88.8828125 199.39453125 C93.61606726 190.57088141 97.37526453 181.32387457 101.23565674 172.0977478 C103.33900219 167.07137938 105.45375592 162.04980646 107.56640625 157.02734375 C108.00416382 155.98573593 108.44192139 154.94412811 108.89294434 153.87095642 C114.38958676 140.79755655 119.95090497 127.75173379 125.51293945 114.70605469 C126.34201663 112.761092 127.17103709 110.81610514 128 108.87109375 C128.60973915 107.4405365 128.60973915 107.4405365 129.23179626 105.9810791 C131.65650705 100.28770961 134.06901073 94.58935811 136.47006226 88.88597107 C137.99507327 85.2635282 139.52362618 81.64258389 141.05218506 78.02163696 C141.75645536 76.35022315 142.45889827 74.6780378 143.15924072 73.00497437 C151.27780883 53.61222418 159.95030027 35.38554079 173.8828125 19.39453125 C174.42292969 18.76933594 174.96304688 18.14414062 175.51953125 17.5 C193.39378581 -1.72495389 219.04734289 -9.39368175 244.54296875 -10.80859375 C275.01290766 -11.22838625 301.54626794 0.93194204 323.74609375 21.30859375 C326.36145862 23.86180187 328.65575019 26.49935025 330.8828125 29.39453125 C332.460625 28.21890625 332.460625 28.21890625 334.0703125 27.01953125 C335.1840625 26.19195313 335.1840625 26.19195313 336.3203125 25.34765625 C338.09547746 23.99463418 339.8441724 22.60643971 341.5703125 21.19140625 C370.4271232 -2.10445655 404.88869006 -13.75424089 441.8828125 -9.85546875 C470.91588799 -6.41585752 496.24853056 5.3796767 514.8828125 28.39453125 C519.08417822 26.65351866 522.24270758 23.71172846 525.6953125 20.83203125 C553.34146695 -1.6845713 588.63795011 -13.36034726 624.32226562 -10.40332031 C653.75292822 -7.214798 680.40174778 6.1096381 699.8125 28.703125 C716.46248956 50.34811142 722.54408828 73.92512053 722.38452148 100.89428711 C722.38831738 102.75937302 722.39382777 104.62445609 722.40089417 106.48953247 C722.41469378 111.49124291 722.40379265 116.49260342 722.38718295 121.49429393 C722.37319469 126.75902027 722.3798075 132.02372912 722.38331604 137.28846741 C722.38600572 146.11660315 722.37264442 154.94460194 722.34936523 163.77270508 C722.32270558 173.95272629 722.32103142 184.13251962 722.3327536 194.31256384 C722.34355813 204.15142962 722.33732704 213.99021365 722.32319832 223.82907295 C722.31746752 227.99743159 722.31749803 232.16572983 722.32226372 236.33408928 C722.32706099 241.2435369 722.31681872 246.15273699 722.29530907 251.0621376 C722.28978046 252.85510613 722.28923944 254.64809863 722.29426193 256.44106865 C722.33764232 274.1579808 719.83651121 288.88085806 707.20703125 302.19921875 C697.73831112 311.14278298 685.83901223 313.76311045 673.1015625 313.60546875 C662.26179305 312.89509551 653.33063957 309.09947281 645.1328125 302.01953125 C644.3903125 301.15328125 643.6478125 300.28703125 642.8828125 299.39453125 C642.40328125 298.85570312 641.92375 298.316875 641.4296875 297.76171875 C634.17533045 289.00519686 630.76916365 277.94778779 630.74478149 266.69935608 C630.74196021 266.03934284 630.73913893 265.3793296 630.73623216 264.69931597 C630.72792133 262.49492583 630.7265509 260.29058614 630.72509766 258.08618164 C630.72042658 256.50226705 630.71528254 254.91835379 630.70970154 253.33444214 C630.69843551 249.92524911 630.68999387 246.51606476 630.68358231 243.10685921 C630.67287368 237.70478722 630.65261875 232.30277723 630.63046265 226.90074158 C630.56864255 211.53956971 630.51462759 196.17840107 630.48144531 180.81713867 C630.46303537 172.3316292 630.43401695 163.84622337 630.3934406 155.36079019 C630.37247107 150.87678769 630.35692776 146.39291526 630.35463333 141.90886116 C630.35246826 137.68245882 630.33641196 133.45632689 630.31024361 129.23000717 C630.30311837 127.68945627 630.3009162 126.14887235 630.30434608 124.60830879 C630.3336761 108.9128548 628.6187593 93.87158177 617.8828125 81.64453125 C607.6772937 72.29510454 594.39936541 68.95634155 580.8828125 69.51953125 C566.90097792 70.86067746 555.77879246 76.15234232 546.67578125 86.890625 C541.16214067 94.59050215 538.7699934 102.46577713 538.73805237 111.84846497 C538.72770462 113.80562439 538.72770462 113.80562439 538.71714783 115.80232239 C538.71443336 117.24166856 538.71179618 118.68101488 538.70922852 120.12036133 C538.70291918 121.64191882 538.69615296 123.16347448 538.68896484 124.68502808 C538.67431311 127.95998055 538.6625804 131.234926 538.65301704 134.50989723 C538.63751664 139.70248839 538.61356298 144.89501947 538.58811951 150.08757019 C538.51705894 164.85318182 538.45736324 179.61882866 538.40600586 194.38452148 C538.37756087 202.54115241 538.34209856 210.69772428 538.29935211 218.85429305 C538.27279711 224.0005543 538.25475857 229.14674881 538.24331486 234.29306471 C538.23408663 237.51916848 538.21667772 240.74519242 538.19713593 243.97124863 C538.18976042 245.4496845 538.18558554 246.92814102 538.18514061 248.40659523 C538.17431987 268.32787106 536.61393415 286.67510279 522.7578125 302.08203125 C513.24672206 311.11021864 500.68113656 313.91786011 487.9609375 313.640625 C475.92264289 312.67817251 465.66109812 308.12087069 457.40625 299.2265625 C449.21156403 289.37192732 445.7722819 277.27067626 445.74478149 264.56564331 C445.74196021 263.90336452 445.73913893 263.24108572 445.73623216 262.55873787 C445.72793919 260.35278582 445.72655247 258.1468843 445.72509766 255.94091797 C445.72042541 254.35361084 445.71528117 252.76630505 445.70970154 251.17900085 C445.69844604 247.7660014 445.6899995 244.35301055 445.68358231 240.93999863 C445.67286787 235.53419531 445.65261283 230.12845382 445.63046265 224.72268677 C445.56865744 209.3522628 445.51458781 193.98184262 445.48144531 178.61132812 C445.463052 170.1181396 445.43405711 161.62505495 445.3934406 153.13194287 C445.37244934 148.64354757 445.35692456 144.15528274 445.35463333 139.66683578 C445.35247283 135.43960518 445.33646188 131.21264613 445.31024361 126.98549843 C445.30310222 125.44249409 445.30092429 123.89945666 445.30434608 122.35643959 C445.33243375 107.27018361 443.36689288 92.98763568 432.6953125 81.58203125 C423.61785869 73.11670837 412.40942015 69.61316222 400.07421875 69.296875 C385.81418327 69.89530024 373.44466224 74.05378878 363.5703125 84.70703125 C354.58383672 96.06104881 353.58479763 107.96931929 353.59570312 121.89160156 C353.58967151 123.45950168 353.5827454 125.02739857 353.57499695 126.59529114 C353.56015742 129.96024773 353.5513711 133.32514549 353.54728699 136.69013214 C353.54054372 142.02051142 353.51875337 147.35076566 353.49475098 152.68109131 C353.44587337 164.00220855 353.41351333 175.32335234 353.3828125 186.64453125 C353.34966998 198.8552378 353.31358882 211.06589511 353.25868177 223.27652621 C353.23546014 228.56524406 353.22162403 233.85387496 353.21518707 239.14263868 C353.20920868 242.44611225 353.19507802 245.74951617 353.17884254 249.05295372 C353.1730137 250.57338993 353.1704844 252.09384333 353.17168236 253.61429024 C353.18056171 269.39125902 351.69424909 284.41811511 341.8828125 297.39453125 C340.99335937 298.59916016 340.99335937 298.59916016 340.0859375 299.828125 C333.24991706 307.79136158 322.99156575 311.65637458 312.8828125 313.39453125 C299.33585243 314.41694333 286.78560717 311.47554448 276.2578125 302.76953125 C266.46054913 293.61305275 262.46738808 281.47581578 260.8828125 268.39453125 C260.79315289 265.71380328 260.74494835 263.05981488 260.75151062 260.37998962 C260.74833705 259.21355583 260.74833705 259.21355583 260.74509937 258.02355772 C260.73913667 255.43357811 260.74009682 252.84364773 260.7409668 250.25366211 C260.73793294 248.39046649 260.73441085 246.52727161 260.73043823 244.66407776 C260.72256821 240.65958004 260.71741157 236.65509115 260.71414757 232.65058708 C260.70822492 226.31802026 260.69167421 219.98550925 260.67280579 213.65296936 C260.6664691 211.48316482 260.66014347 209.31336025 260.65382862 207.14355564 C260.65066281 206.05722155 260.647497 204.97088745 260.64423525 203.85163414 C260.60217993 189.1142339 260.56916388 174.37686061 260.55688477 159.6394043 C260.54850978 149.68974368 260.52604453 139.74022231 260.4875291 129.79063135 C260.46775854 124.52775805 260.45536744 119.26509293 260.46036339 114.0021801 C260.46500291 109.05509436 260.45124253 104.10840396 260.42335129 99.16139793 C260.41642927 97.34657336 260.4163238 95.531708 260.42355156 93.71688461 C260.43242642 91.23814819 260.41676973 88.76071946 260.39506531 86.28208923 C260.40350784 85.56506094 260.41195038 84.84803265 260.42064875 84.10927624 C260.33963373 79.10160864 258.98992704 76.27283965 255.8828125 72.39453125 C252.87376265 70.0302778 249.7385303 70.12837684 245.98046875 70.03125 C243.01475112 70.5448659 241.32198646 71.6132363 238.8828125 73.39453125 C236.97583082 76.37835092 236.97583082 76.37835092 235.421875 79.96484375 C234.96143799 80.95479088 234.96143799 80.95479088 234.49169922 81.96473694 C233.48275468 84.14338859 232.49534279 86.33110003 231.5078125 88.51953125 C230.79861639 90.06218152 230.08814615 91.60424662 229.37646484 93.14575195 C227.54551001 97.12176655 225.73269448 101.10574615 223.92626953 105.09295654 C222.63615783 107.93858254 221.3394265 110.7811597 220.04237366 113.62362671 C217.91121127 118.29467247 215.78468195 122.9677847 213.66821289 127.64550781 C208.81208997 138.37750372 203.88964724 149.07791652 198.9453125 159.76953125 C193.22938927 172.13168993 187.53712389 184.50406977 181.8828125 196.89453125 C173.59308339 215.05236718 165.26496212 233.1923272 156.8572998 251.29589844 C156.23192458 252.64269172 155.60696899 253.98967998 154.98254395 255.33691406 C143.95977317 279.11680211 143.95977317 279.11680211 137.8828125 287.39453125 C137.24859375 288.25949219 136.614375 289.12445312 135.9609375 290.015625 C125.4659753 303.70382183 113.14814044 311.08478838 95.8828125 313.39453125 C80.8928053 314.67786124 65.56926102 311.52713839 53.71484375 301.91015625 C47.37779071 296.47965386 42.18055292 290.56385607 37.8828125 283.39453125 C37.54668945 282.84667969 37.21056641 282.29882812 36.86425781 281.734375 C28.67950312 268.26044995 22.48982923 253.79201217 16.05738831 239.43440247 C11.93735056 230.25729976 7.68712126 221.14079584 3.4453125 212.01953125 C-2.46955049 199.2875305 -8.35385611 186.54252194 -14.1796875 173.76953125 C-19.75495845 161.54776738 -25.35986678 149.34011475 -30.9921875 137.14453125 C-31.36541138 136.3362085 -31.73863525 135.52788574 -32.12316895 134.69506836 C-35.95459672 126.39742983 -39.78949642 118.10140629 -43.62934875 109.80766296 C-47.77704784 100.84854434 -51.91478223 91.88492489 -56.03808594 82.91455078 C-57.39464455 79.96339234 -58.75473444 77.01390798 -60.11816406 74.06591797 C-61.66007342 70.73028653 -63.19138543 67.38999296 -64.71444702 64.04571533 C-65.51875398 62.28566397 -66.33300215 60.53016575 -67.14770508 58.77490234 C-73.75937262 44.17702768 -76.25534333 31.78844613 -71.1171875 16.39453125 C-66.12654865 4.97977217 -58.11214471 -2.7545027 -46.6171875 -7.67578125 C-29.86564897 -13.50486391 -14.0474927 -10.65225 0 0 Z " fill="#000000" transform="translate(223.1171875,748.60546875)"/>
<path d="M0 0 C13.86829116 10.55265373 17.51764732 35.23070169 22.94701385 51.09171295 C24.83341213 56.59949677 26.72575075 62.10524533 28.61746216 67.61120605 C29.09129151 68.99035121 29.56504637 70.36952195 30.03872681 71.74871826 C34.01262454 83.31849414 38.02895071 94.87295895 42.07421875 106.41796875 C48.8070305 125.64089652 55.41101906 144.90757283 62.01389694 164.17539597 C70.14918652 187.91417601 78.35163737 211.62783024 86.69921875 235.29296875 C95.84649111 209.12399358 104.94596392 182.93879996 114.00834656 156.74031067 C114.57655876 155.09768501 114.57655876 155.09768501 115.15625 153.421875 C115.53453445 152.32828171 115.91281891 151.23468842 116.30256653 150.10795593 C120.98001225 136.58779579 125.66989181 123.07195134 130.36132812 109.55664062 C131.06120317 107.54036641 131.76107296 105.52409036 132.4609375 103.5078125 C132.80720184 102.51026947 133.15346619 101.51272644 133.51022339 100.48495483 C136.06220512 93.13173829 138.60986844 85.77703248 141.15625 78.421875 C144.36757863 69.14643253 147.58495704 59.87311586 150.81039429 50.60256958 C152.63664357 45.35319265 154.45714386 40.10189491 156.27130127 34.84832764 C157.28160506 31.92839456 158.29889606 29.01093886 159.31866455 26.09429932 C159.98555045 24.18056291 160.6440715 22.26391783 161.30224609 20.34716797 C163.79716791 13.24482838 166.27206042 7.45220873 171.63671875 2.04296875 C172.33087891 1.32367187 172.33087891 1.32367187 173.0390625 0.58984375 C179.25214409 -4.2636694 188.2194332 -3.6101866 195.69921875 -2.70703125 C203.42525594 -0.58557787 207.49455406 3.68357881 211.69921875 10.29296875 C213.29269148 13.73018053 214.4867692 17.25850048 215.66796875 20.85546875 C216.02096039 21.88966949 216.37395203 22.92387024 216.73764038 23.9894104 C217.90502788 27.41950764 219.0518725 30.85612136 220.19921875 34.29296875 C221.0298968 36.74449206 221.86212602 39.19549024 222.69580078 41.64599609 C224.23797575 46.18182773 225.77516509 50.7192924 227.30620766 55.25889397 C230.20618733 63.85633977 233.14296539 72.44074824 236.09765625 81.01953125 C236.43420259 81.99683543 236.43420259 81.99683543 236.77754784 82.99388313 C237.68845315 85.63883635 238.59953858 88.28372739 239.51095104 90.9285059 C241.82353625 97.63953452 244.1301185 104.35262141 246.43619347 111.06588936 C247.5963997 114.44325409 248.75695242 117.82049975 249.91748047 121.19775391 C250.14707931 121.8659229 250.37667814 122.53409189 250.61323452 123.22250843 C251.30855512 125.24599777 252.00388546 127.26948377 252.69921875 129.29296875 C252.92870461 129.96080132 253.15819046 130.62863388 253.39463043 131.3167038 C267.37943142 172.02446385 267.37943142 172.02446385 281.46096802 212.69882202 C282.11383396 214.57774451 282.76576815 216.45699103 283.41671753 218.33657837 C284.29447659 220.86992507 285.17592638 223.40195379 286.05859375 225.93359375 C286.31477982 226.67508163 286.57096588 227.41656952 286.83491516 228.18052673 C287.81347549 231.49525614 287.81347549 231.49525614 289.69921875 234.29296875 C297.03736672 213.34271884 304.36659777 192.38940967 311.67318726 171.4281311 C315.6798644 159.934778 319.69486271 148.44437106 323.71875 136.95703125 C324.37204788 135.09187614 324.37204788 135.09187614 325.0385437 133.18904114 C326.83468629 128.06117802 328.63084863 122.93332186 330.42749023 117.80563354 C335.85401386 102.31709174 341.25573205 86.82030736 346.61645508 71.30883789 C349.65488089 62.51829998 352.70999759 53.73359992 355.77282715 44.95153809 C356.68154552 42.34368759 357.5874701 39.73487869 358.49316406 37.12597656 C359.85866548 33.19836563 361.2393506 29.27643328 362.63302612 25.35873413 C363.12464979 23.97049496 363.61163097 22.58060037 364.09329224 21.18887329 C367.12527659 12.44206692 370.14097782 3.96008708 378.26171875 -1.20703125 C384.40283733 -3.84735862 391.77805666 -3.8821231 398.13671875 -1.9765625 C404.63789487 1.04008172 409.02810001 5.6151719 411.69921875 12.29296875 C414.54295609 22.44917355 408.95027431 33.92006993 405.515625 43.4375 C405.10839203 44.579841 404.70115906 45.72218201 404.28158569 46.8991394 C403.17747623 49.99195155 402.06822677 53.08285525 400.95634079 56.17287827 C400.01570164 58.78994216 399.07944284 61.40856457 398.14312458 64.02717686 C390.89220589 84.30362235 383.53863935 104.54272567 376.15917969 124.77270508 C370.21006999 141.08925415 364.34115548 157.43330832 358.51171875 173.79296875 C350.67206907 195.7909305 342.77609121 217.7674095 334.80455017 239.71792603 C332.64778189 245.66186273 330.50692973 251.61131447 328.3760376 257.5645752 C326.92042328 261.62868672 325.45883844 265.69063756 323.99645996 269.75231934 C323.30824104 271.66840616 322.62269336 273.58545494 321.94006348 275.50354004 C320.99711142 278.15211385 320.04452854 280.79704293 319.08984375 283.44140625 C318.68463501 284.59130539 318.68463501 284.59130539 318.27124023 285.76443481 C314.66905449 295.66457663 310.17937469 304.06374577 300.7578125 309.390625 C293.27109552 312.64243136 285.25548413 312.12334432 277.73046875 309.26171875 C269.3995331 305.28850328 265.46593421 297.78110021 262.44189453 289.4675293 C261.66582838 287.20842017 260.90064508 284.94555258 260.14453125 282.6796875 C259.50364645 280.80150801 258.86276017 278.92332903 258.22181034 277.04517174 C257.54601481 275.05856327 256.87522751 273.07033006 256.20596313 271.08151245 C254.80787346 266.92724587 253.39584532 262.77780439 251.98120117 258.62915039 C250.55309113 254.43933756 249.12554737 250.24934225 247.70274353 246.057724 C243.86739981 234.7601935 239.95856519 223.48948966 236.01171875 212.23046875 C234.81680592 208.81541935 233.62306186 205.39996228 232.4296875 201.984375 C231.98301224 200.70618645 231.98301224 200.70618645 231.52731323 199.4021759 C227.60322071 188.16544139 223.71525019 176.91618332 219.82421875 165.66796875 C219.068465 163.48395971 218.31268705 161.29995904 217.55688477 159.1159668 C214.48331325 150.23377115 211.41021026 141.35141511 208.34082031 132.46777344 C206.41252503 126.88686926 204.48224527 121.30665482 202.55072021 115.72686768 C201.82880851 113.64017604 201.10763105 111.55323021 200.38726807 109.46600342 C196.31855038 97.67787095 192.15642347 85.94029338 187.69921875 74.29296875 C187.48276199 74.91141663 187.26630524 75.5298645 187.04328918 76.16705322 C179.80178833 96.85705566 172.56028748 117.54705811 165.31878662 138.23706055 C165.09686236 138.87113012 164.87493811 139.5051997 164.64628887 140.15848351 C163.98640752 142.04385799 163.32652438 143.92923185 162.66664124 145.81460571 C161.80093822 148.28805161 160.93524607 150.76150131 160.06956482 153.23495483 C157.91080861 159.40298259 155.75185909 165.57094255 153.5925293 171.73876953 C148.90882167 185.11784301 144.22922502 198.49833556 139.55547523 211.88088989 C135.82891992 222.55066941 132.09134099 233.21654113 128.34709167 243.88012695 C125.99182547 250.59193633 123.65130521 257.30858991 121.3260498 264.03085327 C119.96283993 267.96443267 118.58844854 271.89403744 117.21112061 275.82269287 C116.58874158 277.60596584 115.97125188 279.39095443 115.35919189 281.17779541 C107.6590119 303.64193006 107.6590119 303.64193006 96.9609375 309.1953125 C89.70573359 312.35038113 82.76095226 312.3151546 75.38671875 309.54296875 C65.8781924 305.24113936 61.37454859 298.00187945 57.66723633 288.40893555 C57.04847741 286.69058284 56.44110777 284.96809663 55.84375 283.2421875 C55.5048877 282.29208298 55.16602539 281.34197845 54.81689453 280.36308289 C53.70517626 277.23898892 52.60857635 274.10980773 51.51171875 270.98046875 C50.71879881 268.74456163 49.92474807 266.50905524 49.12963867 264.27392578 C47.47079509 259.60704335 45.8173448 254.938303 44.16796875 250.26806641 C40.70249 240.46409661 37.18479951 230.67892829 33.66952515 220.89273071 C32.09832761 216.51657762 30.53023801 212.1393134 28.96208191 207.7620697 C22.56433501 189.90467629 16.14703735 172.054316 9.72912598 154.2041626 C4.67154474 140.13739632 -0.38369464 126.06982388 -5.421875 111.99609375 C-5.827547 110.86300278 -6.23321899 109.7299118 -6.65118408 108.56248474 C-10.0061101 99.19163279 -10.0061101 99.19163279 -11.40081787 95.29495239 C-15.5726542 83.64214275 -19.76305728 71.99650113 -24 60.3671875 C-24.56493416 58.81643021 -24.56493416 58.81643021 -25.14128113 57.23434448 C-26.92114826 52.35116223 -28.7042508 47.46918995 -30.49194336 42.58886719 C-31.11833583 40.87435225 -31.74471981 39.15983421 -32.37109375 37.4453125 C-32.65550827 36.67201096 -32.93992279 35.89870941 -33.23295593 35.10197449 C-36.29707897 26.70490751 -38.60228138 17.40904787 -34.67578125 8.85546875 C-31.63836068 3.71849781 -27.06407504 -0.04022432 -21.48046875 -2.19921875 C-14.34764868 -3.86098687 -6.36627748 -3.91052264 0 0 Z " fill="#000000" transform="translate(1000.30078125,747.70703125)"/>
<path d="M0 0 C2.79686567 0.00315975 5.59266804 -0.02041874 8.3894043 -0.0456543 C43.01385574 -0.16603541 76.71966142 7.83674293 102.99682617 31.31567383 C103.61686523 31.85321289 104.2369043 32.39075195 104.87573242 32.94458008 C125.69776947 52.22066542 135.03867924 82.27298905 136.22875977 109.90512085 C136.63205112 122.08340658 136.56502944 134.2747513 136.53412819 146.45799065 C136.52387105 151.77795058 136.53342641 157.09788541 136.53967285 162.41784668 C136.54690264 171.32703704 136.53747474 180.2360937 136.51831055 189.14526367 C136.49644348 199.42945913 136.50368294 209.71333852 136.52561617 219.99752665 C136.54377642 228.87027641 136.54632863 237.74293123 136.53586149 246.61569357 C136.52964375 251.89737737 136.52874569 257.17891244 136.54200745 262.46058655 C136.55357823 267.4120003 136.54551785 272.36300524 136.52243042 277.31437492 C136.51715452 279.12676757 136.5186379 280.93919481 136.52748108 282.75157356 C136.53846208 285.23087961 136.5246447 287.70888642 136.50476074 290.18811035 C136.51814507 291.25502948 136.51814507 291.25502948 136.53179979 292.34350252 C136.43533839 298.57103493 134.28809538 303.660467 130.25073242 308.33911133 C129.69256836 308.78512695 129.1344043 309.23114258 128.55932617 309.69067383 C128.00374023 310.1521582 127.4481543 310.61364258 126.87573242 311.08911133 C120.89336376 314.99444139 114.92963039 314.90491615 107.99682617 314.31567383 C101.31000775 312.76791115 96.63220271 307.95050746 92.99682617 302.31567383 C91.77188318 298.64566535 91.79069164 294.9875558 91.68041992 291.14379883 C91.64924828 290.12017242 91.64924828 290.12017242 91.6174469 289.0758667 C91.55230565 286.90590027 91.49323213 284.73581759 91.43432617 282.56567383 C91.3911072 281.09040161 91.34749185 279.61514096 91.3034668 278.13989258 C91.19666099 274.53194217 91.09529464 270.9238625 90.99682617 267.31567383 C90.18600586 268.22188477 89.37518555 269.1280957 88.53979492 270.06176758 C68.82135235 291.861518 45.49677052 306.20366586 16.99682617 313.31567383 C16.29992676 313.49501465 15.60302734 313.67435547 14.88500977 313.85913086 C-5.75834933 318.93057819 -31.44424336 318.50520758 -52.00317383 313.31567383 C-52.69685059 313.14938477 -53.39052734 312.9830957 -54.10522461 312.81176758 C-80.9313215 306.237639 -106.06014237 291.0202669 -121.00317383 267.31567383 C-128.46495997 254.55209228 -132.46932391 240.07778456 -133.00317383 225.31567383 C-133.04313477 224.55770508 -133.0830957 223.79973633 -133.12426758 223.01879883 C-133.83020283 198.2695395 -126.01615836 174.8122318 -109.20239258 156.53833008 C-84.76742123 131.25123676 -47.35422513 121.79179436 -13.17668152 121.0506134 C-8.49348862 120.98929539 -3.81167393 120.98520581 0.87182617 121.00317383 C1.8596106 121.00499664 2.84739502 121.00681946 3.8651123 121.00869751 C34.02163615 121.10214901 62.86274026 125.54368966 91.99682617 133.31567383 C90.45728426 105.97941737 87.34656196 81.37280837 66.59838867 61.44458008 C47.4131918 45.74498204 22.75999753 42.08482179 -1.25317383 42.06567383 C-2.39083694 42.06466171 -2.39083694 42.06466171 -3.55148315 42.06362915 C-24.15869286 42.09272424 -43.09620093 45.07787023 -62.27026367 52.80883789 C-70.8057861 56.22793711 -78.46612044 58.22847409 -87.44067383 55.12817383 C-93.31080836 50.97612745 -97.27753988 46.6647536 -98.81567383 39.56567383 C-99.35444872 33.49012723 -98.2151099 28.37596515 -95.12817383 23.12817383 C-83.93088403 11.55023962 -61.2916379 7.1928654 -46.12817383 3.94067383 C-45.46615967 3.79742676 -44.80414551 3.65417969 -44.12207031 3.5065918 C-29.53129066 0.64442718 -14.82829953 -0.03483547 0 0 Z M-70.00317383 178.31567383 C-80.99527071 190.49269858 -85.82209483 204.10910322 -86.00317383 220.31567383 C-85.08066719 235.74203485 -79.55565935 248.73533004 -68.60473633 259.72192383 C-47.66059575 278.08735641 -21.75380189 280.35986489 4.99682617 279.31567383 C26.13242212 277.7203891 47.97309292 269.1989455 63.99682617 255.31567383 C64.80506836 254.66211914 65.61331055 254.00856445 66.44604492 253.33520508 C79.94697318 241.98450122 89.18617908 225.75544602 91.99682617 208.31567383 C92.59266879 201.35193224 92.37983547 194.35802505 92.24682617 187.37817383 C92.22670576 185.51946938 92.20846491 183.6607436 92.19213867 181.80200195 C92.14863866 177.3060197 92.07992667 172.81109129 91.99682617 168.31567383 C81.54080326 165.29652026 71.16468319 162.51791835 60.43432617 160.62817383 C59.27811768 160.4203125 58.12190918 160.21245117 56.93066406 159.99829102 C16.95494538 152.95278344 -37.92624597 147.69678814 -70.00317383 178.31567383 Z " fill="#000000" transform="translate(1545.003173828125,744.684326171875)"/>
<path d="M0 0 C0.69528809 0.1556543 1.39057617 0.31130859 2.10693359 0.47167969 C34.89091097 8.13785129 63.15209385 29.37141037 81.125 57.625 C98.26189314 85.51849556 110.70625504 122.47709159 106.60546875 155.62109375 C105.00659621 161.90311555 101.35897078 166.42735281 96 170 C91.76244896 172.41751884 87.82643088 172.27299418 83.05303955 172.24050903 C81.68196474 172.24307231 81.68196474 172.24307231 80.28319144 172.24568737 C77.21378019 172.24898726 74.1445865 172.23797026 71.07519531 172.22705078 C68.87758896 172.22648678 66.67998223 172.22680302 64.4823761 172.22793579 C58.50963008 172.22851072 52.53696404 172.2167337 46.56423664 172.20278788 C40.32487198 172.19030388 34.08550559 172.18911186 27.84613037 172.18673706 C17.37152818 172.18122276 6.89695078 172.1687217 -3.57763672 172.15087891 C-14.3663722 172.1325201 -25.15509971 172.1183636 -35.94384766 172.10986328 C-36.60889678 172.10933783 -37.2739459 172.10881239 -37.95914802 172.10827102 C-41.29551332 172.10566094 -44.63187868 172.10313803 -47.96824408 172.10064721 C-75.64551653 172.07972975 -103.3227562 172.0445405 -131 172 C-130.39705134 175.30874776 -129.7833836 178.61542514 -129.16796875 181.921875 C-128.99970581 182.84597168 -128.83144287 183.77006836 -128.65808105 184.72216797 C-125.10971657 203.67451101 -117.90030342 222.392715 -105 237 C-103.96939453 238.22589844 -103.96939453 238.22589844 -102.91796875 239.4765625 C-86.07747299 259.00092011 -61.58067933 270.63265882 -36 273 C-2.47737574 274.91865346 28.30239958 265.30097928 53.8125 243.25 C54.58533325 242.56006958 54.58533325 242.56006958 55.3737793 241.85620117 C62.05354863 235.96783812 67.18559802 233.34266576 76.1953125 233.6796875 C82.37575041 234.38553138 86.03034829 237.38662099 90 242 C93.68280503 247.33371763 93.78075704 252.73557291 93 259 C85.76811338 277.73716079 58.19028308 292.95946013 40.85498047 301 C27.39146348 306.94984524 13.54143345 310.79720353 -1 313 C-1.94685669 313.14356934 -1.94685669 313.14356934 -2.9128418 313.29003906 C-10.54973628 314.29829344 -18.24755518 314.24365915 -25.9375 314.25 C-27.04123459 314.25101212 -27.04123459 314.25101212 -28.16726685 314.25204468 C-39.3710103 314.23573513 -50.09276319 313.70634658 -61 311 C-61.73138184 310.82839355 -62.46276367 310.65678711 -63.21630859 310.47998047 C-86.31269476 304.98224464 -106.90308065 294.30288594 -125 279 C-125.86625 278.27554687 -126.7325 277.55109375 -127.625 276.8046875 C-132.5527681 272.55948187 -136.8987739 268.04305256 -141 263 C-141.77214844 262.06542969 -142.54429688 261.13085938 -143.33984375 260.16796875 C-164.32181268 234.22573315 -177.01431453 199.77290819 -177.203125 166.35546875 C-177.20882507 165.54620438 -177.21452515 164.73694 -177.22039795 163.90315247 C-177.22979274 162.19464398 -177.23635979 160.48611782 -177.24023438 158.77758789 C-177.24983132 156.23223797 -177.28086164 153.68773551 -177.3125 151.14257812 C-177.40814457 136.34805681 -175.69394379 121.80672444 -171.8125 107.5 C-171.6060083 106.73139648 -171.3995166 105.96279297 -171.18676758 105.17089844 C-163.94838635 79.52813258 -150.38187215 57.07452241 -132 38 C-130.85144531 36.73929688 -130.85144531 36.73929688 -129.6796875 35.453125 C-97.5863289 1.29273652 -44.6639648 -10.23527827 0 0 Z M-102.66113281 67.44238281 C-118.66154486 86.05701243 -131 113.15531478 -131 138 C-67.64 138 -4.28 138 61 138 C59.51960837 125.09267577 59.51960837 125.09267577 56.8125 112.5625 C56.59891846 111.77665527 56.38533691 110.99081055 56.1652832 110.18115234 C48.98336496 84.78857787 34.97361534 61.60640439 11.98046875 47.62890625 C-27.10788769 26.26606924 -73.12890217 34.62194277 -102.66113281 67.44238281 Z " fill="#000000" transform="translate(2083,747)"/>
<path d="M0 0 C5.09281892 4.32247656 8.54678726 9.9866967 9.30207825 16.67497253 C9.44190033 19.87817376 9.49347823 23.07113725 9.51171875 26.27734375 C9.52966995 27.4438295 9.54762115 28.61031525 9.56611633 29.81214905 C9.62009379 33.52056312 9.65407574 37.22884938 9.6875 40.9375 C9.72068405 43.45900211 9.75517471 45.98048738 9.79101562 48.50195312 C9.87581323 54.66785412 9.94421631 60.83377191 10 67 C10.60328125 65.9073584 11.2065625 64.8147168 11.828125 63.68896484 C12.63521569 62.23784393 13.44251862 60.78684105 14.25 59.3359375 C14.64574219 58.61784912 15.04148437 57.89976074 15.44921875 57.15991211 C18.74587026 51.25228559 22.52046542 46.07622935 27 41 C27.70898438 40.17113281 28.41796875 39.34226562 29.1484375 38.48828125 C47.37152367 17.61165797 74.73330743 -0.37054023 103 -3 C105.91703229 -3.17567363 108.82819139 -3.26569829 111.75 -3.3125 C112.81420166 -3.33920776 112.81420166 -3.33920776 113.89990234 -3.36645508 C121.04236077 -3.35557994 126.80035658 -1.05911252 132 4 C136.66441303 10.7217804 137.80642596 16.95878111 137 25 C135.49407068 31.18701083 133.08102872 35.6753846 128.171875 39.74609375 C121.9659977 43.32898334 115.3981342 44.64314914 108.4375 45.875 C78.87344171 51.51815787 52.75790267 66.2611827 35 91 C16.87906812 117.85345166 9.87271157 149.3605992 9.84228516 181.4128418 C9.83720444 182.60128693 9.83212372 183.78973206 9.82688904 185.01419067 C9.81349373 188.23917941 9.80405117 191.46415512 9.79547167 194.68915915 C9.78465341 198.08200944 9.76609905 201.474814 9.74765015 204.86763 C9.68608503 216.39487061 9.63167438 227.92210233 9.59863281 239.44946289 C9.580253 245.83425953 9.55128848 252.21891757 9.5106281 258.60361224 C9.48964064 261.97286948 9.47411237 265.34195289 9.47182083 268.71127892 C9.46690976 272.46617346 9.44374912 276.22055218 9.41650391 279.9753418 C9.41951004 281.07943893 9.42251617 282.18353607 9.4256134 283.3210907 C9.34492939 290.81302089 8.70077175 296.87279061 3.625 302.75 C2.75875 303.4925 1.8925 304.235 1 305 C0.154375 305.7425 -0.69125 306.485 -1.5625 307.25 C-6.94547165 311.11469759 -13.62329932 310.46086536 -20 310 C-25.75831321 308.65815454 -30.9618475 305.08319248 -34.2265625 300.14453125 C-38.36081358 292.45601395 -38.14672224 284.58172193 -38.13371277 276.04446411 C-38.13597833 274.9504412 -38.13824388 273.85641828 -38.14057809 272.72924316 C-38.14690133 269.06834534 -38.1460898 265.4074847 -38.14526367 261.74658203 C-38.14825618 259.11979118 -38.15165892 256.49300077 -38.15544128 253.86621094 C-38.16373419 247.47462968 -38.1664955 241.08305766 -38.16705366 234.69147147 C-38.16752941 229.49482237 -38.1695871 224.29817631 -38.17275429 219.10152817 C-38.1815567 204.35801702 -38.18617424 189.61451314 -38.18542381 174.87099935 C-38.18538386 174.07680687 -38.1853439 173.28261439 -38.18530273 172.46435547 C-38.18526185 171.66919001 -38.18522097 170.87402456 -38.18517885 170.05476318 C-38.18477237 157.16702199 -38.19434357 144.27931 -38.2084411 131.39157726 C-38.22281249 118.14869479 -38.22971088 104.90582656 -38.22884732 91.66293609 C-38.22851565 84.23198517 -38.23124999 76.80106489 -38.24202538 69.370121 C-38.25209415 62.38189395 -38.25178723 55.39373257 -38.24450874 48.40550232 C-38.24346263 45.84208456 -38.24582734 43.27866278 -38.2518692 40.71525192 C-38.25958812 37.21325955 -38.25494477 33.71149074 -38.24723816 30.20950317 C-38.25238172 29.19771944 -38.25752529 28.18593571 -38.26282471 27.14349186 C-38.2165691 17.61684089 -37.36323335 9.44152873 -30.39453125 2.37109375 C-21.36826229 -5.89800475 -10.44281031 -6.0383597 0 0 Z " fill="#000000" transform="translate(1773,748)"/>
<path d="M0 0 C9.13456794 6.39245098 14.83933065 14.30509218 17.37890625 25.19140625 C19.24779753 36.422385 16.66113212 46.88404145 10.51171875 56.39453125 C4.48870673 64.40239951 -3.69662946 68.98698303 -13.33203125 71.4921875 C-25.41546453 72.2802375 -35.01867825 70.72738301 -45.20703125 63.6796875 C-53.81136519 55.8954991 -58.26004717 46.96677699 -59.4296875 35.49609375 C-59.89041753 24.25828748 -55.69378983 13.66242425 -48.1328125 5.41796875 C-34.90095745 -7.07493453 -15.77765598 -9.43866853 0 0 Z M-45.20703125 14.6796875 C-50.03975837 21.16674439 -51.67781705 29.85715094 -50.90234375 37.80078125 C-48.9778121 47.12644387 -44.47533514 53.59402927 -36.76953125 59.1171875 C-29.93215336 63.30783846 -22.83119834 64.7107848 -14.86328125 63.25 C-6.13924976 61.06899213 0.25113015 56.49133667 5.23046875 48.9921875 C9.40090162 41.29203072 10.58455114 33.86048069 8.66796875 25.3046875 C5.89188918 16.09097514 0.08443151 9.49001002 -8.1484375 4.50390625 C-22.20109421 -1.6863037 -35.58712156 4.10645343 -45.20703125 14.6796875 Z " fill="#000000" transform="translate(2251.20703125,749.3203125)"/>
<path d="M0 0 C0.88623047 -0.02900391 1.77246094 -0.05800781 2.68554688 -0.08789062 C8.76886909 -0.1464274 12.40075896 0.63674098 17.3125 4.3125 C20.10617645 8.21747315 19.98308079 12.69028241 19.3125 17.3125 C18.23979008 19.79693664 17.12415918 21.23442035 15.3125 23.3125 C14.6525 23.3125 13.9925 23.3125 13.3125 23.3125 C13.93125 24.240625 14.55 25.16875 15.1875 26.125 C19.3125 32.3125 19.3125 32.3125 18.9375 35 C18.628125 36.1446875 18.628125 36.1446875 18.3125 37.3125 C16.125 38.0625 16.125 38.0625 13.3125 38.3125 C9.90672574 36.26903545 7.98638803 33.8966396 5.875 30.625 C3.91984738 27.71095087 3.59295017 27.39187269 0 26.375 C-0.886875 26.354375 -1.77375 26.33375 -2.6875 26.3125 C-2.56375 28.16875 -2.56375 28.16875 -2.4375 30.0625 C-2.4137052 33.41756698 -2.49108323 34.06697904 -4.6875 36.8125 C-5.3475 37.3075 -6.0075 37.8025 -6.6875 38.3125 C-8.3375 37.6525 -9.9875 36.9925 -11.6875 36.3125 C-11.6875 24.7625 -11.6875 13.2125 -11.6875 1.3125 C-8.09710913 -0.48269543 -3.95422328 0.04221591 0 0 Z M-2.6875 8.3125 C-2.6875 11.6125 -2.6875 14.9125 -2.6875 18.3125 C2.70699293 18.58679625 5.83175805 18.67305646 10.3125 15.3125 C9.73797254 11.38174356 9.73797254 11.38174356 7.3125 8.3125 C4.87237051 8.06962511 4.87237051 8.06962511 2.1875 8.1875 C0.57875 8.22875 -1.03 8.27 -2.6875 8.3125 Z " fill="#000000" transform="translate(2227.6875,762.6875)"/>
</svg>
